<?xml version="1.0" encoding="utf-8"?>
<!-- Generator: Adobe Illustrator 19.1.0, SVG Export Plug-In . SVG Version: 6.00 Build 0)  -->
<svg version="1.1" id="Camada_1" xmlns="http://www.w3.org/2000/svg" xmlns:xlink="http://www.w3.org/1999/xlink" x="0px" y="0px"
	 viewBox="0 0 500 111" style="enable-background:new 0 0 500 111;" xml:space="preserve">
<style type="text/css">
	.st0{fill:#C9C3C4;}
	.st1{fill:#AA9C9B;}
	.st2{fill:#CB4833;}
	.st3{fill:none;stroke:#FFFFFF;stroke-miterlimit:10;}
	.st4{fill:none;stroke:#FFFFFF;stroke-miterlimit:10;stroke-dasharray:11.8798,11.8798;}
</style>
<rect x="0" y="57.4" class="st0" width="500" height="54"/>
<g>
	<path class="st1" d="M55.1,41.7c0.2-0.5,0.5-1.8,0.6-2.6c0-0.2,0.2-0.3,0.4-0.2c0.3,0.2,0.7,0.4,0.8,0.5c0,0,0,0,0.1,0
		c0.5,0.1,0.7,0,0.8-0.1c0.1-0.1,0.2-0.1,0.3-0.1c0.9,0.3,0.6-0.2,0.6-0.2c0.7,0,0.5-0.3,0.5-0.3c0.1-0.1-0.4-0.3-0.4-0.3
		s0.2,0,0.2,0c0.1,0-0.1-0.3-0.1-0.3c-1-0.7-1.4-1.2-1.7-1.4c-0.1-0.1-0.1-0.4,0.1-0.4c0.1,0,0.2-0.1,0.3-0.1c0.3-0.2,0-0.6-0.3-0.5
		c-0.2,0.1-0.5,0.1-0.6,0.1c-0.1,0-0.2-0.1-0.2-0.2c-0.3-1.4,0.4-1.8,0.6-1.9c0,0,0.1,0,0.1,0c0.6,0,7.4-0.3,7.4-0.3
		c0.8,0,1-0.2,0.9-0.3c0-0.1,0-0.3,0.2-0.3c1.3-0.5,0.2-1.1,0.2-1.1c0.3-0.1,0-0.3,0-0.3c0-0.2-1.3-0.3-1.9-0.4
		c-0.2,0-0.3-0.2-0.2-0.3c0.3-0.9-0.3-0.4-0.3-0.4c-0.4,0.4-1.8,1.1-1.8,1.1c-0.6,0.3-3.5,0-4.3,0c-0.1,0-0.2-0.1-0.2-0.3
		c0-0.7,0.1-1.9,0.2-2.3c0-0.1,0-0.1,0.1-0.2c3.3-2.9,1.3-5.3,1.1-5.5c0,0,0,0,0,0c-2.4-1.8-3.4-4.8-3.5-5.1c0,0,0,0,0,0
		c-0.5-3.2,2.6-2.6,2.6-2.6c0.8,0.1,0.8-0.7,0.7-1.2c0-0.2,0.1-0.3,0.3-0.3c0.1,0,0.3-0.1,0.3-0.1c0.2,0,0.2-0.2,0.1-0.4
		c-0.1-0.1,0-0.3,0.1-0.4c0,0,0.1,0,0.1-0.1c0.1-0.1,0.1-0.3,0-0.4c-0.3-0.3,0-0.7,0-0.7c1.2,0.3,0.8-0.5,0.8-0.5
		c-0.2-0.2-0.7-0.9-0.9-1.2c-0.1-0.1-0.1-0.2,0-0.4c0.4-1,0.3-1.9,0.1-2.4c0-0.2,0.1-0.3,0.2-0.3c0.4,0,0.1-0.6,0.1-0.6
		c-2.3-3.9-6.9-3.2-8.1-2.9c-0.1,0-0.3-0.1-0.3-0.2c-0.2-1-0.8-1.2-1.1-1.3c-0.2,0-0.4-0.1-0.5-0.1c-1.9-0.6-3.1,0.8-3.8,2.1
		c-0.5,0.9-0.7,1.9-0.7,2.9l0.1,4.9c0,1.3-0.9,2.2-1.6,2.7c-0.2,0.2-0.1,0.5,0.2,0.5c1.6-0.2,2.2-0.8,2.2-0.8
		c2.2-1.1,2.7-8.2,3.1-8.6c0.4-0.3,0.5,0.2,0.5,0.2c-1.1,1-0.9,3.2-0.9,3.2c-0.1,2,1.9,4,2.4,4.4c0.1,0.1,0.1,0.1,0.1,0.2
		c0,0.8-0.3,1.7-0.4,2c0,0,0,0.1-0.1,0.1c-2.1,1.8-1.9,3-1.8,3.3c0,0.1,0,0.2,0,0.2l-6.9,12.2c-1.8,2.5,1.1,3.1,1.1,3.1L48,36
		c0.1,0,0.2,0.2,0.2,0.3l-0.4,4.3c0,0.1,0.1,0.3,0.2,0.3l6.7,1C54.9,41.8,55,41.8,55.1,41.7z"/>
	<path class="st1" d="M47.9,40.6c0,0-4,5-3.3,7.9c0,0,4.8,3.2,10.4,0c0,0,2.6,0,2.5-1.8s-2.4-5-2.4-5"/>
	<path class="st1" d="M54.8,44.8c0,0,8.1,9.3,8.6,12.9c0,0,0.7,7.2,0,8.1c0,0,2,9,6,9.6c0,0,5.4,0.5,6.4,0c0,0,2.5,1.2-1.7,3.1
		c0,0-5.9,0.5-6.6,1.8c0,0-3.5,3.2-3.6-0.6c0,0,0.3-3.6-1.9-7.4c0,0-4.4-4.7-3.7-11.4c0,0-6.2-3.5-6.2-7.4l1.7-6.7L54.8,44.8z"/>
	<path class="st2" d="M45.2,48c0,0-1.8,6.2-1.2,9.4c0,0-4.2,0.2-8.9,8.2c0,0-3.2,6.1-6,7.3c0,0-3.9,1.6-2.9,2.8c0,0,3.4,0.9,3.9,2.8
		c0,0,5.6,8,5.5,3.3c-0.1-4.6-1.9-3.3-0.7-6.6c0,0,4.6-10.8,12.2-13.9c0,0,6.3-5.9,6.6-12.3L45.2,48z"/>
</g>
<g>
	<path class="st1" d="M111.7,41.7c0.2-0.5,0.5-1.8,0.6-2.6c0-0.2,0.2-0.3,0.4-0.2c0.3,0.2,0.7,0.4,0.8,0.5c0,0,0,0,0.1,0
		c0.5,0.1,0.7,0,0.8-0.1c0.1-0.1,0.2-0.1,0.3-0.1c0.9,0.3,0.6-0.2,0.6-0.2c0.7,0,0.5-0.3,0.5-0.3c0.1-0.1-0.4-0.3-0.4-0.3
		s0.2,0,0.2,0c0.1,0-0.1-0.3-0.1-0.3c-1-0.7-1.4-1.2-1.7-1.4c-0.1-0.1-0.1-0.4,0.1-0.4c0.1,0,0.2-0.1,0.3-0.1c0.3-0.2,0-0.6-0.3-0.5
		c-0.2,0.1-0.5,0.1-0.6,0.1c-0.1,0-0.2-0.1-0.2-0.2c-0.3-1.4,0.4-1.8,0.6-1.9c0,0,0.1,0,0.1,0c0.6,0,7.4-0.3,7.4-0.3
		c0.8,0,1-0.2,0.9-0.3c0-0.1,0-0.3,0.2-0.3c1.3-0.5,0.2-1.1,0.2-1.1c0.3-0.1,0-0.3,0-0.3c0-0.2-1.3-0.3-1.9-0.4
		c-0.2,0-0.3-0.2-0.2-0.3c0.3-0.9-0.3-0.4-0.3-0.4c-0.4,0.4-1.8,1.1-1.8,1.1c-0.6,0.3-3.5,0-4.3,0c-0.1,0-0.2-0.1-0.2-0.3
		c0-0.7,0.1-1.9,0.2-2.3c0-0.1,0-0.1,0.1-0.2c3.3-2.9,1.3-5.3,1.1-5.5c0,0,0,0,0,0c-2.4-1.8-3.4-4.8-3.5-5.1c0,0,0,0,0,0
		c-0.5-3.2,2.6-2.6,2.6-2.6c0.8,0.1,0.8-0.7,0.7-1.2c0-0.2,0.1-0.3,0.3-0.3c0.1,0,0.3-0.1,0.3-0.1c0.2,0,0.2-0.2,0.1-0.4
		c-0.1-0.1,0-0.3,0.1-0.4c0,0,0.1,0,0.1-0.1c0.1-0.1,0.1-0.3,0-0.4c-0.3-0.3,0-0.7,0-0.7c1.2,0.3,0.8-0.5,0.8-0.5
		c-0.2-0.2-0.7-0.9-0.9-1.2c-0.1-0.1-0.1-0.2,0-0.4c0.4-1,0.3-1.9,0.1-2.4c0-0.2,0.1-0.3,0.2-0.3c0.4,0,0.1-0.6,0.1-0.6
		c-2.3-3.9-6.9-3.2-8.1-2.9c-0.1,0-0.3-0.1-0.3-0.2c-0.2-1-0.8-1.2-1.1-1.3c-0.2,0-0.4-0.1-0.5-0.1c-1.9-0.6-3.1,0.8-3.8,2.1
		c-0.5,0.9-0.7,1.9-0.7,2.9l0.1,4.9c0,1.3-0.9,2.2-1.6,2.7c-0.2,0.2-0.1,0.5,0.2,0.5c1.6-0.2,2.2-0.8,2.2-0.8
		c2.2-1.1,2.7-8.2,3.1-8.6c0.4-0.3,0.5,0.2,0.5,0.2c-1.1,1-0.9,3.2-0.9,3.2c-0.1,2,1.9,4,2.4,4.4c0.1,0.1,0.1,0.1,0.1,0.2
		c0,0.8-0.3,1.7-0.4,2c0,0,0,0.1-0.1,0.1c-2.1,1.8-1.9,3-1.8,3.3c0,0.1,0,0.2,0,0.2l-6.9,12.2c-1.8,2.5,1.1,3.1,1.1,3.1l5.2,1.5
		c0.1,0,0.2,0.2,0.2,0.3l-0.4,4.3c0,0.1,0.1,0.3,0.2,0.3l6.7,1C111.6,41.9,111.7,41.8,111.7,41.7z"/>
	<path class="st1" d="M104.8,40.9c0,0-3.7,3.3-3.2,7.1c0,0,2.3,3.1,4.4,3.3c0.2,0,0.4,0,0.5,0c2.2-0.4,5.5-1.9,5.9-3.1
		c0.4-1.1,1.2-5.5-0.6-6.5"/>
	<path class="st1" d="M104.1,49.6c0,0,0,11.7,0.5,15.9c0,0,1,9.7,0.7,12.1c0,0.3-0.1,0.5-0.2,0.5c-0.8,0-0.4,3.1-0.4,3.1
		s5.1,0.1,8.1,0.5c3,0.4,3.6-2.2-0.8-3.1c0,0-2.7-0.9-3.4-2.9c0,0-0.4-1,1-7.9c0,0,2.1-19.9,1.4-20.3"/>
	<path class="st2" d="M111.3,48.6c1.5,1.4,7.8,7.6,8.7,11.7c0.1,0.3,0,0.7,0,1c-0.3,1.2-1.6,3.9-7.1,5.4c-0.1,0-0.1,0-0.1,0
		c-0.9,0.3-10.5,3.8-11.2,5.2c0,0-1.7,1.8,0.9,4.7c0,0,1.4,3.1-2.2,1.6c-0.7-0.3-1.2-0.9-1.4-1.7c-0.2-0.8-0.5-2-0.8-2.9
		c-0.1-0.4-0.4-0.8-0.7-1.1c-0.8-0.7-2.4-2.3,0.4-3.4c0,0,7.8-2.5,8-3.8c0,0,2-2.2,4.5-3.6c1.4-0.8,1.6-2.6,0.5-3.7
		c-2.9-2.7-7.2-7-8.7-9.9c-2.1-3.9,6.4-0.9,8.4-0.2C110.8,48.2,111.1,48.4,111.3,48.6z"/>
</g>
<g>
	<path class="st2" d="M290.9,44.2c0,0,3.6,4.1,6.7,11.3c0,0,1.3,1.4,0.6,3.8c0,0-0.8,10.1-0.2,11.5c0,0,2.1,4.1,3,4.4
		c0.9,0.4,3.6,1.6,4.9,1.3c0,0,2.9,2.2-1.9,3.2c0,0-3.6-0.5-7.1,0c0,0-3.4,0.3-1.8-3c0,0,1.4-5.3-0.7-7.5c0,0-2-8.2-1.2-10
		c0,0-10.4-9.2-9.3-11.4"/>
	<path class="st1" d="M288.6,41.5c0.2-0.5,0.5-1.8,0.6-2.6c0-0.2,0.2-0.3,0.4-0.2c0.3,0.2,0.7,0.4,0.8,0.5c0,0,0,0,0.1,0
		c0.5,0.1,0.7,0,0.8-0.1c0.1-0.1,0.2-0.1,0.3-0.1c0.9,0.3,0.6-0.2,0.6-0.2c0.7,0,0.5-0.3,0.5-0.3c0.1-0.1-0.4-0.3-0.4-0.3
		s0.2,0,0.2,0s-0.1-0.3-0.1-0.3c-1-0.7-1.4-1.2-1.7-1.4c-0.1-0.1-0.1-0.4,0.1-0.4c0.1,0,0.2-0.1,0.3-0.1c0.3-0.2,0-0.6-0.3-0.5
		c-0.2,0.1-0.5,0.1-0.6,0.1c-0.1,0-0.2-0.1-0.2-0.2c-0.3-1.4,0.4-1.8,0.6-1.9c0,0,0.1,0,0.1,0c0.6,0,7.4-0.3,7.4-0.3
		c0.8,0,1-0.2,0.9-0.3c0-0.1,0-0.3,0.2-0.3c1.3-0.5,0.2-1.1,0.2-1.1c0.3-0.1,0-0.3,0-0.3c0-0.2-1.3-0.3-1.9-0.4
		c-0.2,0-0.3-0.2-0.2-0.3c0.3-0.9-0.3-0.4-0.3-0.4c-0.4,0.4-1.8,1.1-1.8,1.1c-0.6,0.3-3.5,0-4.3,0c-0.1,0-0.2-0.1-0.2-0.3
		c0-0.7,0.1-1.9,0.2-2.3c0-0.1,0-0.1,0.1-0.2c3.3-2.9,1.3-5.3,1.1-5.5c0,0,0,0,0,0c-2.4-1.8-3.4-4.8-3.5-5.1c0,0,0,0,0,0
		c-0.5-3.2,2.6-2.6,2.6-2.6c0.8,0.1,0.8-0.7,0.7-1.2c0-0.2,0.1-0.3,0.3-0.3c0.1,0,0.3-0.1,0.3-0.1c0.2,0,0.2-0.2,0.1-0.4
		c-0.1-0.1,0-0.3,0.1-0.4c0,0,0.1,0,0.1-0.1c0.1-0.1,0.1-0.3,0-0.4c-0.3-0.3,0-0.7,0-0.7c1.2,0.3,0.8-0.5,0.8-0.5
		c-0.2-0.2-0.7-0.9-0.9-1.2c-0.1-0.1-0.1-0.2,0-0.4c0.4-1,0.3-1.9,0.1-2.4c0-0.2,0.1-0.3,0.2-0.3c0.4,0,0.1-0.6,0.1-0.6
		c-2.3-3.9-6.9-3.2-8.1-2.9c-0.1,0-0.3-0.1-0.3-0.2c-0.2-1-0.8-1.2-1.1-1.3c-0.2,0-0.4-0.1-0.5-0.1c-1.9-0.6-3.1,0.8-3.8,2.1
		c-0.5,0.9-0.7,1.9-0.7,2.9l0.1,4.9c0,1.3-0.9,2.2-1.6,2.7c-0.2,0.2-0.1,0.5,0.2,0.5c1.6-0.2,2.2-0.8,2.2-0.8
		c2.2-1.1,2.7-8.2,3.1-8.6c0.4-0.3,0.5,0.2,0.5,0.2c-1.1,1-0.9,3.2-0.9,3.2c-0.1,2,1.9,4,2.4,4.4c0.1,0.1,0.1,0.1,0.1,0.2
		c0,0.8-0.3,1.7-0.4,2c0,0,0,0.1-0.1,0.1c-2.1,1.8-1.9,3-1.8,3.3c0,0.1,0,0.2,0,0.2l-6.9,12.2c-1.8,2.5,1.1,3.1,1.1,3.1l5.2,1.5
		c0.1,0,0.2,0.2,0.2,0.3l-0.4,4.3c0,0.1,0.1,0.3,0.2,0.3l6.7,1C288.5,41.6,288.6,41.5,288.6,41.5z"/>
	<path class="st1" d="M281.6,40.6c0,0-4.6,2.7-4.2,8.3c0,0,4.6,2.3,7.2,0.5c0,0,3.9-5.1,6.8-4.8c0,0,1.5-1.1-2.8-3.2"/>
	<path class="st1" d="M278.4,47.8c0,0-2.3,3.9-3.2,9.8c0,0-3.6,0.6-6.2,8.4c0,0-2.7,7.7-4.4,7.8c0,0-3.7,0.6-1.3,2.7
		c0,0,4.7,4.2,4.6,4.8c-0.2,0.6,4.1,0.8,4.3,0.3c0,0,1.6-1.2-0.9-2.5c0,0-2.7-2.8-1.8-5.1c0-0.1,0.1-0.2,0.1-0.3
		c1.2-2.3,0.7-3.2,6.4-9.5c0,0,4.7-3,4.8-5.5c0,0,4.4-7.2,4.1-10.3L278.4,47.8z"/>
</g>
<g>
	<path class="st1" d="M230.9,41.7c0.2-0.5,0.5-1.8,0.6-2.6c0-0.2,0.2-0.3,0.4-0.2c0.3,0.2,0.7,0.4,0.8,0.5c0,0,0,0,0.1,0
		c0.5,0.1,0.7,0,0.8-0.1c0.1-0.1,0.2-0.1,0.3-0.1c0.9,0.3,0.6-0.2,0.6-0.2c0.7,0,0.5-0.3,0.5-0.3c0.1-0.1-0.4-0.3-0.4-0.3
		s0.2,0,0.2,0c0.1,0-0.1-0.3-0.1-0.3c-1-0.7-1.4-1.2-1.7-1.4c-0.1-0.1-0.1-0.4,0.1-0.4c0.1,0,0.2-0.1,0.3-0.1c0.3-0.2,0-0.6-0.3-0.5
		c-0.2,0.1-0.5,0.1-0.6,0.1c-0.1,0-0.2-0.1-0.2-0.2c-0.3-1.4,0.4-1.8,0.6-1.9c0,0,0.1,0,0.1,0c0.6,0,7.4-0.3,7.4-0.3
		c0.8,0,1-0.2,0.9-0.3c0-0.1,0-0.3,0.2-0.3c1.3-0.5,0.2-1.1,0.2-1.1c0.3-0.1,0-0.3,0-0.3c0-0.2-1.3-0.3-1.9-0.4
		c-0.2,0-0.3-0.2-0.2-0.3c0.3-0.9-0.3-0.4-0.3-0.4c-0.4,0.4-1.8,1.1-1.8,1.1c-0.6,0.3-3.5,0-4.3,0c-0.1,0-0.2-0.1-0.2-0.3
		c0-0.7,0.1-1.9,0.2-2.3c0-0.1,0-0.1,0.1-0.2c3.3-2.9,1.3-5.3,1.1-5.5c0,0,0,0,0,0c-2.4-1.8-3.4-4.8-3.5-5.1c0,0,0,0,0,0
		c-0.5-3.2,2.6-2.6,2.6-2.6c0.8,0.1,0.8-0.7,0.7-1.2c0-0.2,0.1-0.3,0.3-0.3c0.1,0,0.3-0.1,0.3-0.1c0.2,0,0.2-0.2,0.1-0.4
		c-0.1-0.1,0-0.3,0.1-0.4c0,0,0.1,0,0.1-0.1c0.1-0.1,0.1-0.3,0-0.4c-0.3-0.3,0-0.7,0-0.7c1.2,0.3,0.8-0.5,0.8-0.5
		c-0.2-0.2-0.7-0.9-0.9-1.2c-0.1-0.1-0.1-0.2,0-0.4c0.4-1,0.3-1.9,0.1-2.4c0-0.2,0.1-0.3,0.2-0.3c0.4,0,0.1-0.6,0.1-0.6
		c-2.3-3.9-6.9-3.2-8.1-2.9c-0.1,0-0.3-0.1-0.3-0.2c-0.2-1-0.8-1.2-1.1-1.3c-0.2,0-0.4-0.1-0.5-0.1c-1.9-0.6-3.1,0.8-3.8,2.1
		c-0.5,0.9-0.7,1.9-0.7,2.9l0.1,4.9c0,1.3-0.9,2.2-1.6,2.7c-0.2,0.2-0.1,0.5,0.2,0.5c1.6-0.2,2.2-0.8,2.2-0.8
		c2.2-1.1,2.7-8.2,3.1-8.6s0.5,0.2,0.5,0.2c-1.1,1-0.9,3.2-0.9,3.2c-0.1,2,1.9,4,2.4,4.4c0.1,0.1,0.1,0.1,0.1,0.2
		c0,0.8-0.3,1.7-0.4,2c0,0,0,0.1-0.1,0.1c-2.1,1.8-1.9,3-1.8,3.3c0,0.1,0,0.2,0,0.2l-6.9,12.2c-1.8,2.5,1.1,3.1,1.1,3.1l5.2,1.5
		c0.1,0,0.2,0.2,0.2,0.3l-0.4,4.3c0,0.1,0.1,0.3,0.2,0.3l6.7,1C230.7,41.8,230.8,41.8,230.9,41.7z"/>
	<path class="st1" d="M219.9,48.2c-1,1.7-3.2,6-3.4,10.5c0,0.9-0.3,1.7-0.9,2.3c-0.7,0.8-1.8,2.4-2.5,5c-0.1,0.4-0.1,0.7-0.1,1.1
		c0.1,1.7,0.3,7-1.3,10.1c-0.1,0.2-0.3,0.4-0.4,0.6c-0.6,0.7-2,2.6-0.3,3.3c0,0,6.5,0.5,7.9,0.7c0.2,0,0.4,0,0.6,0.1
		c0.9,0,3.4-0.1,2.3-1.7c-0.4-0.6-1-1-1.7-1.2c-0.5-0.2-1.3-0.5-2.1-1.1c-1.2-0.8-1.8-2.3-1.5-3.7c0.4-2.2,1.1-5.9,2.1-9.4
		c0.2-0.6,0.5-1.2,1-1.7c1.6-1.5,5.5-5.8,7.9-13.3c2.5-8.1-4.1-4.2-6.4-2.7C220.6,47.2,220.2,47.7,219.9,48.2z"/>
	<path class="st2" d="M225.2,49.2c0,0,8.6,10.7,11.1,10.6c0,0-3.5,2.7-2.8,8.1c0,0-0.1,5.4-2.2,6.9c0,0-4.3,4,1.1,4.2
		c0,0,2.3-0.1,5.2,2c0.8,0.6,1.9,0.7,2.8,0.1c0.9-0.6,1.4-1.7-1.1-3.6c0,0-4.3-2.6-3-3.9c0,0,1.8-6.2,2.9-6.9c0,0,4.2-6.7,2.9-8.1
		c0,0-2.4-6.2-9.6-13.2s-5,0.4-5.4,0.7S225.2,49.2,225.2,49.2z"/>
	<path class="st1" d="M223.6,40.6c0,0-6.3,4.2-2.1,8.6c0,0,3.7,2.5,6,0.5c0,0,2.8-4.7,6.7-2.7c0,0,0.5-4.5-3.5-5.1
		C226.5,41.2,223.6,40.6,223.6,40.6z"/>
</g>
<g>
	<path class="st1" d="M347.2,42.1c0.2-0.5,0.5-1.8,0.6-2.6c0-0.2,0.2-0.3,0.4-0.2c0.3,0.2,0.7,0.4,0.8,0.5c0,0,0,0,0.1,0
		c0.5,0.1,0.7,0,0.8-0.1c0.1-0.1,0.2-0.1,0.3-0.1c0.9,0.3,0.6-0.2,0.6-0.2c0.7,0,0.5-0.3,0.5-0.3c0.1-0.1-0.4-0.3-0.4-0.3
		s0.2,0,0.2,0s-0.1-0.3-0.1-0.3c-1-0.7-1.4-1.2-1.7-1.4c-0.1-0.1-0.1-0.4,0.1-0.4c0.1,0,0.2-0.1,0.3-0.1c0.3-0.2,0-0.6-0.3-0.5
		c-0.2,0.1-0.5,0.1-0.6,0.1c-0.1,0-0.2-0.1-0.2-0.2c-0.3-1.4,0.4-1.8,0.6-1.9c0,0,0.1,0,0.1,0c0.6,0,7.4-0.3,7.4-0.3
		c0.8,0,1-0.2,0.9-0.3c0-0.1,0-0.3,0.2-0.3c1.3-0.5,0.2-1.1,0.2-1.1c0.3-0.1,0-0.3,0-0.3c0-0.2-1.3-0.3-1.9-0.4
		c-0.2,0-0.3-0.2-0.2-0.3c0.3-0.9-0.3-0.4-0.3-0.4c-0.4,0.4-1.8,1.1-1.8,1.1c-0.6,0.3-3.5,0-4.3,0c-0.1,0-0.2-0.1-0.2-0.3
		c0-0.7,0.1-1.9,0.2-2.3c0-0.1,0-0.1,0.1-0.2c3.3-2.9,1.3-5.3,1.1-5.5c0,0,0,0,0,0c-2.4-1.8-3.4-4.8-3.5-5.1c0,0,0,0,0,0
		c-0.5-3.2,2.6-2.6,2.6-2.6c0.8,0.1,0.8-0.7,0.7-1.2c0-0.2,0.1-0.3,0.3-0.3c0.1,0,0.3-0.1,0.3-0.1c0.2,0,0.2-0.2,0.1-0.4
		c-0.1-0.1,0-0.3,0.1-0.4c0,0,0.1,0,0.1-0.1c0.1-0.1,0.1-0.3,0-0.4c-0.3-0.3,0-0.7,0-0.7c1.2,0.3,0.8-0.5,0.8-0.5
		c-0.2-0.2-0.7-0.9-0.9-1.2c-0.1-0.1-0.1-0.2,0-0.4c0.4-1,0.3-1.9,0.1-2.4c0-0.2,0.1-0.3,0.2-0.3c0.4,0,0.1-0.6,0.1-0.6
		c-2.3-3.9-6.9-3.2-8.1-2.9c-0.1,0-0.3-0.1-0.3-0.2c-0.2-1-0.8-1.2-1.1-1.3c-0.2,0-0.4-0.1-0.5-0.1c-1.9-0.6-3.1,0.8-3.8,2.1
		c-0.5,0.9-0.7,1.9-0.7,2.9l0.1,4.9c0,1.3-0.9,2.2-1.6,2.7c-0.2,0.2-0.1,0.5,0.2,0.5c1.6-0.2,2.2-0.8,2.2-0.8
		c2.2-1.1,2.7-8.2,3.1-8.6c0.4-0.3,0.5,0.2,0.5,0.2c-1.1,1-0.9,3.2-0.9,3.2c-0.1,2,1.9,4,2.4,4.4c0.1,0.1,0.1,0.1,0.1,0.2
		c0,0.8-0.3,1.7-0.4,2c0,0,0,0.1-0.1,0.1c-2.1,1.8-1.9,3-1.8,3.3c0,0.1,0,0.2,0,0.2l-6.9,12.2c-1.8,2.5,1.1,3.1,1.1,3.1l5.2,1.5
		c0.1,0,0.2,0.2,0.2,0.3l-0.4,4.3c0,0.1,0.1,0.3,0.2,0.3l6.7,1C347,42.2,347.1,42.2,347.2,42.1z"/>
	<path class="st1" d="M335.9,47.2l6,1.9c0.9,0.3,1.4,1.2,1.3,2.1c-0.3,2.4-1.3,6.9-3.8,10c0,0-2.5,3.8-7.6,6.1
		c-0.2,0.1-0.3,0.2-0.5,0.3c-1,0.9-5.3,4.9-5.5,7.6c0,0-0.6,0.7-0.6,1.9c0,0.8-0.2,2.8-0.2,4.4c0,1.7-2.2,2.6-3.3,1.3
		c0,0,0-0.1-0.1-0.1c-0.3-0.4-0.4-0.8-0.4-1.3c0-1.3,0-4.1-0.5-5.4c-0.1-0.2-0.2-0.3-0.3-0.4c-1.1-1.2-1.9-2.4,0-3.2
		c0,0,2.9-1.3,3.8-3c0,0,4.9-7.7,8.7-9.1c0.8-0.3,1.3-1,1.3-1.8c-0.1-3.2-0.1-10,2.1-11.2"/>
	<path class="st2" d="M349.7,46.6c0,0,5.6,5.5,5.8,9.9c0,0,2,1.1,1.6,12.7c0,0-0.3,5.7,2.7,6.7c0,0,3.8,0.7,5.5,0.5
		c0.5-0.1,1,0.3,1.2,0.7c0.5,1.3,0.7,3.2-4,2.5c-0.4-0.1-3.2,0.4-3.8,2c0,0-4,3.4-3.7-1.6c0,0,1.1-4.9-0.8-7.5
		c-0.6-0.9-1.2-1.8-1.5-2.7c-1-2.8-2.6-7.7-2-9.3c0,0-8-6.5-8.1-9.8l1.4-3.6L349.7,46.6z"/>
	<path class="st1" d="M340.8,39.6c0,0-7.4,7.5-5.3,9.9c0,0,4.7,3.3,6.1,1.2c0,0,5.3-3.2,9.2-2.8c0,0,3.2,0-3.6-7.1
		S340.8,39.6,340.8,39.6z"/>
</g>
<g>
	<path class="st1" d="M401.1,52.4c0,0-2.5,3.6,0,9.5c0,0-4.6,0-9.6,4.1c0,0-2.9,0.6-5.4,0.3c-0.8-0.1-1.5,0.5-1.5,1.3
		c-0.1,2-0.3,5.5-1.2,7.9c-0.3,0.8-0.1,1.7,0.5,2.3c0.7,0.6,1.8,0.5,3.2-2.7c2.5-5.7,4.9-5.3,4.9-5.3s12.5-1.2,12.9-2.2L401.1,52.4z
		"/>
	<path class="st1" d="M405.4,41.6c0.2-0.5,0.5-1.8,0.6-2.6c0-0.2,0.2-0.3,0.4-0.2c0.3,0.2,0.7,0.4,0.8,0.5c0,0,0,0,0.1,0
		c0.5,0.1,0.7,0,0.8-0.1c0.1-0.1,0.2-0.1,0.3-0.1c0.9,0.3,0.6-0.2,0.6-0.2c0.7,0,0.5-0.3,0.5-0.3c0.1-0.1-0.4-0.3-0.4-0.3
		s0.2,0,0.2,0c0.1,0-0.1-0.3-0.1-0.3c-1-0.7-1.4-1.2-1.7-1.4c-0.1-0.1-0.1-0.4,0.1-0.4c0.1,0,0.2-0.1,0.3-0.1c0.3-0.2,0-0.6-0.3-0.5
		c-0.2,0.1-0.5,0.1-0.6,0.1c-0.1,0-0.2-0.1-0.2-0.2c-0.3-1.4,0.4-1.8,0.6-1.9c0,0,0.1,0,0.1,0c0.6,0,7.4-0.3,7.4-0.3
		c0.8,0,1-0.2,0.9-0.3c0-0.1,0-0.3,0.2-0.3c1.3-0.5,0.2-1.1,0.2-1.1c0.3-0.1,0-0.3,0-0.3c0-0.2-1.3-0.3-1.9-0.4
		c-0.2,0-0.3-0.2-0.2-0.3c0.3-0.9-0.3-0.4-0.3-0.4c-0.4,0.4-1.8,1.1-1.8,1.1c-0.6,0.3-3.5,0-4.3,0c-0.1,0-0.2-0.1-0.2-0.3
		c0-0.7,0.1-1.9,0.2-2.3c0-0.1,0-0.1,0.1-0.2c3.3-2.9,1.3-5.3,1.1-5.5c0,0,0,0,0,0c-2.4-1.8-3.4-4.8-3.5-5.1c0,0,0,0,0,0
		c-0.5-3.2,2.6-2.6,2.6-2.6c0.8,0.1,0.8-0.7,0.7-1.2c0-0.2,0.1-0.3,0.3-0.3c0.1,0,0.3-0.1,0.3-0.1c0.2,0,0.2-0.2,0.1-0.4
		c-0.1-0.1,0-0.3,0.1-0.4c0,0,0.1,0,0.1-0.1c0.1-0.1,0.1-0.3,0-0.4c-0.3-0.3,0-0.7,0-0.7c1.2,0.3,0.8-0.5,0.8-0.5
		c-0.2-0.2-0.7-0.9-0.9-1.2c-0.1-0.1-0.1-0.2,0-0.4c0.4-1,0.3-1.9,0.1-2.4c0-0.2,0.1-0.3,0.2-0.3c0.4,0,0.1-0.6,0.1-0.6
		c-2.3-3.9-6.9-3.2-8.1-2.9c-0.1,0-0.3-0.1-0.3-0.2c-0.2-1-0.8-1.2-1.1-1.3c-0.2,0-0.4-0.1-0.5-0.1c-1.9-0.6-3.1,0.8-3.8,2.1
		c-0.5,0.9-0.7,1.9-0.7,2.9l0.1,4.9c0,1.3-0.9,2.2-1.6,2.7c-0.2,0.2-0.1,0.5,0.2,0.5c1.6-0.2,2.2-0.8,2.2-0.8
		c2.2-1.1,2.7-8.2,3.1-8.6c0.4-0.3,0.5,0.2,0.5,0.2c-1.1,1-0.9,3.2-0.9,3.2c-0.1,2,1.9,4,2.4,4.4c0.1,0.1,0.1,0.1,0.1,0.2
		c0,0.8-0.3,1.7-0.4,2c0,0,0,0.1-0.1,0.1c-2.1,1.8-1.9,3-1.8,3.3c0,0.1,0,0.2,0,0.2l-6.9,12.2c-1.8,2.5,1.1,3.1,1.1,3.1l5.2,1.5
		c0.1,0,0.2,0.2,0.2,0.3l-0.4,4.3c0,0.1,0.1,0.3,0.2,0.3l6.7,1C405.3,41.8,405.4,41.7,405.4,41.6z"/>
	<path class="st2" d="M410.4,74.2c0,0-2.7-11.3-1.9-13.4c0.8-2.1-0.8-14.1-2.2-15.2c-1.4-1.1-8.1,2.3-8.1,2.3l1.2,3.2
		c0,0,0.8,7.1,3.8,11.2c0,0-1.7,5.6,2.3,12.2c0,0,1.2,2.3,0.7,5c-0.3,1.5,1.2,3.3,2.3,3c3.2-0.9,8.3,0.4,10.3-0.3c0,0,3.2-1.8-5.6-3
		c-2.6-0.4-2.8-5-2.8-5.2"/>
	<path class="st1" d="M398.3,40c0,0-4.1,9.2-2.5,10.5c0,0,3.6,1.6,10-4.4c0,0,0.4,4.2,3.1,3.5c0,0-0.5-4.6-3.3-9.3
		S398.3,40,398.3,40z"/>
</g>
<g>
	<path class="st1" d="M453.6,49.4c0.5-1.6,2.3,11.8,9.6,11.7s-4.8-7.4-4.8-7.4V46"/>
	<path class="st1" d="M461.3,52.8c0,0,8.6,7.2,4.6,12c0,0-15.1,5.3-15.2,6.6c0,0-2.2,3.7-2.9,6.1c-0.3,1.1-1.9,1.2-2.3,0.1
		c-0.3-0.8-0.3-2,0.3-4c0,0,0.7-3.2,0.1-4.8c-0.2-0.5,0-1,0.5-1.3c0.9-0.4,2.2-0.8,3.8-0.5c0,0,5.5-5.4,7.9-4.7L461.3,52.8z"/>
	<path class="st2" d="M463.3,46.9c1.2,2.6-1.1,16.8-1.1,16.8c1.3,1.8,0.7,9.1,0.7,9.1c-0.7,3.4,2.4,6,2.4,6c7.6,2.8,3.5,4.2,3.5,4.2
		c-11.9-0.6-9.3-2.8-9.3-2.8c0.7-2-0.7-6.7-0.7-6.7c-1.8-6.1,0-8.7,0-8.7c-2.4-6.5-2.9-17.4-2.9-17.4l5.5-4.2L463.3,46.9z"/>
	<path class="st1" d="M462.7,41.3c0.2-0.5,0.5-1.8,0.6-2.6c0-0.2,0.2-0.3,0.4-0.2c0.3,0.2,0.7,0.4,0.8,0.5c0,0,0,0,0.1,0
		c0.5,0.1,0.7,0,0.8-0.1c0.1-0.1,0.2-0.1,0.3-0.1c0.9,0.3,0.6-0.2,0.6-0.2c0.7,0,0.5-0.3,0.5-0.3c0.1-0.1-0.4-0.3-0.4-0.3
		s0.2,0,0.2,0c0.1,0-0.1-0.3-0.1-0.3c-1-0.7-1.4-1.2-1.7-1.4c-0.1-0.1-0.1-0.4,0.1-0.4c0.1,0,0.2-0.1,0.3-0.1c0.3-0.2,0-0.6-0.3-0.5
		c-0.2,0.1-0.5,0.1-0.6,0.1c-0.1,0-0.2-0.1-0.2-0.2c-0.3-1.4,0.4-1.8,0.6-1.9c0,0,0.1,0,0.1,0c0.6,0,7.4-0.3,7.4-0.3
		c0.8,0,1-0.2,0.9-0.3c0-0.1,0-0.3,0.2-0.3c1.3-0.5,0.2-1.1,0.2-1.1c0.3-0.1,0-0.3,0-0.3c0-0.2-1.3-0.3-1.9-0.4
		c-0.2,0-0.3-0.2-0.2-0.3c0.3-0.9-0.3-0.4-0.3-0.4c-0.4,0.4-1.8,1.1-1.8,1.1c-0.6,0.3-3.5,0-4.3,0c-0.1,0-0.2-0.1-0.2-0.3
		c0-0.7,0.1-1.9,0.2-2.3c0-0.1,0-0.1,0.1-0.2c3.3-2.9,1.3-5.3,1.1-5.5c0,0,0,0,0,0c-2.4-1.8-3.4-4.8-3.5-5.1c0,0,0,0,0,0
		c-0.5-3.2,2.6-2.6,2.6-2.6c0.8,0.1,0.8-0.7,0.7-1.2c0-0.2,0.1-0.3,0.3-0.3c0.1,0,0.3-0.1,0.3-0.1c0.2,0,0.2-0.2,0.1-0.4
		c-0.1-0.1,0-0.3,0.1-0.4c0,0,0.1,0,0.1-0.1c0.1-0.1,0.1-0.3,0-0.4c-0.3-0.3,0-0.7,0-0.7c1.2,0.3,0.8-0.5,0.8-0.5
		c-0.2-0.2-0.7-0.9-0.9-1.2c-0.1-0.1-0.1-0.2,0-0.4c0.4-1,0.3-1.9,0.1-2.4c0-0.2,0.1-0.3,0.2-0.3c0.4,0,0.1-0.6,0.1-0.6
		c-2.3-3.9-6.9-3.2-8.1-2.9c-0.1,0-0.3-0.1-0.3-0.2c-0.2-1-0.8-1.2-1.1-1.3c-0.2,0-0.4-0.1-0.5-0.1c-1.9-0.6-3.1,0.8-3.8,2.1
		c-0.5,0.9-0.7,1.9-0.7,2.9l0.1,4.9c0,1.3-0.9,2.2-1.6,2.7c-0.2,0.2-0.1,0.5,0.2,0.5c1.6-0.2,2.2-0.8,2.2-0.8
		c2.2-1.1,2.7-8.2,3.1-8.6c0.4-0.3,0.5,0.2,0.5,0.2c-1.1,1-0.9,3.2-0.9,3.2c-0.1,2,1.9,4,2.4,4.4c0.1,0.1,0.1,0.1,0.1,0.2
		c0,0.8-0.3,1.7-0.4,2c0,0,0,0.1-0.1,0.1c-2.1,1.8-1.9,3-1.8,3.3c0,0.1,0,0.2,0,0.2L449.3,31c-1.8,2.5,1.1,3.1,1.1,3.1l5.2,1.5
		c0.1,0,0.2,0.2,0.2,0.3l-0.4,4.3c0,0.1,0.1,0.3,0.2,0.3l6.7,1C462.5,41.4,462.6,41.4,462.7,41.3z"/>
	<path class="st1" d="M456.6,39.4c0,0-5.3,4.7-3.2,11.3c0,0,5.8-6.6,10.4-3.4c0,0,2.5-3.6-1.1-7.9C459.1,35.1,456.6,39.4,456.6,39.4
		z"/>
</g>
<g>
	<path class="st1" d="M159.8,47.9c0,0-4.4,12.8-3,17.4c0,0-1.7,5.1-0.7,7.5c0,0,1,3.9,0,5.1c0,0-2.5,3.9-1,3.9s4.4-1.2,7.1,0
		c0,0,5.6,0,1.9-3.2c0,0-2.2,0.2-2.6-1.2c0,0-2.1-2.5-0.5-8.5c0,0,1.3-1.3,1.2-4.1c0,0,3.1-5.1,5.6-14.7S159.8,47.9,159.8,47.9z"/>
	<path class="st1" d="M170,41.7c0.2-0.5,0.5-1.8,0.6-2.6c0-0.2,0.2-0.3,0.4-0.2c0.3,0.2,0.7,0.4,0.8,0.5c0,0,0,0,0.1,0
		c0.5,0.1,0.7,0,0.8-0.1c0.1-0.1,0.2-0.1,0.3-0.1c0.9,0.3,0.6-0.2,0.6-0.2c0.7,0,0.5-0.3,0.5-0.3c0.1-0.1-0.4-0.3-0.4-0.3
		s0.2,0,0.2,0s-0.1-0.3-0.1-0.3c-1-0.7-1.4-1.2-1.7-1.4c-0.1-0.1-0.1-0.4,0.1-0.4c0.1,0,0.2-0.1,0.3-0.1c0.3-0.2,0-0.6-0.3-0.5
		c-0.2,0.1-0.5,0.1-0.6,0.1c-0.1,0-0.2-0.1-0.2-0.2c-0.3-1.4,0.4-1.8,0.6-1.9c0,0,0.1,0,0.1,0c0.6,0,7.4-0.3,7.4-0.3
		c0.8,0,1-0.2,0.9-0.3c0-0.1,0-0.3,0.2-0.3c1.3-0.5,0.2-1.1,0.2-1.1c0.3-0.1,0-0.3,0-0.3c0-0.2-1.3-0.3-1.9-0.4
		c-0.2,0-0.3-0.2-0.2-0.3c0.3-0.9-0.3-0.4-0.3-0.4c-0.4,0.4-1.8,1.1-1.8,1.1c-0.6,0.3-3.5,0-4.3,0c-0.1,0-0.2-0.1-0.2-0.3
		c0-0.7,0.1-1.9,0.2-2.3c0-0.1,0-0.1,0.1-0.2c3.3-2.9,1.3-5.3,1.1-5.5c0,0,0,0,0,0c-2.4-1.8-3.4-4.8-3.5-5.1c0,0,0,0,0,0
		c-0.5-3.2,2.6-2.6,2.6-2.6c0.8,0.1,0.8-0.7,0.7-1.2c0-0.2,0.1-0.3,0.3-0.3c0.1,0,0.3-0.1,0.3-0.1c0.2,0,0.2-0.2,0.1-0.4
		c-0.1-0.1,0-0.3,0.1-0.4c0,0,0.1,0,0.1-0.1c0.1-0.1,0.1-0.3,0-0.4c-0.3-0.3,0-0.7,0-0.7c1.2,0.3,0.8-0.5,0.8-0.5
		c-0.2-0.2-0.7-0.9-0.9-1.2c-0.1-0.1-0.1-0.2,0-0.4c0.4-1,0.3-1.9,0.1-2.4c0-0.2,0.1-0.3,0.2-0.3c0.4,0,0.1-0.6,0.1-0.6
		c-2.3-3.9-6.9-3.2-8.1-2.9c-0.1,0-0.3-0.1-0.3-0.2c-0.2-1-0.8-1.2-1.1-1.3c-0.2,0-0.4-0.1-0.5-0.1c-1.9-0.6-3.1,0.8-3.8,2.1
		c-0.5,0.9-0.7,1.9-0.7,2.9l0.1,4.9c0,1.3-0.9,2.2-1.6,2.7c-0.2,0.2-0.1,0.5,0.2,0.5c1.6-0.2,2.2-0.8,2.2-0.8
		c2.2-1.1,2.7-8.2,3.1-8.6s0.5,0.2,0.5,0.2c-1.1,1-0.9,3.2-0.9,3.2c-0.1,2,1.9,4,2.4,4.4c0.1,0.1,0.1,0.1,0.1,0.2
		c0,0.8-0.3,1.7-0.4,2c0,0,0,0.1-0.1,0.1c-2.1,1.8-1.9,3-1.8,3.3c0,0.1,0,0.2,0,0.2l-6.9,12.2c-1.8,2.5,1.1,3.1,1.1,3.1L163,36
		c0.1,0,0.2,0.2,0.2,0.3l-0.4,4.3c0,0.1,0.1,0.3,0.2,0.3l6.7,1C169.9,41.8,170,41.8,170,41.7z"/>
	<path class="st2" d="M169.3,46.9c0,0,8.4,7,9.1,12.1c0,0,3.3,4.4-2.7,6.2c0,0-6.1,2.9-7.7,5.3c0,0-0.8,4.6,0,5.5c0,0,0,2.7-2.7,0.6
		c-0.4-0.3-0.7-0.8-0.6-1.4c0-1.3-0.1-4-1.2-4.9c0,0-2.7-3.6,2.5-3c0,0,2.1-1.2,2.7-2c0,0,2.5-4.4,4.7-4.4c0,0-9.5-7.4-9.3-11.1"/>
	<path class="st1" d="M163,40.8c0,0-3.7,3.3-3.2,7.1c0,0,2.3,3.1,4.4,3.3c0.2,0,0.4,0,0.5,0c2.2-0.4,5.5-1.9,5.9-3.1
		s1.2-5.5-0.6-6.5"/>
</g>
<g>
	<g>
		<line class="st3" x1="0" y1="84.2" x2="6" y2="84.2"/>
		<line class="st4" x1="17.9" y1="84.2" x2="487.1" y2="84.2"/>
		<line class="st3" x1="493.1" y1="84.2" x2="499.1" y2="84.2"/>
	</g>
</g>
</svg>
