<?xml version="1.0" encoding="utf-8"?>
<!-- Generator: Adobe Illustrator 19.1.0, SVG Export Plug-In . SVG Version: 6.00 Build 0)  -->
<svg version="1.1" id="Camada_1" xmlns="http://www.w3.org/2000/svg" xmlns:xlink="http://www.w3.org/1999/xlink" x="0px" y="0px"
	 viewBox="0 0 500 108" style="enable-background:new 0 0 500 108;" xml:space="preserve">
<style type="text/css">
	.st0{fill:#C9C3C4;}
	.st1{fill:#AA9C9B;}
	.st2{fill:#CB4833;}
	.st3{fill:none;stroke:#FFFFFF;stroke-miterlimit:10;}
	.st4{fill:none;stroke:#FFFFFF;stroke-miterlimit:10;stroke-dasharray:11.9024,11.9024;}
</style>
<rect y="50.2" class="st0" width="500" height="58"/>
<g>
	<path class="st1" d="M121.5,47.1c0.2-0.3,0.3-1.2,0.4-1.7c0-0.1,0.2-0.2,0.3-0.1c0.2,0.1,0.5,0.3,0.5,0.3c0,0,0,0,0,0
		c0.3,0.1,0.5,0,0.5,0c0-0.1,0.1-0.1,0.2-0.1c0.6,0.2,0.4-0.2,0.4-0.2c0.5,0,0.4-0.2,0.4-0.2c0.1,0-0.3-0.2-0.3-0.2s0.1,0,0.2,0
		c0.1,0,0-0.2,0-0.2c-0.6-0.5-0.9-0.8-1.1-0.9c-0.1-0.1,0-0.2,0.1-0.3c0.1,0,0.1-0.1,0.2-0.1c0.2-0.1,0-0.4-0.2-0.3
		c-0.1,0.1-0.3,0.1-0.4,0.1c-0.1,0-0.1-0.1-0.2-0.1c-0.2-0.9,0.3-1.2,0.4-1.2c0,0,0,0,0.1,0c0.4,0,4.9-0.2,4.9-0.2
		c0.5,0,0.6-0.1,0.6-0.2c0-0.1,0-0.2,0.1-0.2c0.8-0.3,0.1-0.7,0.1-0.7c0.2-0.1,0-0.2,0-0.2c0-0.1-0.8-0.2-1.3-0.3
		c-0.1,0-0.2-0.1-0.1-0.2c0.2-0.6-0.2-0.2-0.2-0.2c-0.2,0.3-1.2,0.8-1.2,0.8c-0.4,0.2-2.3,0-2.8,0c-0.1,0-0.2-0.1-0.2-0.2
		c0-0.4,0.1-1.3,0.1-1.5c0,0,0-0.1,0.1-0.1c2.2-1.9,0.9-3.5,0.7-3.6c0,0,0,0,0,0c-1.6-1.2-2.2-3.2-2.3-3.4c0,0,0,0,0,0
		c-0.3-2.1,1.7-1.7,1.7-1.7c0.5,0.1,0.5-0.5,0.5-0.8c0-0.1,0.1-0.2,0.2-0.2c0.1,0,0.2,0,0.2,0c0.2,0,0.1-0.1,0-0.2
		c-0.1-0.1,0-0.2,0.1-0.2c0,0,0,0,0.1-0.1c0.1-0.1,0-0.2,0-0.2c-0.2-0.2,0-0.4,0-0.4c0.8,0.2,0.5-0.3,0.5-0.3
		c-0.2-0.1-0.4-0.6-0.6-0.8c0-0.1,0-0.2,0-0.2c0.3-0.7,0.2-1.3,0.1-1.6c0-0.1,0-0.2,0.1-0.2c0.3,0,0.1-0.4,0.1-0.4
		c-1.5-2.6-4.5-2.1-5.3-1.9c-0.1,0-0.2,0-0.2-0.1c-0.1-0.6-0.5-0.8-0.7-0.8c-0.1,0-0.2-0.1-0.4-0.1c-1.2-0.4-2,0.5-2.5,1.4
		c-0.3,0.6-0.5,1.2-0.5,1.9l0,3.2c0,0.8-0.6,1.4-1.1,1.8c-0.1,0.1-0.1,0.3,0.1,0.3c1-0.1,1.5-0.5,1.5-0.5c1.5-0.7,1.8-5.4,2.1-5.6
		c0.2-0.2,0.3,0.2,0.3,0.2c-0.7,0.7-0.6,2.1-0.6,2.1c-0.1,1.3,1.3,2.6,1.6,2.9c0,0,0.1,0.1,0.1,0.1c0,0.5-0.2,1.1-0.3,1.3
		c0,0,0,0.1,0,0.1c-1.4,1.2-1.2,1.9-1.2,2.2c0,0,0,0.1,0,0.1l-4.5,8c-1.2,1.6,0.7,2.1,0.7,2.1l3.4,1c0.1,0,0.1,0.1,0.1,0.2l-0.2,2.8
		c0,0.1,0.1,0.2,0.1,0.2l4.4,0.6C121.4,47.2,121.4,47.1,121.5,47.1z"/>
	<path class="st1" d="M116.7,46.3c0,0-2.7,3.3-2.2,5.2c0,0,3.2,2.1,6.9,0c0,0,1.7,0,1.7-1.2c-0.1-1.2-1.6-3.3-1.6-3.3"/>
	<path class="st1" d="M121.3,49.1c0,0,5.4,6.1,5.7,8.5c0,0,0.5,4.7,0,5.3c0,0,1.3,5.9,3.9,6.3c0,0,3.6,0.3,4.2,0c0,0,1.6,0.8-1.1,2
		c0,0-3.9,0.3-4.3,1.2c0,0-2.3,2.1-2.4-0.4c0,0,0.2-2.4-1.3-4.8c0,0-2.9-3.1-2.4-7.5c0,0-4.1-2.3-4.1-4.8l1.1-4.4L121.3,49.1z"/>
	<path class="st2" d="M115,51.2c0,0-1.2,4.1-0.8,6.2c0,0-2.8,0.1-5.9,5.4c0,0-2.1,4-3.9,4.8c0,0-2.5,1-1.9,1.8c0,0,2.2,0.6,2.6,1.8
		c0,0,3.7,5.2,3.6,2.2s-1.2-2.2-0.4-4.3c0,0,3-7.1,8-9.2c0,0,4.2-3.9,4.3-8.1L115,51.2z"/>
</g>
<g>
	<path class="st1" d="M158.8,47.1c0.2-0.3,0.3-1.2,0.4-1.7c0-0.1,0.2-0.2,0.3-0.1c0.2,0.1,0.5,0.3,0.5,0.3c0,0,0,0,0,0
		c0.3,0.1,0.5,0,0.5,0c0-0.1,0.1-0.1,0.2-0.1c0.6,0.2,0.4-0.2,0.4-0.2c0.5,0,0.4-0.2,0.4-0.2c0.1,0-0.3-0.2-0.3-0.2s0.1,0,0.2,0
		s0-0.2,0-0.2c-0.6-0.5-0.9-0.8-1.1-0.9c-0.1-0.1,0-0.2,0.1-0.3c0.1,0,0.1-0.1,0.2-0.1c0.2-0.1,0-0.4-0.2-0.3
		c-0.1,0.1-0.3,0.1-0.4,0.1c-0.1,0-0.1-0.1-0.2-0.1c-0.2-0.9,0.3-1.2,0.4-1.2c0,0,0,0,0.1,0c0.4,0,4.9-0.2,4.9-0.2
		c0.5,0,0.6-0.1,0.6-0.2c0-0.1,0-0.2,0.1-0.2c0.8-0.3,0.1-0.7,0.1-0.7c0.2-0.1,0-0.2,0-0.2c0-0.1-0.8-0.2-1.3-0.3
		c-0.1,0-0.2-0.1-0.1-0.2c0.2-0.6-0.2-0.2-0.2-0.2c-0.2,0.3-1.2,0.8-1.2,0.8c-0.4,0.2-2.3,0-2.8,0c-0.1,0-0.2-0.1-0.2-0.2
		c0-0.4,0.1-1.3,0.1-1.5c0,0,0-0.1,0.1-0.1c2.2-1.9,0.9-3.5,0.7-3.6c0,0,0,0,0,0c-1.6-1.2-2.2-3.2-2.3-3.4c0,0,0,0,0,0
		c-0.3-2.1,1.7-1.7,1.7-1.7c0.5,0.1,0.5-0.5,0.5-0.8c0-0.1,0.1-0.2,0.2-0.2c0.1,0,0.2,0,0.2,0c0.2,0,0.1-0.1,0-0.2
		c-0.1-0.1,0-0.2,0.1-0.2c0,0,0,0,0.1-0.1c0.1-0.1,0-0.2,0-0.2c-0.2-0.2,0-0.4,0-0.4c0.8,0.2,0.5-0.3,0.5-0.3
		c-0.2-0.1-0.4-0.6-0.6-0.8c0-0.1,0-0.2,0-0.2c0.3-0.7,0.2-1.3,0.1-1.6c0-0.1,0-0.2,0.1-0.2c0.3,0,0.1-0.4,0.1-0.4
		c-1.5-2.6-4.5-2.1-5.3-1.9c-0.1,0-0.2,0-0.2-0.1c-0.1-0.6-0.5-0.8-0.7-0.8c-0.1,0-0.2-0.1-0.4-0.1c-1.2-0.4-2,0.5-2.5,1.4
		c-0.3,0.6-0.5,1.2-0.5,1.9l0,3.2c0,0.8-0.6,1.4-1.1,1.8c-0.1,0.1-0.1,0.3,0.1,0.3c1-0.1,1.5-0.5,1.5-0.5c1.5-0.7,1.8-5.4,2.1-5.6
		s0.3,0.2,0.3,0.2c-0.7,0.7-0.6,2.1-0.6,2.1c-0.1,1.3,1.3,2.6,1.6,2.9c0,0,0.1,0.1,0.1,0.1c0,0.5-0.2,1.1-0.3,1.3c0,0,0,0.1,0,0.1
		c-1.4,1.2-1.2,1.9-1.2,2.2c0,0,0,0.1,0,0.1l-4.5,8c-1.2,1.6,0.7,2.1,0.7,2.1l3.4,1c0.1,0,0.1,0.1,0.1,0.2l-0.2,2.8
		c0,0.1,0.1,0.2,0.1,0.2l4.4,0.6C158.7,47.2,158.7,47.1,158.8,47.1z"/>
	<path class="st1" d="M154.2,46.5c0,0-2.4,2.2-2.1,4.7c0,0,1.5,2,2.9,2.1c0.1,0,0.2,0,0.3,0c1.4-0.2,3.6-1.3,3.9-2
		c0.2-0.7,0.8-3.6-0.4-4.3"/>
	<path class="st1" d="M153.7,52.3c0,0,0,7.7,0.3,10.5c0,0,0.7,6.4,0.5,7.9c0,0.2-0.1,0.4-0.1,0.4c-0.5,0-0.3,2-0.3,2
		s3.3,0.1,5.3,0.3c2,0.3,2.4-1.5-0.5-2c0,0-1.8-0.6-2.2-1.9c0,0-0.3-0.7,0.7-5.2c0,0,1.4-13.1,0.9-13.4"/>
	<path class="st2" d="M158.5,51.6c1,0.9,5.2,5,5.7,7.7c0,0.2,0,0.4,0,0.6c-0.2,0.8-1.1,2.6-4.7,3.6c0,0-0.1,0-0.1,0
		c-0.6,0.2-6.9,2.5-7.4,3.4c0,0-1.1,1.2,0.6,3.1c0,0,0.9,2-1.4,1c-0.5-0.2-0.8-0.6-0.9-1.1c-0.1-0.6-0.3-1.3-0.5-1.9
		c-0.1-0.3-0.3-0.5-0.5-0.7c-0.6-0.4-1.5-1.5,0.3-2.2c0,0,5.2-1.7,5.3-2.5c0,0,1.3-1.4,3-2.4c0.9-0.5,1.1-1.7,0.3-2.4
		c-1.9-1.8-4.7-4.6-5.7-6.5c-1.4-2.6,4.2-0.6,5.5-0.1C158.2,51.3,158.3,51.5,158.5,51.6z"/>
</g>
<g>
	<path class="st2" d="M276.7,48.7c0,0,2.3,2.7,4.4,7.4c0,0,0.8,0.9,0.4,2.5c0,0-0.5,6.7-0.1,7.6c0,0,1.4,2.7,2,2.9
		c0.6,0.2,2.3,1.1,3.2,0.9c0,0,1.9,1.5-1.3,2.1c0,0-2.4-0.3-4.7,0c0,0-2.2,0.2-1.2-2c0,0,0.9-3.5-0.5-4.9c0,0-1.3-5.4-0.8-6.6
		c0,0-6.8-6-6.2-7.5"/>
	<path class="st1" d="M275.2,46.9c0.2-0.3,0.3-1.2,0.4-1.7c0-0.1,0.2-0.2,0.3-0.1c0.2,0.1,0.5,0.3,0.5,0.3c0,0,0,0,0,0
		c0.3,0.1,0.5,0,0.5,0c0-0.1,0.1-0.1,0.2-0.1c0.6,0.2,0.4-0.2,0.4-0.2c0.5,0,0.4-0.2,0.4-0.2c0.1,0-0.3-0.2-0.3-0.2s0.1,0,0.2,0
		s0-0.2,0-0.2c-0.6-0.5-0.9-0.8-1.1-0.9c-0.1-0.1,0-0.2,0.1-0.3c0.1,0,0.1-0.1,0.2-0.1c0.2-0.1,0-0.4-0.2-0.3
		c-0.1,0.1-0.3,0.1-0.4,0.1c-0.1,0-0.1-0.1-0.2-0.1c-0.2-0.9,0.3-1.2,0.4-1.2c0,0,0,0,0.1,0c0.4,0,4.9-0.2,4.9-0.2
		c0.5,0,0.6-0.1,0.6-0.2c0-0.1,0-0.2,0.1-0.2c0.8-0.3,0.1-0.7,0.1-0.7c0.2-0.1,0-0.2,0-0.2c0-0.1-0.8-0.2-1.3-0.3
		c-0.1,0-0.2-0.1-0.1-0.2c0.2-0.6-0.2-0.2-0.2-0.2c-0.2,0.3-1.2,0.8-1.2,0.8c-0.4,0.2-2.3,0-2.8,0c-0.1,0-0.2-0.1-0.2-0.2
		c0-0.4,0.1-1.3,0.1-1.5c0,0,0-0.1,0.1-0.1c2.2-1.9,0.9-3.5,0.7-3.6c0,0,0,0,0,0c-1.6-1.2-2.2-3.2-2.3-3.4c0,0,0,0,0,0
		c-0.3-2.1,1.7-1.7,1.7-1.7c0.5,0.1,0.5-0.5,0.5-0.8c0-0.1,0.1-0.2,0.2-0.2c0.1,0,0.2,0,0.2,0c0.2,0,0.1-0.1,0-0.2
		c-0.1-0.1,0-0.2,0.1-0.2c0,0,0,0,0.1-0.1c0.1-0.1,0-0.2,0-0.2c-0.2-0.2,0-0.4,0-0.4c0.8,0.2,0.5-0.3,0.5-0.3
		c-0.2-0.1-0.4-0.6-0.6-0.8c0-0.1,0-0.2,0-0.2c0.3-0.7,0.2-1.3,0.1-1.6c0-0.1,0-0.2,0.1-0.2c0.3,0,0.1-0.4,0.1-0.4
		c-1.5-2.6-4.5-2.1-5.3-1.9c-0.1,0-0.2,0-0.2-0.1c-0.1-0.6-0.5-0.8-0.7-0.8c-0.1,0-0.2-0.1-0.4-0.1c-1.2-0.4-2,0.5-2.5,1.4
		c-0.3,0.6-0.5,1.2-0.5,1.9l0,3.2c0,0.8-0.6,1.4-1.1,1.8c-0.1,0.1-0.1,0.3,0.1,0.3c1-0.1,1.5-0.5,1.5-0.5c1.5-0.7,1.8-5.4,2.1-5.6
		c0.2-0.2,0.3,0.2,0.3,0.2c-0.7,0.7-0.6,2.1-0.6,2.1c-0.1,1.3,1.3,2.6,1.6,2.9c0,0,0.1,0.1,0.1,0.1c0,0.5-0.2,1.1-0.3,1.3
		c0,0,0,0.1,0,0.1c-1.4,1.2-1.2,1.9-1.2,2.2c0,0,0,0.1,0,0.1l-4.5,8c-1.2,1.6,0.7,2.1,0.7,2.1l3.4,1c0.1,0,0.1,0.1,0.1,0.2l-0.2,2.8
		c0,0.1,0.1,0.2,0.1,0.2L275,47C275.1,47,275.2,47,275.2,46.9z"/>
	<path class="st1" d="M270.6,46.3c0,0-3,1.8-2.8,5.5c0,0,3,1.5,4.7,0.3c0,0,2.5-3.4,4.5-3.2c0,0,1-0.7-1.8-2.1"/>
	<path class="st1" d="M268.5,51.1c0,0-1.5,2.6-2.1,6.4c0,0-2.4,0.4-4.1,5.5c0,0-1.8,5-2.9,5.2c0,0-2.4,0.4-0.9,1.8
		c0,0,3.1,2.8,3,3.2c-0.1,0.4,2.7,0.5,2.8,0.2c0,0,1.1-0.8-0.6-1.7c0,0-1.8-1.9-1.2-3.3c0-0.1,0.1-0.1,0.1-0.2
		c0.8-1.5,0.5-2.1,4.2-6.2c0,0,3.1-2,3.2-3.7c0,0,2.9-4.8,2.7-6.8L268.5,51.1z"/>
</g>
<g>
	<path class="st1" d="M237.2,47.1c0.2-0.3,0.3-1.2,0.4-1.7c0-0.1,0.2-0.2,0.3-0.1c0.2,0.1,0.5,0.3,0.5,0.3c0,0,0,0,0,0
		c0.3,0.1,0.5,0,0.5,0c0-0.1,0.1-0.1,0.2-0.1c0.6,0.2,0.4-0.2,0.4-0.2c0.5,0,0.4-0.2,0.4-0.2c0.1,0-0.3-0.2-0.3-0.2s0.1,0,0.2,0
		s0-0.2,0-0.2c-0.6-0.5-0.9-0.8-1.1-0.9c-0.1-0.1,0-0.2,0.1-0.3c0.1,0,0.1-0.1,0.2-0.1c0.2-0.1,0-0.4-0.2-0.3
		c-0.1,0.1-0.3,0.1-0.4,0.1c-0.1,0-0.1-0.1-0.2-0.1c-0.2-0.9,0.3-1.2,0.4-1.2c0,0,0,0,0.1,0c0.4,0,4.9-0.2,4.9-0.2
		c0.5,0,0.6-0.1,0.6-0.2c0-0.1,0-0.2,0.1-0.2c0.8-0.3,0.1-0.7,0.1-0.7c0.2-0.1,0-0.2,0-0.2c0-0.1-0.8-0.2-1.3-0.3
		c-0.1,0-0.2-0.1-0.1-0.2c0.2-0.6-0.2-0.2-0.2-0.2c-0.2,0.3-1.2,0.8-1.2,0.8c-0.4,0.2-2.3,0-2.8,0c-0.1,0-0.2-0.1-0.2-0.2
		c0-0.4,0.1-1.3,0.1-1.5c0,0,0-0.1,0.1-0.1c2.2-1.9,0.9-3.5,0.7-3.6c0,0,0,0,0,0c-1.6-1.2-2.2-3.2-2.3-3.4c0,0,0,0,0,0
		c-0.3-2.1,1.7-1.7,1.7-1.7c0.5,0.1,0.5-0.5,0.5-0.8c0-0.1,0.1-0.2,0.2-0.2c0.1,0,0.2,0,0.2,0c0.2,0,0.1-0.1,0-0.2
		c-0.1-0.1,0-0.2,0.1-0.2c0,0,0,0,0.1-0.1c0.1-0.1,0-0.2,0-0.2c-0.2-0.2,0-0.4,0-0.4c0.8,0.2,0.5-0.3,0.5-0.3
		c-0.2-0.1-0.4-0.6-0.6-0.8c0-0.1,0-0.2,0-0.2c0.3-0.7,0.2-1.3,0.1-1.6c0-0.1,0-0.2,0.1-0.2c0.3,0,0.1-0.4,0.1-0.4
		c-1.5-2.6-4.5-2.1-5.3-1.9c-0.1,0-0.2,0-0.2-0.1c-0.1-0.6-0.5-0.8-0.7-0.8c-0.1,0-0.2-0.1-0.4-0.1c-1.2-0.4-2,0.5-2.5,1.4
		c-0.3,0.6-0.5,1.2-0.5,1.9l0,3.2c0,0.8-0.6,1.4-1.1,1.8c-0.1,0.1-0.1,0.3,0.1,0.3c1-0.1,1.5-0.5,1.5-0.5c1.5-0.7,1.8-5.4,2.1-5.6
		c0.2-0.2,0.3,0.2,0.3,0.2c-0.7,0.7-0.6,2.1-0.6,2.1c-0.1,1.3,1.3,2.6,1.6,2.9c0,0,0.1,0.1,0.1,0.1c0,0.5-0.2,1.1-0.3,1.3
		c0,0,0,0.1,0,0.1c-1.4,1.2-1.2,1.9-1.2,2.2c0,0,0,0.1,0,0.1l-4.5,8c-1.2,1.6,0.7,2.1,0.7,2.1l3.4,1c0.1,0,0.1,0.1,0.1,0.2l-0.2,2.8
		c0,0.1,0.1,0.2,0.1,0.2l4.4,0.6C237.1,47.2,237.1,47.1,237.2,47.1z"/>
	<path class="st1" d="M230,51.3c-0.6,1.1-2.1,4-2.2,6.9c0,0.6-0.2,1.1-0.6,1.5c-0.5,0.5-1.2,1.6-1.6,3.3c-0.1,0.2-0.1,0.5-0.1,0.7
		c0.1,1.1,0.2,4.6-0.9,6.7c-0.1,0.1-0.2,0.3-0.3,0.4c-0.4,0.5-1.3,1.7-0.2,2.2c0,0,4.3,0.3,5.2,0.4c0.1,0,0.2,0,0.4,0
		c0.6,0,2.2-0.1,1.5-1.1c-0.3-0.4-0.7-0.6-1.1-0.8c-0.3-0.1-0.8-0.3-1.4-0.7c-0.8-0.5-1.2-1.5-1-2.4c0.3-1.4,0.8-3.9,1.4-6.2
		c0.1-0.4,0.3-0.8,0.7-1.1c1.1-1,3.7-3.8,5.2-8.8c1.6-5.3-2.7-2.8-4.2-1.8C230.4,50.7,230.2,51,230,51.3z"/>
	<path class="st2" d="M233.4,52c0,0,5.7,7,7.3,7c0,0-2.3,1.8-1.8,5.4c0,0-0.1,3.6-1.4,4.6c0,0-2.8,2.7,0.7,2.8c0,0,1.5,0,3.4,1.3
		c0.5,0.4,1.3,0.5,1.8,0.1c0.6-0.4,0.9-1.1-0.7-2.4c0,0-2.8-1.7-2-2.6c0,0,1.2-4.1,1.9-4.6c0,0,2.7-4.4,1.9-5.3c0,0-1.6-4.1-6.3-8.7
		c-4.7-4.6-3.3,0.3-3.6,0.4C234.4,50.2,233.4,52,233.4,52z"/>
	<path class="st1" d="M232.4,46.3c0,0-4.2,2.8-1.4,5.6c0,0,2.4,1.6,3.9,0.3c0,0,1.8-3.1,4.4-1.8c0,0,0.3-3-2.3-3.4
		C234.3,46.8,232.4,46.3,232.4,46.3z"/>
</g>
<g>
	<path class="st1" d="M313.7,47.3c0.2-0.3,0.3-1.2,0.4-1.7c0-0.1,0.2-0.2,0.3-0.1c0.2,0.1,0.5,0.3,0.5,0.3c0,0,0,0,0,0
		c0.3,0.1,0.5,0,0.5,0c0-0.1,0.1-0.1,0.2-0.1c0.6,0.2,0.4-0.2,0.4-0.2c0.5,0,0.4-0.2,0.4-0.2c0.1,0-0.3-0.2-0.3-0.2s0.1,0,0.2,0
		s0-0.2,0-0.2c-0.6-0.5-0.9-0.8-1.1-0.9c-0.1-0.1,0-0.2,0.1-0.3c0.1,0,0.1-0.1,0.2-0.1c0.2-0.1,0-0.4-0.2-0.3
		c-0.1,0.1-0.3,0.1-0.4,0.1c-0.1,0-0.1-0.1-0.2-0.1c-0.2-0.9,0.3-1.2,0.4-1.2c0,0,0,0,0.1,0c0.4,0,4.9-0.2,4.9-0.2
		c0.5,0,0.6-0.1,0.6-0.2c0-0.1,0-0.2,0.1-0.2c0.8-0.3,0.1-0.7,0.1-0.7c0.2-0.1,0-0.2,0-0.2c0-0.1-0.8-0.2-1.3-0.3
		c-0.1,0-0.2-0.1-0.1-0.2c0.2-0.6-0.2-0.2-0.2-0.2c-0.2,0.3-1.2,0.8-1.2,0.8c-0.4,0.2-2.3,0-2.8,0c-0.1,0-0.2-0.1-0.2-0.2
		c0-0.4,0.1-1.3,0.1-1.5c0,0,0-0.1,0.1-0.1c2.2-1.9,0.9-3.5,0.7-3.6c0,0,0,0,0,0c-1.6-1.2-2.2-3.2-2.3-3.4c0,0,0,0,0,0
		c-0.3-2.1,1.7-1.7,1.7-1.7c0.5,0.1,0.5-0.5,0.5-0.8c0-0.1,0.1-0.2,0.2-0.2c0.1,0,0.2,0,0.2,0c0.2,0,0.1-0.1,0-0.2
		c-0.1-0.1,0-0.2,0.1-0.2c0,0,0,0,0.1-0.1c0.1-0.1,0-0.2,0-0.2c-0.2-0.2,0-0.4,0-0.4c0.8,0.2,0.5-0.3,0.5-0.3
		c-0.2-0.1-0.4-0.6-0.6-0.8c0-0.1,0-0.2,0-0.2c0.3-0.7,0.2-1.3,0.1-1.6c0-0.1,0-0.2,0.1-0.2c0.3,0,0.1-0.4,0.1-0.4
		c-1.5-2.6-4.5-2.1-5.3-1.9c-0.1,0-0.2,0-0.2-0.1c-0.1-0.6-0.5-0.8-0.7-0.8c-0.1,0-0.2-0.1-0.4-0.1c-1.2-0.4-2,0.5-2.5,1.4
		c-0.3,0.6-0.5,1.2-0.5,1.9l0,3.2c0,0.8-0.6,1.4-1.1,1.8c-0.1,0.1-0.1,0.3,0.1,0.3c1-0.1,1.5-0.5,1.5-0.5c1.5-0.7,1.8-5.4,2.1-5.6
		s0.3,0.2,0.3,0.2c-0.7,0.7-0.6,2.1-0.6,2.1c-0.1,1.3,1.3,2.6,1.6,2.9c0,0,0.1,0.1,0.1,0.1c0,0.5-0.2,1.1-0.3,1.3c0,0,0,0.1,0,0.1
		c-1.4,1.2-1.2,1.9-1.2,2.2c0,0,0,0.1,0,0.1l-4.5,8c-1.2,1.6,0.7,2.1,0.7,2.1l3.4,1c0.1,0,0.1,0.1,0.1,0.2l-0.2,2.8
		c0,0.1,0.1,0.2,0.1,0.2l4.4,0.6C313.6,47.4,313.7,47.4,313.7,47.3z"/>
	<path class="st1" d="M306.3,50.7l3.9,1.2c0.6,0.2,1,0.8,0.9,1.4c-0.2,1.6-0.8,4.5-2.5,6.6c0,0-1.6,2.5-5,4
		c-0.1,0.1-0.2,0.1-0.3,0.2c-0.7,0.6-3.5,3.2-3.6,5c0,0-0.4,0.5-0.4,1.3c0,0.5-0.2,1.9-0.2,2.9c0,1.1-1.4,1.7-2.2,0.9c0,0,0,0,0-0.1
		c-0.2-0.2-0.3-0.5-0.3-0.8c0-0.8,0-2.7-0.3-3.5c0-0.1-0.1-0.2-0.2-0.3c-0.7-0.8-1.3-1.6,0-2.1c0,0,1.9-0.8,2.5-2c0,0,3.3-5,5.8-6
		c0.5-0.2,0.9-0.7,0.8-1.2c-0.1-2.1-0.1-6.6,1.4-7.4"/>
	<path class="st2" d="M315.4,50.3c0,0,3.7,3.6,3.8,6.5c0,0,1.3,0.7,1,8.4c0,0-0.2,3.7,1.8,4.4c0,0,2.5,0.5,3.6,0.3
		c0.3,0,0.7,0.2,0.8,0.5c0.3,0.8,0.4,2.1-2.7,1.7c-0.3,0-2.1,0.2-2.5,1.3c0,0-2.6,2.2-2.4-1.1c0,0,0.7-3.2-0.5-4.9
		c-0.4-0.6-0.8-1.2-1-1.8c-0.7-1.8-1.7-5.1-1.3-6.1c0,0-5.3-4.3-5.3-6.4l0.9-2.4L315.4,50.3z"/>
	<path class="st1" d="M309.5,45.7c0,0-4.8,4.9-3.5,6.5c0,0,3.1,2.2,4,0.8c0,0,3.5-2.1,6-1.8c0,0,2.1,0-2.4-4.7
		C309.3,41.8,309.5,45.7,309.5,45.7z"/>
</g>
<g>
	<path class="st1" d="M349.2,54.1c0,0-1.6,2.4,0,6.2c0,0-3,0-6.3,2.7c0,0-1.9,0.4-3.5,0.2c-0.5-0.1-1,0.3-1,0.8
		c0,1.3-0.2,3.6-0.8,5.2c-0.2,0.5-0.1,1.1,0.3,1.5c0.5,0.4,1.2,0.3,2.1-1.7c1.6-3.8,3.3-3.5,3.3-3.5s8.2-0.8,8.5-1.4L349.2,54.1z"/>
	<path class="st1" d="M352.1,47c0.2-0.3,0.3-1.2,0.4-1.7c0-0.1,0.2-0.2,0.3-0.1c0.2,0.1,0.5,0.3,0.5,0.3c0,0,0,0,0,0
		c0.3,0.1,0.5,0,0.5,0c0-0.1,0.1-0.1,0.2-0.1c0.6,0.2,0.4-0.2,0.4-0.2c0.5,0,0.4-0.2,0.4-0.2c0.1,0-0.3-0.2-0.3-0.2s0.1,0,0.2,0
		c0.1,0,0-0.2,0-0.2c-0.6-0.5-0.9-0.8-1.1-0.9c-0.1-0.1,0-0.2,0.1-0.3c0.1,0,0.1-0.1,0.2-0.1c0.2-0.1,0-0.4-0.2-0.3
		c-0.1,0.1-0.3,0.1-0.4,0.1c-0.1,0-0.1-0.1-0.2-0.1c-0.2-0.9,0.3-1.2,0.4-1.2c0,0,0,0,0.1,0c0.4,0,4.9-0.2,4.9-0.2
		c0.5,0,0.6-0.1,0.6-0.2c0-0.1,0-0.2,0.1-0.2c0.8-0.3,0.1-0.7,0.1-0.7c0.2-0.1,0-0.2,0-0.2c0-0.1-0.8-0.2-1.3-0.3
		c-0.1,0-0.2-0.1-0.1-0.2c0.2-0.6-0.2-0.2-0.2-0.2c-0.2,0.3-1.2,0.8-1.2,0.8c-0.4,0.2-2.3,0-2.8,0c-0.1,0-0.2-0.1-0.2-0.2
		c0-0.4,0.1-1.3,0.1-1.5c0,0,0-0.1,0.1-0.1c2.2-1.9,0.9-3.5,0.7-3.6c0,0,0,0,0,0c-1.6-1.2-2.2-3.2-2.3-3.4c0,0,0,0,0,0
		c-0.3-2.1,1.7-1.7,1.7-1.7c0.5,0.1,0.5-0.5,0.5-0.8c0-0.1,0.1-0.2,0.2-0.2c0.1,0,0.2,0,0.2,0c0.2,0,0.1-0.1,0-0.2
		c-0.1-0.1,0-0.2,0.1-0.2c0,0,0,0,0.1-0.1c0.1-0.1,0-0.2,0-0.2c-0.2-0.2,0-0.4,0-0.4c0.8,0.2,0.5-0.3,0.5-0.3
		c-0.2-0.1-0.4-0.6-0.6-0.8c0-0.1,0-0.2,0-0.2c0.3-0.7,0.2-1.3,0.1-1.6c0-0.1,0-0.2,0.1-0.2c0.3,0,0.1-0.4,0.1-0.4
		c-1.5-2.6-4.5-2.1-5.3-1.9c-0.1,0-0.2,0-0.2-0.1c-0.1-0.6-0.5-0.8-0.7-0.8c-0.1,0-0.2-0.1-0.4-0.1c-1.2-0.4-2,0.5-2.5,1.4
		c-0.3,0.6-0.5,1.2-0.5,1.9l0,3.2c0,0.8-0.6,1.4-1.1,1.8c-0.1,0.1-0.1,0.3,0.1,0.3c1-0.1,1.5-0.5,1.5-0.5c1.5-0.7,1.8-5.4,2.1-5.6
		s0.3,0.2,0.3,0.2c-0.7,0.7-0.6,2.1-0.6,2.1c-0.1,1.3,1.3,2.6,1.6,2.9c0,0,0.1,0.1,0.1,0.1c0,0.5-0.2,1.1-0.3,1.3c0,0,0,0.1,0,0.1
		c-1.4,1.2-1.2,1.9-1.2,2.2c0,0,0,0.1,0,0.1l-4.5,8c-1.2,1.6,0.7,2.1,0.7,2.1l3.4,1c0.1,0,0.1,0.1,0.1,0.2l-0.2,2.8
		c0,0.1,0.1,0.2,0.1,0.2l4.4,0.6C352,47.1,352,47.1,352.1,47z"/>
	<path class="st2" d="M355.3,68.5c0,0-1.8-7.5-1.2-8.8s-0.5-9.3-1.5-10c-0.9-0.7-5.3,1.5-5.3,1.5l0.8,2.1c0,0,0.5,4.7,2.5,7.4
		c0,0-1.1,3.7,1.5,8c0,0,0.8,1.5,0.5,3.3c-0.2,1,0.8,2.2,1.5,2c2.1-0.6,5.5,0.3,6.8-0.2c0,0,2.1-1.2-3.7-2c-1.7-0.2-1.8-3.3-1.8-3.4
		"/>
	<path class="st1" d="M347.3,46c0,0-2.7,6.1-1.6,6.9c0,0,2.4,1,6.6-2.9c0,0,0.3,2.7,2,2.3c0,0-0.3-3-2.2-6.1
		C350.3,42.9,347.3,46,347.3,46z"/>
</g>
<g>
	<path class="st1" d="M383.8,52.1c0.3-1.1,1.5,7.8,6.3,7.7C395,59.7,387,55,387,55v-5"/>
	<path class="st1" d="M388.9,54.4c0,0,5.6,4.8,3,7.9c0,0-9.9,3.5-10,4.3c0,0-1.5,2.4-1.9,4c-0.2,0.8-1.3,0.8-1.5,0.1
		c-0.2-0.5-0.2-1.3,0.2-2.6c0,0,0.5-2.1,0-3.2c-0.1-0.3,0-0.7,0.3-0.8c0.6-0.2,1.4-0.5,2.5-0.3c0,0,3.6-3.6,5.2-3.1L388.9,54.4z"/>
	<path class="st2" d="M390.1,50.5c0.8,1.7-0.7,11-0.7,11c0.8,1.2,0.5,6,0.5,6c-0.4,2.2,1.6,3.9,1.6,3.9c5,1.8,2.3,2.8,2.3,2.8
		c-7.8-0.4-6.2-1.8-6.2-1.8c0.5-1.3-0.4-4.4-0.4-4.4c-1.2-4,0-5.7,0-5.7c-1.6-4.3-1.9-11.4-1.9-11.4l3.6-2.8L390.1,50.5z"/>
	<path class="st1" d="M389.7,46.8c0.2-0.3,0.3-1.2,0.4-1.7c0-0.1,0.2-0.2,0.3-0.1c0.2,0.1,0.5,0.3,0.5,0.3c0,0,0,0,0,0
		c0.3,0.1,0.5,0,0.5,0c0-0.1,0.1-0.1,0.2-0.1c0.6,0.2,0.4-0.2,0.4-0.2c0.5,0,0.4-0.2,0.4-0.2c0.1,0-0.3-0.2-0.3-0.2s0.1,0,0.2,0
		c0.1,0,0-0.2,0-0.2c-0.6-0.5-0.9-0.8-1.1-0.9c-0.1-0.1,0-0.2,0.1-0.3c0.1,0,0.1-0.1,0.2-0.1c0.2-0.1,0-0.4-0.2-0.3
		c-0.1,0.1-0.3,0.1-0.4,0.1c-0.1,0-0.1-0.1-0.2-0.1c-0.2-0.9,0.3-1.2,0.4-1.2c0,0,0,0,0.1,0c0.4,0,4.9-0.2,4.9-0.2
		c0.5,0,0.6-0.1,0.6-0.2c0-0.1,0-0.2,0.1-0.2c0.8-0.3,0.1-0.7,0.1-0.7c0.2-0.1,0-0.2,0-0.2c0-0.1-0.8-0.2-1.3-0.3
		c-0.1,0-0.2-0.1-0.1-0.2c0.2-0.6-0.2-0.2-0.2-0.2c-0.2,0.3-1.2,0.8-1.2,0.8c-0.4,0.2-2.3,0-2.8,0c-0.1,0-0.2-0.1-0.2-0.2
		c0-0.4,0.1-1.3,0.1-1.5c0,0,0-0.1,0.1-0.1c2.2-1.9,0.9-3.5,0.7-3.6c0,0,0,0,0,0c-1.6-1.2-2.2-3.2-2.3-3.4c0,0,0,0,0,0
		c-0.3-2.1,1.7-1.7,1.7-1.7c0.5,0.1,0.5-0.5,0.5-0.8c0-0.1,0.1-0.2,0.2-0.2c0.1,0,0.2,0,0.2,0c0.2,0,0.1-0.1,0-0.2
		c-0.1-0.1,0-0.2,0.1-0.2c0,0,0,0,0.1-0.1c0.1-0.1,0-0.2,0-0.2c-0.2-0.2,0-0.4,0-0.4c0.8,0.2,0.5-0.3,0.5-0.3
		c-0.2-0.1-0.4-0.6-0.6-0.8c0-0.1,0-0.2,0-0.2c0.3-0.7,0.2-1.3,0.1-1.6c0-0.1,0-0.2,0.1-0.2c0.3,0,0.1-0.4,0.1-0.4
		c-1.5-2.6-4.5-2.1-5.3-1.9c-0.1,0-0.2,0-0.2-0.1c-0.1-0.6-0.5-0.8-0.7-0.8c-0.1,0-0.2-0.1-0.4-0.1c-1.2-0.4-2,0.5-2.5,1.4
		c-0.3,0.6-0.5,1.2-0.5,1.9l0,3.2c0,0.8-0.6,1.4-1.1,1.8c-0.1,0.1-0.1,0.3,0.1,0.3c1-0.1,1.5-0.5,1.5-0.5c1.5-0.7,1.8-5.4,2.1-5.6
		c0.2-0.2,0.3,0.2,0.3,0.2c-0.7,0.7-0.6,2.1-0.6,2.1c-0.1,1.3,1.3,2.6,1.6,2.9c0,0,0.1,0.1,0.1,0.1c0,0.5-0.2,1.1-0.3,1.3
		c0,0,0,0.1,0,0.1c-1.4,1.2-1.2,1.9-1.2,2.2c0,0,0,0.1,0,0.1l-4.5,8c-1.2,1.6,0.7,2.1,0.7,2.1l3.4,1c0.1,0,0.1,0.1,0.1,0.2L385,46
		c0,0.1,0.1,0.2,0.1,0.2l4.4,0.6C389.6,46.9,389.7,46.8,389.7,46.8z"/>
	<path class="st1" d="M385.7,45.5c0,0-3.5,3.1-2.1,7.4c0,0,3.8-4.3,6.9-2.2c0,0,1.6-2.4-0.7-5.2C387.4,42.7,385.7,45.5,385.7,45.5z"
		/>
</g>
<g>
	<path class="st1" d="M190.4,51.2c0,0-2.9,8.4-2,11.4c0,0-1.1,3.3-0.5,5c0,0,0.7,2.5,0,3.4c0,0-1.7,2.5-0.7,2.5c1,0,2.9-0.8,4.7,0
		c0,0,3.7,0,1.2-2.1c0,0-1.5,0.2-1.7-0.8c0,0-1.4-1.6-0.3-5.6c0,0,0.8-0.9,0.8-2.7c0,0,2-3.4,3.7-9.7
		C197.3,46.3,190.4,51.2,190.4,51.2z"/>
	<path class="st1" d="M197.1,47c0.2-0.3,0.3-1.2,0.4-1.7c0-0.1,0.2-0.2,0.3-0.1c0.2,0.1,0.5,0.3,0.5,0.3c0,0,0,0,0,0
		c0.3,0.1,0.5,0,0.5,0c0-0.1,0.1-0.1,0.2-0.1c0.6,0.2,0.4-0.2,0.4-0.2c0.5,0,0.4-0.2,0.4-0.2c0.1,0-0.3-0.2-0.3-0.2s0.1,0,0.2,0
		s0-0.2,0-0.2c-0.6-0.5-0.9-0.8-1.1-0.9c-0.1-0.1,0-0.2,0.1-0.3c0.1,0,0.1-0.1,0.2-0.1c0.2-0.1,0-0.4-0.2-0.3
		c-0.1,0.1-0.3,0.1-0.4,0.1c-0.1,0-0.1-0.1-0.2-0.1c-0.2-0.9,0.3-1.2,0.4-1.2c0,0,0,0,0.1,0c0.4,0,4.9-0.2,4.9-0.2
		c0.5,0,0.6-0.1,0.6-0.2c0-0.1,0-0.2,0.1-0.2c0.8-0.3,0.1-0.7,0.1-0.7c0.2-0.1,0-0.2,0-0.2c0-0.1-0.8-0.2-1.3-0.3
		c-0.1,0-0.2-0.1-0.1-0.2c0.2-0.6-0.2-0.2-0.2-0.2c-0.2,0.3-1.2,0.8-1.2,0.8c-0.4,0.2-2.3,0-2.8,0c-0.1,0-0.2-0.1-0.2-0.2
		c0-0.4,0.1-1.3,0.1-1.5c0,0,0-0.1,0.1-0.1c2.2-1.9,0.9-3.5,0.7-3.6c0,0,0,0,0,0c-1.6-1.2-2.2-3.2-2.3-3.4c0,0,0,0,0,0
		c-0.3-2.1,1.7-1.7,1.7-1.7c0.5,0.1,0.5-0.5,0.5-0.8c0-0.1,0.1-0.2,0.2-0.2c0.1,0,0.2,0,0.2,0c0.2,0,0.1-0.1,0-0.2
		c-0.1-0.1,0-0.2,0.1-0.2c0,0,0,0,0.1-0.1c0.1-0.1,0-0.2,0-0.2c-0.2-0.2,0-0.4,0-0.4c0.8,0.2,0.5-0.3,0.5-0.3
		c-0.2-0.1-0.4-0.6-0.6-0.8c0-0.1,0-0.2,0-0.2c0.3-0.7,0.2-1.3,0.1-1.6c0-0.1,0-0.2,0.1-0.2c0.3,0,0.1-0.4,0.1-0.4
		c-1.5-2.6-4.5-2.1-5.3-1.9c-0.1,0-0.2,0-0.2-0.1c-0.1-0.6-0.5-0.8-0.7-0.8c-0.1,0-0.2-0.1-0.4-0.1c-1.2-0.4-2,0.5-2.5,1.4
		c-0.3,0.6-0.5,1.2-0.5,1.9l0,3.2c0,0.8-0.6,1.4-1.1,1.8c-0.1,0.1-0.1,0.3,0.1,0.3c1-0.1,1.5-0.5,1.5-0.5c1.5-0.7,1.8-5.4,2.1-5.6
		c0.2-0.2,0.3,0.2,0.3,0.2c-0.7,0.7-0.6,2.1-0.6,2.1c-0.1,1.3,1.3,2.6,1.6,2.9c0,0,0.1,0.1,0.1,0.1c0,0.5-0.2,1.1-0.3,1.3
		c0,0,0,0.1,0,0.1c-1.4,1.2-1.2,1.9-1.2,2.2c0,0,0,0.1,0,0.1l-4.5,8c-1.2,1.6,0.7,2.1,0.7,2.1l3.4,1c0.1,0,0.1,0.1,0.1,0.2l-0.2,2.8
		c0,0.1,0.1,0.2,0.1,0.2l4.4,0.6C197,47.1,197.1,47.1,197.1,47z"/>
	<path class="st2" d="M196.7,50.5c0,0,5.5,4.6,6,8c0,0,2.2,2.9-1.8,4.1c0,0-4,1.9-5.1,3.5c0,0-0.5,3,0,3.6c0,0,0,1.8-1.8,0.4
		c-0.3-0.2-0.4-0.6-0.4-0.9c0-0.9-0.1-2.6-0.8-3.2c0,0-1.8-2.4,1.6-2c0,0,1.4-0.8,1.8-1.3c0,0,1.7-2.9,3.1-2.9c0,0-6.2-4.8-6.2-7.3"
		/>
	<path class="st1" d="M192.5,46.5c0,0-2.4,2.2-2.1,4.7c0,0,1.5,2,2.9,2.1c0.1,0,0.2,0,0.3,0c1.4-0.2,3.6-1.3,3.9-2
		c0.2-0.7,0.8-3.6-0.4-4.3"/>
</g>
<g>
	<g>
		<line class="st3" x1="0" y1="79.3" x2="6" y2="79.3"/>
		<line class="st4" x1="17.9" y1="79.3" x2="488" y2="79.3"/>
		<line class="st3" x1="494" y1="79.3" x2="500" y2="79.3"/>
	</g>
</g>
</svg>
