<?xml version="1.0" encoding="utf-8"?>
<!-- Generator: Adobe Illustrator 19.1.0, SVG Export Plug-In . SVG Version: 6.00 Build 0)  -->
<svg version="1.1" baseProfile="tiny" id="Camada_1"
	 xmlns="http://www.w3.org/2000/svg" xmlns:xlink="http://www.w3.org/1999/xlink" x="0px" y="0px" viewBox="0 0 320 565"
	 xml:space="preserve">
<path fill="#F2E1C7" d="M192,292.7c-33.7,14.8-64.4,0-64.4,0c-18.3-34.1-11.7-60.1-11.7-60.1c15.7,2.4,23.4-33.3,23.4-33.3h40.1
	c0,0,7.8,35.7,23.4,33.3c0,0,6.6,26.1-11.7,60.1c0,0-30.7,14.8-64.4,0"/>
<path fill="#EAD4B7" d="M137.2,207.3c2.5-6.7,2.2-8,2.2-8h40.1c0,0,3,13.9,9.1,23.8"/>
<g>
	<path fill="#93221C" d="M114,231.1c0,0-48.1,15-55,21.9c0,0-20.3,15.5-2.1,154.4l29.4,9.6l2.1-126.6l32.1-16L114,231.1z"/>
	<path fill="#93221C" d="M208.5,231.1c0,0,48.1,15,55,21.9c0,0,20.3,15.5,2.1,154.4l-29.4,9.6l-2.1-126.6l-32.1-16L208.5,231.1z"/>
	<path fill="#DDB758" d="M213.9,417.1c31.9-164.1-5.4-186-5.4-186c-13.6,0-23.3-12.7-23.3-12.7c-23.5,14.6-52.9,0.4-52.9,0.4
		c-1.1,7.5-18.4,12.3-18.4,12.3"/>
	<path fill="#DDB758" d="M115.1,231.1c0,0-37.3,21.8-5.4,186c0,0,53,11.5,104.3,0"/>
	<rect x="158" y="224.9" fill="#93221C" width="3.4" height="196.2"/>
</g>
<g>
	<path fill="none" stroke="#0F547A" stroke-width="5" stroke-miterlimit="10" d="M130.9,325.7c3-1.6,54.4-107.3,54.4-107.3"/>
	<path fill="none" stroke="#1D71B8" stroke-width="5" stroke-miterlimit="10" d="M129.9,325.4c-2-2.8,2.4-106.7,2.4-106.7"/>
	<circle fill="#A86C60" cx="124.7" cy="356.9" r="32.7"/>
	<circle fill="#CD8D7C" cx="125.8" cy="352.1" r="32.7"/>
</g>
<g>
	<path fill="none" stroke="#0F547A" stroke-width="5" stroke-miterlimit="10" d="M170.9,322.2c2.6-2.2,14.4-103.8,14.4-103.8"/>
	<path fill="none" stroke="#1D71B8" stroke-width="5" stroke-miterlimit="10" d="M169.9,322.2c-2.6-2.2-37.6-103.4-37.6-103.4"/>
	<circle fill="#B58A2A" cx="172.2" cy="354" r="32.7"/>
	<circle fill="#E0B135" cx="172.2" cy="349.1" r="32.7"/>
</g>
<g>
	<path fill="none" stroke="#0F547A" stroke-width="5" stroke-miterlimit="10" d="M198,318.1c1.5-3.1-12.7-99.7-12.7-99.7"/>
	<path fill="none" stroke="#1D71B8" stroke-width="5" stroke-miterlimit="10" d="M197,318.5c-3.2-1.1-64.7-99.7-64.7-99.7"/>
	<circle fill="#A86C60" cx="211.3" cy="347" r="32.7"/>
	<circle fill="#CD8D7C" cx="209.4" cy="342.5" r="32.7"/>
</g>
<g>
	<path fill="none" stroke="#0F547A" stroke-width="5" stroke-miterlimit="10" d="M100.3,306.2c3.3-0.8,84.9-87.8,84.9-87.8"/>
	<path fill="none" stroke="#1D71B8" stroke-width="5" stroke-miterlimit="10" d="M99.5,305.8c-1.3-3.2,32.9-87,32.9-87"/>
	<circle fill="#B58A2A" cx="87" cy="335.1" r="32.7"/>
	<circle fill="#E0B135" cx="89.2" cy="330.8" r="32.7"/>
</g>
<g>
	<path fill="#E52A16" d="M140,203c-58.6-31.5-57.8-69.3-52.4-88.5c2-7.2,6.4-13.6,12.4-18.2l50.8-39.4c5.3-4.1,12-5.8,18.6-4.8
		l33.2,5.4c5.7,0.9,10.5,5,12.3,10.5l11,33.8c0,0,34.1,56.8-48.4,101.2C156,214.5,140,203,140,203"/>
</g>
<path fill="#22140F" d="M158.4,40.9c0,0,4.8-71.6,86-23c0,0,33.1,19.2,24.6,89.2c0,0-6.4,47.6,21.9,31c0,0,9.6-12.3,5.9-21.4
	c0,0,33.7,35.8,5.3,62.5c0,0-37.1,35-54.3-19.6c-1-3.1-2.3-6-3.9-8.8l-20.5-33.9l-3.2-31.5l-31.7-30.7l-30.2-7.2"/>
<g>
	<path fill="none" d="M139.4,202.5C80.7,171,81.6,133.2,87,114c2-7.2,6.4-13.6,12.4-18.2l50.8-39.4c5.3-4.1,12-5.8,18.6-4.8L202,57
		c5.7,0.9,10.5,5,12.3,10.5l11,33.8c0,0,34.1,56.8-48.4,101.2C155.3,214.1,139.4,202.5,139.4,202.5"/>
</g>
<path fill="#22140F" d="M232.2,140c1-102.6-64.8-97.1-68.9-96.7c-0.1,0-0.3,0-0.4,0c-76.4-4.2-77.7,83.6-77.5,95.4
	c0,0.8,0.4,1.6,1,2.1l8.8,6.9c1.7,1.3,4.1,0.3,4.4-1.8l4.7-38.6c0,0,1.6-24.3,41.8-15.9c0,0,9,1.8,25.5,0
	c40.8-4.3,41.8,15.9,41.8,15.9l4.7,38.6c0.3,2.1,2.7,3.1,4.4,1.8L232.2,140"/>
<g>
	<path d="M137.1,441.7c-0.1-0.8-0.4-1.5-0.9-2.1c-0.7-1.2-2.1-2.6-5.2-2.6c-0.4,0-2,0-3.2,0.7c-1,0.6-1.8,1.5-2.4,2.5
		c-0.7,1.2-1.3,2.9-1.3,6c0,0.6,0,2.1,0.4,3.8c0.4,1.9,1.7,5.6,6.9,5.6c1.9,0,3.4-0.6,4.6-2.1c0.8-1,1-1.8,1.1-2.3l1.9,1.1
		c-1,2.3-2.4,3.5-3.3,4c-0.8,0.5-2.2,1.1-4.5,1.1c-1.2,0-4.6-0.1-6.9-3c-2.3-2.8-2.3-7.1-2.3-7.9c0-1,0-5.5,2.6-8.5
		c1-1.2,2.2-1.8,2.7-2.1c0.7-0.3,1.8-0.7,3.6-0.7c1.2,0,2.4,0.1,3.5,0.5c2.4,0.8,3.7,2.6,4.7,4.9L137.1,441.7z"/>
	<path d="M153.7,456.8v-6.9h-9.5v6.9h-1.8v-15h1.8v6.5h9.5v-6.5h1.8v15H153.7z"/>
	<path d="M159.7,456.8v-15h1.8v15H159.7z"/>
	<path d="M176.6,456.8l-9.3-13.1l0.1,13.1h-1.7v-15h2.3l8.8,12.5l-0.1-12.5h1.7v15H176.6z"/>
	<path d="M193,456.8l-1.9-4.4h-6.6l-1.9,4.4h-1.8l6.5-15h1.3l6.3,15H193z M187.9,444.3l-2.8,6.6h5.5L187.9,444.3z"/>
</g>
<g>
	<path d="M119.8,480.5c-0.3,0.4-1.1,1.3-2.4,1.8c-0.5,0.2-1.2,0.4-2.4,0.4c-1.7,0-3.1-0.5-4.4-1.7c-1-1-2.1-2.9-2.1-6.2
		c0-0.8,0-3.8,2-6c0.3-0.3,1-1,2.1-1.4c0.5-0.2,1.3-0.4,2.4-0.4c1,0,3.4,0.1,5,2.5c0.6,0.9,1.4,2.7,1.4,5.3
		C121.5,476.6,121,478.9,119.8,480.5z M118.5,469.7c-0.2-0.2-0.6-0.7-1.3-1.1c-0.4-0.2-1-0.5-2.1-0.5c-3.7,0-5,3.6-5,6.7
		c0,0.5,0,3.7,1.8,5.4c0.9,0.8,1.9,1.2,3.1,1.2c1.3,0,2.4-0.4,3.2-1.4c1.7-1.8,1.7-4.8,1.7-5.3C120,474.1,120,471.5,118.5,469.7z"/>
	<path d="M132.8,478.2c0,1.2-0.1,1.8-0.4,2.3c-0.6,1.3-2,2-4,2c-1.5,0-2.7-0.4-3.5-1.3c-0.2-0.3-0.4-0.6-0.6-0.9
		c-0.3-0.6-0.3-1-0.3-2.4v-6.5h1.3v5.7c0,0.5,0,1,0,1.4c0,0.8,0.3,1.4,0.6,1.9c0.5,0.6,1.5,1,2.6,1c1,0,1.9-0.3,2.4-0.9
		c0.3-0.3,0.5-0.8,0.6-1.2c0.1-0.4,0.1-0.8,0.1-2.2v-5.6h1.2v5.2C132.9,477.2,132.9,477.7,132.8,478.2z"/>
	<path d="M142.9,482.3l-3.2-4.5h-2.7v4.5h-1.3v-10.7h3.6c1.7,0,2.4,0,3,0.3c1.1,0.4,1.9,1.5,1.9,2.8c0,1.8-1.1,2.8-3.2,3.1l3.4,4.6
		H142.9z M142.2,473.1c-0.3-0.2-0.5-0.3-0.9-0.4c-0.5-0.1-0.8-0.1-2-0.1h-2.3v4.1h2.3c0.1,0,0.4,0,0.7,0c0.9,0,1.2-0.1,1.7-0.2
		c0.8-0.3,1.2-0.9,1.2-1.9C143,474,142.7,473.4,142.2,473.1z"/>
	<path d="M151.3,482.6c-3.1,0-5.2-2.3-5.2-5.7c0-3.4,2.1-5.7,5.3-5.7c3.1,0,5.1,2.1,5.1,5.5C156.5,480.3,154.4,482.6,151.3,482.6z
		 M151.3,472.3c-2.3,0-3.8,1.8-3.8,4.6c0,2.9,1.4,4.7,3.8,4.7c2.4,0,3.9-1.8,3.9-4.6C155.1,474.1,153.6,472.3,151.3,472.3z"/>
	<path d="M164,476.7v-1.3h5.6v1.3H164z"/>
	<path d="M177.5,482.3v-1c1.3-0.9,2.6-1.9,3.9-2.8c1.4-1.1,2.2-1.9,2.5-2.6c0.3-0.5,0.3-1,0.3-1.3c0-1.5-1.2-2.6-2.7-2.6
		c-0.5,0-0.9,0.1-1.3,0.3c-1.3,0.7-1.5,2-1.5,2.5c0,0.3,0.1,0.6,0.1,0.7l-1.4-0.4c0-0.5-0.1-1.4,0.6-2.5c0.5-0.7,1.5-1.7,3.5-1.7
		c2,0,3,1,3.4,1.6c0.4,0.6,0.6,1.3,0.6,2c0,0.6-0.1,1.6-1,2.6c-0.7,0.9-1.9,2-4.2,3.3l-1.2,0.7l7.3-0.1v1.2H177.5z"/>
	<path d="M197.4,478.9c-0.6,2.2-2.3,3.6-4.6,3.6c-3.4,0-4.9-2.9-4.9-5.8c0-0.4,0-1.4,0.4-2.5c0.7-2.1,2.4-3.3,4.6-3.3
		c0.7,0,2.4,0.1,3.6,1.7c0.9,1.1,1.2,2.6,1.2,3.9C197.7,477.7,197.6,478.5,197.4,478.9z M196.1,474.5c-0.1-0.2-0.2-0.7-0.6-1.1
		c-0.3-0.4-1.2-1.3-2.7-1.3c-0.6,0-1.1,0.1-1.6,0.4c-0.9,0.5-2,1.8-2,4.3c0,0.4,0,2.9,1.7,4.1c0.3,0.2,1,0.6,2,0.6
		c0.7,0,1.4-0.2,2-0.6c1.3-1,1.6-2.7,1.6-4.2C196.4,475.5,196.3,474.9,196.1,474.5z"/>
	<path d="M208.5,478.9c-0.6,2.2-2.3,3.6-4.6,3.6c-3.4,0-4.9-2.9-4.9-5.8c0-0.4,0-1.4,0.4-2.5c0.7-2.1,2.4-3.3,4.6-3.3
		c0.7,0,2.4,0.1,3.6,1.7c0.9,1.1,1.2,2.6,1.2,3.9C208.8,477.7,208.7,478.5,208.5,478.9z M207.2,474.5c-0.1-0.2-0.2-0.7-0.6-1.1
		c-0.3-0.4-1.2-1.3-2.7-1.3c-0.6,0-1.1,0.1-1.6,0.4c-0.9,0.5-2,1.8-2,4.3c0,0.4,0,2.9,1.7,4.1c0.3,0.2,1,0.6,2,0.6
		c0.7,0,1.4-0.2,2-0.6c1.3-1,1.6-2.7,1.6-4.2C207.5,475.5,207.3,474.9,207.2,474.5z"/>
	<path d="M219.6,478.9c-0.6,2.2-2.3,3.6-4.6,3.6c-3.4,0-4.9-2.9-4.9-5.8c0-0.4,0-1.4,0.4-2.5c0.7-2.1,2.4-3.3,4.6-3.3
		c0.7,0,2.4,0.1,3.6,1.7c0.9,1.1,1.2,2.6,1.2,3.9C219.9,477.7,219.7,478.5,219.6,478.9z M218.3,474.5c-0.1-0.2-0.2-0.7-0.6-1.1
		c-0.3-0.4-1.2-1.3-2.7-1.3c-0.6,0-1.1,0.1-1.6,0.4c-0.9,0.5-2,1.8-2,4.3c0,0.4,0,2.9,1.7,4.1c0.3,0.2,1,0.6,2,0.6
		c0.7,0,1.4-0.2,2-0.6c1.3-1,1.6-2.7,1.6-4.2C218.6,475.5,218.4,474.9,218.3,474.5z"/>
	<path d="M118.8,507.2c-1.3,0.7-2.9,0.6-4.2,0.6h-5.3v-15h6.2c0.3,0,0.6,0,1,0c0.5,0,2.1,0.1,3.2,1.5c0.6,0.9,0.7,1.9,0.7,2.2
		c0,0.5-0.1,1.8-1.3,2.7c-0.6,0.4-1.1,0.5-1.4,0.5c2,0.4,3.2,1.8,3.2,3.9C120.8,504.2,120.7,506.2,118.8,507.2z M118.4,495
		c-0.8-1-2.2-1-3.3-1h-4.5v5.1h4.2c1.2,0,2.6,0,3.4-1c0.4-0.5,0.5-1,0.5-1.6C118.8,496.3,118.8,495.6,118.4,495z M117.9,500.9
		c-0.9-0.6-2-0.6-3.1-0.6h-4.2v6.1h3.8c1.3,0,2.3,0,2.8-0.1c0.7-0.1,2.1-0.8,2.1-2.8C119.4,503.1,119.3,501.7,117.9,500.9z"/>
	<path d="M130.3,507.8l-3.2-4.5h-2.7v4.5h-1.3v-10.7h3.6c1.7,0,2.4,0,3,0.3c1.1,0.4,1.9,1.5,1.9,2.8c0,1.8-1.1,2.8-3.2,3.1l3.4,4.6
		H130.3z M129.6,498.6c-0.3-0.2-0.5-0.3-0.9-0.4c-0.5-0.1-0.8-0.1-2-0.1h-2.3v4.1h2.3c0.1,0,0.4,0,0.7,0c0.9,0,1.2-0.1,1.7-0.2
		c0.8-0.3,1.2-0.9,1.2-1.9C130.4,499.5,130.1,498.9,129.6,498.6z"/>
	<path d="M138.6,508.1c-3.1,0-5.2-2.3-5.2-5.7c0-3.4,2.1-5.7,5.3-5.7c3.1,0,5.1,2.1,5.1,5.5C143.8,505.8,141.8,508.1,138.6,508.1z
		 M138.7,497.8c-2.3,0-3.8,1.8-3.8,4.6c0,2.9,1.4,4.7,3.8,4.7c2.4,0,3.9-1.8,3.9-4.6C142.5,499.7,140.9,497.8,138.7,497.8z"/>
	<path d="M154.1,507.8l-6.6-9.4l0.1,9.4h-1.2v-10.7h1.6l6.3,8.9l-0.1-8.9h1.2v10.7H154.1z"/>
	<path d="M159.2,506.7h6.7v1.1h-8.6v-0.7l6.8-8.9h-6.4v-1.1h8.3v0.7L159.2,506.7z"/>
	<path d="M167.9,507.8v-10.7h7.7v1.1h-6.4v3.5h5.8v1.1h-5.8v3.9h6.9v1.1H167.9z"/>
	<path d="M183.4,502.2v-1.3h5.6v1.3H183.4z"/>
	<path d="M196.9,507.8v-1c1.3-0.9,2.6-1.9,3.9-2.8c1.4-1.1,2.2-1.9,2.5-2.6c0.3-0.5,0.3-1,0.3-1.3c0-1.5-1.2-2.6-2.7-2.6
		c-0.5,0-0.9,0.1-1.3,0.3c-1.3,0.7-1.5,2-1.5,2.5c0,0.3,0.1,0.6,0.1,0.7l-1.4-0.4c0-0.5-0.1-1.4,0.6-2.5c0.5-0.7,1.5-1.7,3.5-1.7
		c2,0,3,1,3.4,1.6c0.4,0.6,0.6,1.3,0.6,2c0,0.6-0.1,1.6-1,2.6c-0.7,0.9-1.9,2-4.2,3.3l-1.2,0.7l7.3-0.1v1.2H196.9z"/>
	<path d="M216.8,504.5c-0.6,2.2-2.3,3.6-4.6,3.6c-3.4,0-4.9-2.9-4.9-5.8c0-0.4,0-1.4,0.4-2.5c0.7-2.1,2.4-3.3,4.6-3.3
		c0.7,0,2.4,0.1,3.6,1.7c0.9,1.1,1.2,2.6,1.2,3.9C217.1,503.3,216.9,504,216.8,504.5z M215.5,500c-0.1-0.2-0.2-0.7-0.6-1.1
		c-0.3-0.4-1.2-1.3-2.7-1.3c-0.6,0-1.1,0.1-1.6,0.4c-0.9,0.5-2,1.8-2,4.3c0,0.4,0,2.9,1.7,4.1c0.3,0.2,1,0.6,2,0.6
		c0.7,0,1.4-0.2,2-0.6c1.3-1,1.6-2.7,1.6-4.2C215.8,501.1,215.6,500.5,215.5,500z"/>
	<path d="M218.4,498.9c2.3,0,2.7-1.1,2.8-2.3h1.2v11.2h-1.3v-8.5c-0.9,0.7-2.4,0.7-2.4,0.7h-0.2V498.9z"/>
	<path d="M225.7,507.8v-1c1.3-0.9,2.6-1.9,3.9-2.8c1.4-1.1,2.2-1.9,2.5-2.6c0.3-0.5,0.3-1,0.3-1.3c0-1.5-1.2-2.6-2.7-2.6
		c-0.5,0-0.9,0.1-1.3,0.3c-1.3,0.7-1.5,2-1.5,2.5c0,0.3,0.1,0.6,0.1,0.7l-1.4-0.4c0-0.5-0.1-1.4,0.6-2.5c0.5-0.7,1.5-1.7,3.5-1.7
		c2,0,3,1,3.4,1.6c0.4,0.6,0.6,1.3,0.6,2c0,0.6-0.1,1.6-1,2.6c-0.7,0.9-1.9,2-4.2,3.3l-1.2,0.7l7.3-0.1v1.2H225.7z"/>
	<path d="M119.8,531.5c-0.3,0.4-1.1,1.3-2.4,1.8c-0.5,0.2-1.2,0.4-2.4,0.4c-1.7,0-3.1-0.5-4.4-1.7c-1-1-2.1-2.9-2.1-6.2
		c0-0.8,0-3.8,2-6c0.3-0.3,1-1,2.1-1.4c0.5-0.2,1.3-0.4,2.4-0.4c1,0,3.4,0.1,5,2.5c0.6,0.9,1.4,2.7,1.4,5.3
		C121.5,527.6,121,529.9,119.8,531.5z M118.5,520.7c-0.2-0.2-0.6-0.7-1.3-1.1c-0.4-0.2-1-0.5-2.1-0.5c-3.7,0-5,3.6-5,6.7
		c0,0.5,0,3.7,1.8,5.4c0.9,0.8,1.9,1.2,3.1,1.2c1.3,0,2.4-0.4,3.2-1.4c1.7-1.8,1.7-4.8,1.7-5.3C120,525.2,120,522.5,118.5,520.7z"/>
	<path d="M132.8,529.3c0,1.2-0.1,1.8-0.4,2.3c-0.6,1.3-2,2-4,2c-1.5,0-2.7-0.4-3.5-1.3c-0.2-0.3-0.4-0.6-0.6-0.9
		c-0.3-0.6-0.3-1-0.3-2.4v-6.5h1.3v5.7c0,0.5,0,1,0,1.4c0,0.8,0.3,1.4,0.6,1.9c0.5,0.6,1.5,1,2.6,1c1,0,1.9-0.3,2.4-0.9
		c0.3-0.3,0.5-0.8,0.6-1.2c0.1-0.4,0.1-0.8,0.1-2.2v-5.6h1.2v5.2C132.9,528.3,132.9,528.8,132.8,529.3z"/>
	<path d="M142.9,533.3l-3.2-4.5h-2.7v4.5h-1.3v-10.7h3.6c1.7,0,2.4,0,3,0.3c1.1,0.4,1.9,1.5,1.9,2.8c0,1.8-1.1,2.8-3.2,3.1l3.4,4.6
		H142.9z M142.2,524.1c-0.3-0.2-0.5-0.3-0.9-0.4c-0.5-0.1-0.8-0.1-2-0.1h-2.3v4.1h2.3c0.1,0,0.4,0,0.7,0c0.9,0,1.2-0.1,1.7-0.2
		c0.8-0.3,1.2-0.9,1.2-1.9C143,525,142.7,524.5,142.2,524.1z"/>
	<path d="M151.3,533.7c-3.1,0-5.2-2.3-5.2-5.7c0-3.4,2.1-5.7,5.3-5.7c3.1,0,5.1,2.1,5.1,5.5C156.5,531.3,154.4,533.7,151.3,533.7z
		 M151.3,523.3c-2.3,0-3.8,1.8-3.8,4.6c0,2.9,1.4,4.7,3.8,4.7c2.4,0,3.9-1.8,3.9-4.6C155.1,525.2,153.6,523.3,151.3,523.3z"/>
	<path d="M164,527.7v-1.3h5.6v1.3H164z"/>
	<path d="M177.5,533.3v-1c1.3-0.9,2.6-1.9,3.9-2.8c1.4-1.1,2.2-1.9,2.5-2.6c0.3-0.5,0.3-1,0.3-1.3c0-1.5-1.2-2.6-2.7-2.6
		c-0.5,0-0.9,0.1-1.3,0.3c-1.3,0.7-1.5,2-1.5,2.5c0,0.3,0.1,0.6,0.1,0.7l-1.4-0.4c0-0.5-0.1-1.4,0.6-2.5c0.5-0.7,1.5-1.7,3.5-1.7
		c2,0,3,1,3.4,1.6c0.4,0.6,0.6,1.3,0.6,2c0,0.6-0.1,1.6-1,2.6c-0.7,0.9-1.9,2-4.2,3.3l-1.2,0.7l7.3-0.1v1.2H177.5z"/>
	<path d="M197.4,530c-0.6,2.2-2.3,3.6-4.6,3.6c-3.4,0-4.9-2.9-4.9-5.8c0-0.4,0-1.4,0.4-2.5c0.7-2.1,2.4-3.3,4.6-3.3
		c0.7,0,2.4,0.1,3.6,1.7c0.9,1.1,1.2,2.6,1.2,3.9C197.7,528.8,197.6,529.5,197.4,530z M196.1,525.5c-0.1-0.2-0.2-0.7-0.6-1.1
		c-0.3-0.4-1.2-1.3-2.7-1.3c-0.6,0-1.1,0.1-1.6,0.4c-0.9,0.5-2,1.8-2,4.3c0,0.4,0,2.9,1.7,4.1c0.3,0.2,1,0.6,2,0.6
		c0.7,0,1.4-0.2,2-0.6c1.3-1,1.6-2.7,1.6-4.2C196.4,526.6,196.3,526,196.1,525.5z"/>
	<path d="M199.1,524.5c2.3,0,2.7-1.1,2.8-2.3h1.2v11.2h-1.3v-8.5c-0.9,0.7-2.4,0.7-2.4,0.7h-0.2V524.5z"/>
	<path d="M215,530.8c-0.4,1-1.4,2.8-4.2,2.8c-1.4,0-2.3-0.5-2.8-0.9c-1.2-0.9-2.1-2.7-2.1-5.9c0-2.6,0.5-4.3,1-5.3
		c0.1-0.3,0.5-0.9,1.1-1.5c1.3-1.3,2.6-1.3,3.3-1.3c2,0,2.9,1,3.3,1.8c0.2,0.3,0.3,0.6,0.5,1.4l-1.2,0.4c0-0.1-0.1-0.6-0.2-1
		c-0.4-1-1.4-1.5-2.5-1.5c-0.7,0-1.8,0.1-2.7,1.5c-0.5,0.8-1.1,2.3-1.2,4.6c0.2-0.4,0.3-0.5,0.4-0.7c0.4-0.6,1.4-1.5,3.3-1.5
		c2.9,0,4.4,2.2,4.4,4.9C215.3,529,215.3,529.8,215,530.8z M212.7,525.4c-0.3-0.2-1-0.6-1.9-0.6c-0.5,0-1.6,0.1-2.5,1.1
		c-0.9,1-0.9,2.1-0.9,2.6c0,1.4,0.6,2.9,1.9,3.6c0.2,0.1,0.8,0.4,1.6,0.4c0.3,0,0.8,0,1.4-0.3c1.8-1,1.7-3.2,1.7-3.6
		C214,527.3,213.7,526.2,212.7,525.4z"/>
	<path d="M118.8,558.3c-1.3,0.7-2.9,0.6-4.2,0.6h-5.3v-15h6.2c0.3,0,0.6,0,1,0c0.5,0,2.1,0.1,3.2,1.5c0.6,0.9,0.7,1.9,0.7,2.2
		c0,0.5-0.1,1.8-1.3,2.7c-0.6,0.4-1.1,0.5-1.4,0.5c2,0.4,3.2,1.8,3.2,3.9C120.8,555.3,120.7,557.3,118.8,558.3z M118.4,546.1
		c-0.8-1-2.2-1-3.3-1h-4.5v5.1h4.2c1.2,0,2.6,0,3.4-1c0.4-0.5,0.5-1,0.5-1.6C118.8,547.3,118.8,546.7,118.4,546.1z M117.9,552
		c-0.9-0.6-2-0.6-3.1-0.6h-4.2v6.1h3.8c1.3,0,2.3,0,2.8-0.1c0.7-0.1,2.1-0.8,2.1-2.8C119.4,554.1,119.3,552.8,117.9,552z"/>
	<path d="M130.3,558.9l-3.2-4.5h-2.7v4.5h-1.3v-10.7h3.6c1.7,0,2.4,0,3,0.3c1.1,0.4,1.9,1.5,1.9,2.8c0,1.8-1.1,2.8-3.2,3.1l3.4,4.6
		H130.3z M129.6,549.7c-0.3-0.2-0.5-0.3-0.9-0.4c-0.5-0.1-0.8-0.1-2-0.1h-2.3v4.1h2.3c0.1,0,0.4,0,0.7,0c0.9,0,1.2-0.1,1.7-0.2
		c0.8-0.3,1.2-0.9,1.2-1.9C130.4,550.5,130.1,550,129.6,549.7z"/>
	<path d="M138.6,559.2c-3.1,0-5.2-2.3-5.2-5.7c0-3.4,2.1-5.7,5.3-5.7c3.1,0,5.1,2.1,5.1,5.5C143.8,556.9,141.8,559.2,138.6,559.2z
		 M138.7,548.9c-2.3,0-3.8,1.8-3.8,4.6c0,2.9,1.4,4.7,3.8,4.7c2.4,0,3.9-1.8,3.9-4.6C142.5,550.7,140.9,548.9,138.7,548.9z"/>
	<path d="M154.1,558.9l-6.6-9.4l0.1,9.4h-1.2v-10.7h1.6l6.3,8.9l-0.1-8.9h1.2v10.7H154.1z"/>
	<path d="M159.2,557.7h6.7v1.1h-8.6v-0.7l6.8-8.9h-6.4v-1.1h8.3v0.7L159.2,557.7z"/>
	<path d="M167.9,558.9v-10.7h7.7v1.1h-6.4v3.5h5.8v1.1h-5.8v3.9h6.9v1.1H167.9z"/>
	<path d="M183.4,553.2V552h5.6v1.3H183.4z"/>
	<path d="M196.9,558.9v-1c1.3-0.9,2.6-1.9,3.9-2.8c1.4-1.1,2.2-1.9,2.5-2.6c0.3-0.5,0.3-1,0.3-1.3c0-1.5-1.2-2.6-2.7-2.6
		c-0.5,0-0.9,0.1-1.3,0.3c-1.3,0.7-1.5,2-1.5,2.5c0,0.3,0.1,0.6,0.1,0.7l-1.4-0.4c0-0.5-0.1-1.4,0.6-2.5c0.5-0.7,1.5-1.7,3.5-1.7
		c2,0,3,1,3.4,1.6c0.4,0.6,0.6,1.3,0.6,2c0,0.6-0.1,1.6-1,2.6c-0.7,0.9-1.9,2-4.2,3.3l-1.2,0.7l7.3-0.1v1.2H196.9z"/>
	<path d="M216.8,555.5c-0.6,2.2-2.3,3.6-4.6,3.6c-3.4,0-4.9-2.9-4.9-5.8c0-0.4,0-1.4,0.4-2.5c0.7-2.1,2.4-3.3,4.6-3.3
		c0.7,0,2.4,0.1,3.6,1.7c0.9,1.1,1.2,2.6,1.2,3.9C217.1,554.3,216.9,555,216.8,555.5z M215.5,551.1c-0.1-0.2-0.2-0.7-0.6-1.1
		c-0.3-0.4-1.2-1.3-2.7-1.3c-0.6,0-1.1,0.1-1.6,0.4c-0.9,0.5-2,1.8-2,4.3c0,0.4,0,2.9,1.7,4.1c0.3,0.2,1,0.6,2,0.6
		c0.7,0,1.4-0.2,2-0.6c1.3-1,1.6-2.7,1.6-4.2C215.8,552.1,215.6,551.5,215.5,551.1z"/>
	<path d="M218.4,550c2.3,0,2.7-1.1,2.8-2.3h1.2v11.2h-1.3v-8.5c-0.9,0.7-2.4,0.7-2.4,0.7h-0.2V550z"/>
	<path d="M234.3,556.3c-0.4,1-1.4,2.8-4.2,2.8c-1.4,0-2.3-0.5-2.8-0.9c-1.2-0.9-2.1-2.7-2.1-5.9c0-2.6,0.5-4.3,1-5.3
		c0.1-0.3,0.5-0.9,1.1-1.5c1.3-1.3,2.6-1.3,3.3-1.3c2,0,2.9,1,3.3,1.8c0.2,0.3,0.3,0.6,0.5,1.4l-1.2,0.4c0-0.1-0.1-0.6-0.2-1
		c-0.4-1-1.4-1.5-2.5-1.5c-0.7,0-1.8,0.1-2.7,1.5c-0.5,0.8-1.1,2.3-1.2,4.6c0.2-0.4,0.3-0.5,0.4-0.7c0.4-0.6,1.4-1.5,3.3-1.5
		c2.9,0,4.4,2.2,4.4,4.9C234.7,554.5,234.7,555.3,234.3,556.3z M232,550.9c-0.3-0.2-1-0.6-1.9-0.6c-0.5,0-1.6,0.1-2.5,1.1
		c-0.9,1-0.9,2.1-0.9,2.6c0,1.4,0.6,2.9,1.9,3.6c0.2,0.1,0.8,0.4,1.6,0.4c0.3,0,0.8,0,1.4-0.3c1.8-1,1.7-3.2,1.7-3.6
		C233.3,552.9,233.1,551.7,232,550.9z"/>
</g>
<polygon fill="#FFDB05" points="140.6,122.8 146.2,134 158.7,135.8 149.6,144.6 151.8,157 140.6,151.2 129.5,157 131.6,144.6 
	122.6,135.8 135.1,134 "/>
<polygon fill="#FFDB05" points="186.9,131.9 185.7,134.9 187.5,137.6 184.3,137.4 182.3,139.9 181.5,136.8 178.4,135.6 181.2,133.9 
	181.3,130.7 183.8,132.7 "/>
<polygon fill="#FFDB05" points="173.3,118.1 173.7,121.3 176.6,122.8 173.7,124.2 173.2,127.4 170.9,125 167.7,125.5 169.3,122.7 
	167.8,119.8 171,120.4 "/>
<polygon fill="#FFDB05" points="187.6,151 185.4,153.4 186.2,156.6 183.3,155.3 180.5,157 180.8,153.8 178.3,151.7 181.5,151 
	182.7,148 184.3,150.8 "/>
<polygon fill="#FFDB05" points="176.3,165 173.3,166.3 172.8,169.5 170.6,167.1 167.4,167.5 169,164.7 167.6,161.8 170.7,162.5 
	173.1,160.2 173.4,163.4 "/>
</svg>
