<?xml version="1.0" encoding="utf-8"?>
<!-- Generator: Adobe Illustrator 19.1.0, SVG Export Plug-In . SVG Version: 6.00 Build 0)  -->
<svg version="1.1" id="Camada_1" xmlns="http://www.w3.org/2000/svg" xmlns:xlink="http://www.w3.org/1999/xlink" x="0px" y="0px"
	 viewBox="0 0 352 163" style="enable-background:new 0 0 352 163;" xml:space="preserve">
<style type="text/css">
	.st0{fill:#FFFFFF;}
	.st1{fill:#CB4833;}
	.st2{font-family:'AkzidenzGroteskBQ-XBdCnd';}
	.st3{font-size:23.0682px;}
	.st4{fill:none;}
	.st5{font-family:'AkzidenzGroteskBQ-Light';}
	.st6{font-size:18.1255px;}
	.st7{font-size:21.1464px;}
	.st8{font-family:'AkzidenzGroteskBQ-LightIt';}
</style>
<g>
	<rect x="0" y="-0.2" class="st0" width="352.9" height="163.4"/>
</g>
<text transform="matrix(1 0 0 1 16.6871 29.1765)" class="st1 st2 st3">O que é a marcha atlética?</text>
<rect x="14.9" y="48.3" class="st4" width="331.7" height="94.4"/>
<text transform="matrix(1 0 0 1 14.944 61.0851)"><tspan x="0" y="0" class="st5 st6">A marcha atlética é uma prática desportiva</tspan><tspan x="0" y="21.8" class="st5 st6">inserida no Atletismo. Em poucas palavras, </tspan><tspan x="0" y="43.5" class="st5 st6">significa </tspan></text>
<rect x="71.8" y="89.7" class="st4" width="155.8" height="19.6"/>
<text transform="matrix(1 0 0 1 71.7877 104.6343)"><tspan x="0" y="0" class="st1 st5 st7"> </tspan><tspan x="5.5" y="0" class="st1 st8 st7">“andar depressa”</tspan></text>
<g>
	<text transform="matrix(1 0 0 1 14.9442 124.9489)"><tspan x="0" y="0" class="st5 st6">existe toda uma técnica com regras a ser</tspan><tspan x="0" y="21.8" class="st5 st6">cumpridas.</tspan></text>
</g>
<g>
	<rect x="218.5" y="92" class="st4" width="139.7" height="15.3"/>
	<text transform="matrix(1 0 0 1 218.5133 104.7984)" class="st5 st6">, no entanto, </text>
</g>
</svg>
