<?xml version="1.0" encoding="utf-8"?>
<!-- Generator: Adobe Illustrator 19.1.0, SVG Export Plug-In . SVG Version: 6.00 Build 0)  -->
<svg version="1.1" id="Camada_1" xmlns="http://www.w3.org/2000/svg" xmlns:xlink="http://www.w3.org/1999/xlink" x="0px" y="0px"
	 viewBox="0 0 420 176" style="enable-background:new 0 0 420 176;" xml:space="preserve">
<style type="text/css">
	.st0{fill:#92221C;}
	.st1{fill:#CA4832;}
	.st2{fill:#FFFFFF;}
	.st3{fill:#FFFFFF;stroke:#B1B1B1;stroke-width:0.5;stroke-miterlimit:10;}
	.st4{fill:#1D1D1B;}
</style>
<g>
	<circle class="st0" cx="43.2" cy="66.3" r="39.5"/>
	<circle class="st1" cx="41.8" cy="60.6" r="39.5"/>
	<circle class="st2" cx="41.8" cy="60.6" r="36"/>
	<path class="st0" d="M72.5,171.9l-4.3,1.1c-0.8,0.2-1.6-0.3-1.8-1.1l-17.3-68c-0.2-0.8,0.3-1.6,1.1-1.8l4.3-1.1
		c0.8-0.2,1.6,0.3,1.8,1.1l17.3,68.1C73.7,170.9,73.2,171.7,72.5,171.9z"/>
	<polyline class="st1" points="51.3,62.2 35.6,88.5 34.6,84.8 50.2,57.6 23.7,41.8 22.6,37.4 49,53.1 54.8,56.6 	"/>
</g>
<polyline class="st3" points="415.8,4.6 61.8,4.6 134.5,50.9 134.5,109.4 415.8,109.4 415.8,4.4 "/>
<path class="st3" d="M134.5,4.4"/>
<g>
	<path class="st4" d="M174.1,40.3v1.1h-8.6V28.6h8.4v1.1h-7.2v4.6h6.2v1.1h-6.2v4.9H174.1z"/>
	<path class="st4" d="M179.2,41.6c-0.7,0-1.4-0.1-2.1-0.4c-0.7-0.2-1.3-0.6-1.8-1l0.6-0.8c0.5,0.4,1.1,0.8,1.6,1
		c0.5,0.2,1.1,0.3,1.8,0.3c0.8,0,1.4-0.2,1.8-0.5c0.5-0.3,0.7-0.7,0.7-1.3c0-0.3-0.1-0.5-0.2-0.7c-0.1-0.2-0.3-0.3-0.5-0.5
		c-0.2-0.1-0.5-0.2-0.9-0.4s-0.8-0.2-1.2-0.3c-0.5-0.1-1-0.3-1.4-0.4c-0.4-0.1-0.7-0.3-1-0.4c-0.3-0.2-0.5-0.4-0.6-0.6
		c-0.1-0.2-0.2-0.6-0.2-0.9c0-0.5,0.1-0.9,0.3-1.2s0.4-0.7,0.8-0.9s0.7-0.4,1.1-0.5c0.4-0.1,0.9-0.2,1.4-0.2c0.7,0,1.4,0.1,2,0.4
		s1.1,0.5,1.4,0.9l-0.6,0.7c-0.3-0.4-0.8-0.6-1.3-0.8s-1-0.3-1.6-0.3c-0.3,0-0.6,0-0.9,0.1s-0.5,0.2-0.7,0.3s-0.4,0.3-0.5,0.5
		c-0.1,0.2-0.2,0.5-0.2,0.8c0,0.3,0,0.5,0.1,0.6c0.1,0.2,0.2,0.3,0.4,0.4c0.2,0.1,0.4,0.2,0.7,0.3c0.3,0.1,0.7,0.2,1.1,0.3
		c0.6,0.1,1.1,0.3,1.6,0.4c0.5,0.1,0.8,0.3,1.1,0.5s0.5,0.4,0.7,0.7c0.2,0.3,0.2,0.6,0.2,1c0,0.9-0.3,1.5-1,2.1
		C181.2,41.3,180.3,41.6,179.2,41.6z"/>
	<path class="st4" d="M189.4,40.9c-0.1,0-0.2,0.1-0.3,0.1c-0.1,0.1-0.3,0.1-0.5,0.2c-0.2,0.1-0.4,0.1-0.6,0.2s-0.5,0.1-0.7,0.1
		c-0.3,0-0.5,0-0.8-0.1c-0.2-0.1-0.5-0.2-0.6-0.3c-0.2-0.1-0.3-0.3-0.4-0.6c-0.1-0.2-0.2-0.5-0.2-0.8V33H184v-1h1.3v-3.2h1.2V32h2.2
		v1h-2.2v6.4c0,0.3,0.1,0.6,0.4,0.8s0.5,0.2,0.8,0.2c0.3,0,0.7-0.1,0.9-0.2c0.3-0.1,0.4-0.2,0.5-0.2L189.4,40.9z"/>
	<path class="st4" d="M194.7,41.6c-0.7,0-1.3-0.1-1.9-0.4c-0.6-0.3-1.1-0.6-1.5-1.1c-0.4-0.5-0.7-1-1-1.6c-0.2-0.6-0.4-1.2-0.4-1.9
		c0-0.7,0.1-1.3,0.4-1.9c0.2-0.6,0.6-1.1,1-1.5s0.9-0.8,1.5-1c0.6-0.3,1.2-0.4,1.9-0.4c0.7,0,1.3,0.1,1.9,0.4
		c0.6,0.3,1.1,0.6,1.5,1.1c0.4,0.4,0.7,1,1,1.5c0.2,0.6,0.3,1.2,0.3,1.8c0,0.1,0,0.2,0,0.3s0,0.2,0,0.2h-8c0,0.5,0.2,1,0.4,1.4
		c0.2,0.4,0.5,0.8,0.8,1.1c0.3,0.3,0.7,0.6,1.1,0.7c0.4,0.2,0.8,0.3,1.3,0.3c0.3,0,0.6,0,0.9-0.1c0.3-0.1,0.6-0.2,0.8-0.3
		s0.5-0.3,0.7-0.5c0.2-0.2,0.4-0.4,0.5-0.7l1.1,0.3c-0.1,0.3-0.3,0.7-0.6,0.9c-0.3,0.3-0.6,0.5-0.9,0.7c-0.3,0.2-0.7,0.4-1.2,0.5
		C195.6,41.5,195.2,41.6,194.7,41.6z M198.2,36.2c0-0.5-0.2-1-0.4-1.4c-0.2-0.4-0.4-0.8-0.8-1.1s-0.7-0.5-1.1-0.7
		c-0.4-0.2-0.8-0.3-1.3-0.3s-0.9,0.1-1.3,0.3c-0.4,0.2-0.8,0.4-1.1,0.7c-0.3,0.3-0.6,0.7-0.7,1.1s-0.3,0.9-0.3,1.4H198.2z"/>
	<path class="st4" d="M208.9,41.6c-0.7,0-1.4-0.1-2.1-0.4c-0.7-0.2-1.3-0.6-1.8-1l0.6-0.8c0.5,0.4,1.1,0.8,1.6,1
		c0.5,0.2,1.1,0.3,1.8,0.3c0.8,0,1.4-0.2,1.8-0.5c0.4-0.3,0.7-0.7,0.7-1.3c0-0.3-0.1-0.5-0.2-0.7c-0.1-0.2-0.3-0.3-0.5-0.5
		c-0.2-0.1-0.5-0.2-0.9-0.4s-0.8-0.2-1.2-0.3c-0.5-0.1-1-0.3-1.4-0.4c-0.4-0.1-0.7-0.3-1-0.4c-0.3-0.2-0.5-0.4-0.6-0.6
		c-0.1-0.2-0.2-0.6-0.2-0.9c0-0.5,0.1-0.9,0.3-1.2s0.4-0.7,0.8-0.9s0.7-0.4,1.1-0.5c0.4-0.1,0.9-0.2,1.4-0.2c0.7,0,1.4,0.1,2,0.4
		s1.1,0.5,1.4,0.9l-0.6,0.7c-0.3-0.4-0.8-0.6-1.3-0.8s-1-0.3-1.6-0.3c-0.3,0-0.6,0-0.9,0.1s-0.5,0.2-0.7,0.3s-0.4,0.3-0.5,0.5
		c-0.1,0.2-0.2,0.5-0.2,0.8c0,0.3,0,0.5,0.1,0.6c0.1,0.2,0.2,0.3,0.4,0.4c0.2,0.1,0.4,0.2,0.7,0.3c0.3,0.1,0.7,0.2,1.1,0.3
		c0.6,0.1,1.1,0.3,1.6,0.4c0.5,0.1,0.8,0.3,1.1,0.5s0.5,0.4,0.7,0.7c0.2,0.3,0.2,0.6,0.2,1c0,0.9-0.3,1.5-1,2.1
		C210.9,41.3,210.1,41.6,208.9,41.6z"/>
	<path class="st4" d="M215.3,30.2l-0.8-0.3l1.1-1.7h1.3L215.3,30.2z M214.6,41.4V32h1.2v9.4H214.6z"/>
	<path class="st4" d="M232.5,41.4h-1.2v-5.2c0-1.1-0.2-1.9-0.5-2.4s-0.9-0.8-1.5-0.8c-0.4,0-0.7,0.1-1,0.2c-0.3,0.1-0.6,0.3-0.9,0.6
		c-0.3,0.2-0.5,0.5-0.7,0.9s-0.4,0.7-0.5,1.1v5.7h-1.2v-5.2c0-1.1-0.2-1.9-0.5-2.4c-0.3-0.5-0.9-0.8-1.5-0.8c-0.7,0-1.3,0.2-1.9,0.7
		c-0.6,0.5-0.9,1.1-1.2,1.9v5.7h-1.2V32h1.1v2.1c0.4-0.7,0.9-1.3,1.5-1.7c0.6-0.4,1.3-0.6,2.1-0.6c0.8,0,1.4,0.2,1.9,0.7
		c0.5,0.4,0.8,1,0.9,1.7c0.9-1.6,2.1-2.4,3.6-2.4c0.5,0,1,0.1,1.3,0.3s0.7,0.5,0.9,0.8c0.2,0.4,0.4,0.8,0.5,1.3s0.2,1.1,0.2,1.7
		V41.4z"/>
	<path class="st4" d="M239.6,41.6c-0.7,0-1.4-0.2-2-0.6s-1.1-0.9-1.4-1.4v1.8h-1.1V28.2h1.2V34c0.4-0.6,0.9-1.1,1.5-1.5
		c0.6-0.4,1.3-0.6,2.1-0.6c0.7,0,1.3,0.1,1.8,0.4c0.5,0.3,1,0.6,1.3,1.1c0.4,0.5,0.6,1,0.8,1.6c0.2,0.6,0.3,1.2,0.3,1.8
		c0,0.7-0.1,1.3-0.3,1.9c-0.2,0.6-0.5,1.1-0.9,1.5s-0.9,0.8-1.4,1S240.3,41.6,239.6,41.6z M239.4,40.5c0.5,0,1-0.1,1.4-0.3
		s0.8-0.5,1.1-0.8c0.3-0.4,0.5-0.8,0.7-1.2c0.2-0.4,0.3-0.9,0.3-1.4c0-0.5-0.1-1-0.2-1.4s-0.4-0.9-0.7-1.2c-0.3-0.4-0.6-0.6-1.1-0.8
		s-0.9-0.3-1.4-0.3c-0.4,0-0.7,0.1-1,0.2s-0.6,0.3-0.9,0.5c-0.3,0.2-0.5,0.5-0.7,0.7c-0.2,0.3-0.4,0.6-0.5,0.9v2.9
		c0,0.3,0.2,0.6,0.4,0.9c0.2,0.3,0.5,0.5,0.8,0.7c0.3,0.2,0.6,0.4,1,0.5C238.7,40.4,239,40.5,239.4,40.5z"/>
	<path class="st4" d="M250.2,41.6c-0.7,0-1.3-0.1-1.9-0.4c-0.6-0.3-1.1-0.6-1.5-1.1s-0.7-1-1-1.5c-0.2-0.6-0.3-1.2-0.3-1.9
		c0-0.7,0.1-1.3,0.4-1.9c0.2-0.6,0.6-1.1,1-1.5c0.4-0.4,0.9-0.8,1.5-1.1c0.6-0.3,1.2-0.4,1.9-0.4s1.3,0.1,1.9,0.4
		c0.6,0.3,1.1,0.6,1.5,1.1c0.4,0.4,0.7,1,1,1.5c0.2,0.6,0.4,1.2,0.4,1.9c0,0.6-0.1,1.3-0.3,1.9c-0.2,0.6-0.5,1.1-1,1.5
		s-0.9,0.8-1.5,1.1S250.8,41.6,250.2,41.6z M246.8,36.7c0,0.5,0.1,1,0.3,1.5c0.2,0.4,0.4,0.8,0.7,1.2c0.3,0.3,0.7,0.6,1.1,0.8
		s0.9,0.3,1.3,0.3c0.5,0,0.9-0.1,1.3-0.3c0.4-0.2,0.8-0.5,1.1-0.8c0.3-0.3,0.6-0.7,0.7-1.2c0.2-0.5,0.3-0.9,0.3-1.5
		c0-0.5-0.1-1-0.3-1.5s-0.4-0.9-0.7-1.2s-0.7-0.6-1.1-0.8c-0.4-0.2-0.9-0.3-1.3-0.3c-0.5,0-0.9,0.1-1.3,0.3
		c-0.4,0.2-0.8,0.5-1.1,0.8c-0.3,0.3-0.6,0.8-0.7,1.2C246.8,35.7,246.8,36.2,246.8,36.7z"/>
	<path class="st4" d="M256.9,28.2h1.2v11c0,0.3,0.1,0.6,0.3,0.8c0.2,0.2,0.5,0.3,0.8,0.3c0.1,0,0.3,0,0.5-0.1c0.2,0,0.3-0.1,0.5-0.1
		l0.2,1c-0.2,0.1-0.5,0.2-0.8,0.2c-0.3,0.1-0.6,0.1-0.9,0.1c-0.6,0-1-0.2-1.3-0.5c-0.3-0.3-0.5-0.8-0.5-1.3V28.2z"/>
	<path class="st4" d="M265.8,41.6c-0.7,0-1.3-0.1-1.9-0.4c-0.6-0.3-1.1-0.6-1.5-1.1s-0.7-1-1-1.5c-0.2-0.6-0.3-1.2-0.3-1.9
		c0-0.7,0.1-1.3,0.4-1.9c0.2-0.6,0.6-1.1,1-1.5c0.4-0.4,0.9-0.8,1.5-1.1c0.6-0.3,1.2-0.4,1.9-0.4s1.3,0.1,1.9,0.4
		c0.6,0.3,1.1,0.6,1.5,1.1c0.4,0.4,0.7,1,1,1.5c0.2,0.6,0.4,1.2,0.4,1.9c0,0.6-0.1,1.3-0.3,1.9c-0.2,0.6-0.5,1.1-1,1.5
		s-0.9,0.8-1.5,1.1S266.4,41.6,265.8,41.6z M262.4,36.7c0,0.5,0.1,1,0.3,1.5c0.2,0.4,0.4,0.8,0.7,1.2c0.3,0.3,0.7,0.6,1.1,0.8
		s0.9,0.3,1.3,0.3c0.5,0,0.9-0.1,1.3-0.3c0.4-0.2,0.8-0.5,1.1-0.8c0.3-0.3,0.6-0.7,0.7-1.2c0.2-0.5,0.3-0.9,0.3-1.5
		c0-0.5-0.1-1-0.3-1.5s-0.4-0.9-0.7-1.2s-0.7-0.6-1.1-0.8c-0.4-0.2-0.9-0.3-1.3-0.3c-0.5,0-0.9,0.1-1.3,0.3
		c-0.4,0.2-0.8,0.5-1.1,0.8c-0.3,0.3-0.6,0.8-0.7,1.2C262.4,35.7,262.4,36.2,262.4,36.7z"/>
	<path class="st4" d="M280.2,41.6c-0.7,0-1.4-0.1-2.1-0.4c-0.7-0.2-1.3-0.6-1.8-1l0.6-0.8c0.5,0.4,1.1,0.8,1.6,1
		c0.5,0.2,1.1,0.3,1.8,0.3c0.8,0,1.4-0.2,1.8-0.5c0.4-0.3,0.7-0.7,0.7-1.3c0-0.3-0.1-0.5-0.2-0.7c-0.1-0.2-0.3-0.3-0.5-0.5
		c-0.2-0.1-0.5-0.2-0.9-0.4c-0.4-0.1-0.8-0.2-1.2-0.3c-0.5-0.1-1-0.3-1.4-0.4c-0.4-0.1-0.7-0.3-1-0.4c-0.3-0.2-0.5-0.4-0.6-0.6
		c-0.1-0.2-0.2-0.6-0.2-0.9c0-0.5,0.1-0.9,0.3-1.2s0.4-0.7,0.8-0.9s0.7-0.4,1.1-0.5s0.9-0.2,1.4-0.2c0.7,0,1.4,0.1,2,0.4
		s1.1,0.5,1.4,0.9l-0.6,0.7c-0.3-0.4-0.8-0.6-1.3-0.8s-1-0.3-1.6-0.3c-0.3,0-0.6,0-0.9,0.1s-0.5,0.2-0.7,0.3
		c-0.2,0.1-0.4,0.3-0.5,0.5c-0.1,0.2-0.2,0.5-0.2,0.8c0,0.3,0,0.5,0.1,0.6c0.1,0.2,0.2,0.3,0.4,0.4c0.2,0.1,0.4,0.2,0.7,0.3
		c0.3,0.1,0.7,0.2,1.1,0.3c0.6,0.1,1.1,0.3,1.6,0.4c0.5,0.1,0.8,0.3,1.1,0.5s0.5,0.4,0.7,0.7c0.2,0.3,0.2,0.6,0.2,1
		c0,0.9-0.3,1.5-1,2.1C282.2,41.3,281.3,41.6,280.2,41.6z"/>
	<path class="st4" d="M285.8,30v-1.8h1.2V30H285.8z M285.8,41.4V32h1.2v9.4H285.8z"/>
	<path class="st4" d="M293.5,41.5c-0.6,0-1.2-0.1-1.8-0.4s-1-0.6-1.4-1.1c-0.4-0.4-0.7-1-0.9-1.5c-0.2-0.6-0.3-1.2-0.3-1.8
		c0-0.6,0.1-1.3,0.3-1.9c0.2-0.6,0.5-1.1,0.9-1.6c0.4-0.4,0.8-0.8,1.4-1.1c0.5-0.3,1.1-0.4,1.8-0.4c0.8,0,1.5,0.2,2.1,0.6
		c0.6,0.4,1.1,0.9,1.5,1.5v-2h1.1v9.4c0,0.6-0.1,1.2-0.4,1.7s-0.6,0.9-1,1.3s-0.9,0.6-1.5,0.8c-0.6,0.2-1.1,0.3-1.8,0.3
		c-1.1,0-2-0.2-2.6-0.6c-0.7-0.4-1.2-0.9-1.6-1.5l0.8-0.6c0.4,0.6,0.9,1,1.5,1.3c0.6,0.3,1.3,0.4,2,0.4c0.5,0,0.9-0.1,1.3-0.2
		s0.8-0.3,1.1-0.6s0.5-0.6,0.7-0.9s0.3-0.8,0.3-1.3v-1.9c-0.4,0.6-0.9,1.1-1.5,1.4S294.2,41.5,293.5,41.5z M293.9,40.5
		c0.4,0,0.7-0.1,1.1-0.2c0.3-0.1,0.7-0.3,0.9-0.5s0.5-0.5,0.7-0.7c0.2-0.3,0.3-0.6,0.4-0.8v-2.9c-0.1-0.3-0.3-0.6-0.5-0.9
		s-0.5-0.5-0.8-0.7c-0.3-0.2-0.6-0.4-0.9-0.5c-0.3-0.1-0.7-0.2-1-0.2c-0.5,0-1,0.1-1.4,0.3s-0.8,0.5-1.1,0.9
		c-0.3,0.4-0.5,0.8-0.7,1.2s-0.2,0.9-0.2,1.4c0,0.5,0.1,1,0.3,1.4c0.2,0.5,0.4,0.9,0.7,1.2c0.3,0.3,0.7,0.6,1.1,0.8
		C292.9,40.4,293.4,40.5,293.9,40.5z"/>
	<path class="st4" d="M308.8,41.4h-1.2v-5.2c0-1.1-0.2-1.9-0.5-2.4c-0.3-0.5-0.8-0.8-1.5-0.8c-0.4,0-0.7,0.1-1.1,0.2
		c-0.4,0.1-0.7,0.3-1,0.6c-0.3,0.2-0.6,0.5-0.8,0.9s-0.4,0.7-0.5,1.1v5.7h-1.2V32h1.1v2.1c0.4-0.7,0.9-1.2,1.6-1.7
		c0.7-0.4,1.5-0.6,2.3-0.6c0.5,0,1,0.1,1.3,0.3c0.4,0.2,0.6,0.5,0.9,0.8s0.4,0.8,0.5,1.3s0.1,1.1,0.1,1.7V41.4z"/>
	<path class="st4" d="M311.4,30v-1.8h1.2V30H311.4z M311.4,41.4V32h1.2v9.4H311.4z"/>
	<path class="st4" d="M315.7,33h-1.3v-1h1.3v-0.3c0-0.4,0.1-0.9,0.2-1.3c0.1-0.4,0.3-0.8,0.6-1.2c0.3-0.3,0.6-0.6,1-0.9
		s0.9-0.3,1.5-0.3c0.3,0,0.6,0,0.9,0.1c0.3,0.1,0.5,0.1,0.8,0.2c0.2,0.1,0.4,0.2,0.6,0.3s0.3,0.2,0.4,0.3l-0.6,0.9
		c-0.2-0.2-0.5-0.3-0.9-0.5c-0.4-0.1-0.8-0.2-1.2-0.2c-0.4,0-0.7,0.1-1,0.2c-0.3,0.2-0.5,0.4-0.7,0.6c-0.2,0.2-0.3,0.5-0.4,0.8
		s-0.1,0.6-0.1,0.9V32h4.7v9.4h-1.2V33H317v8.4h-1.2V33z"/>
	<path class="st4" d="M323.7,36.7c0-0.7,0.1-1.3,0.3-1.9c0.2-0.6,0.5-1.1,1-1.5s0.9-0.8,1.5-1c0.6-0.3,1.2-0.4,1.9-0.4
		c0.9,0,1.7,0.2,2.3,0.6c0.7,0.4,1.2,0.9,1.5,1.6l-1.2,0.4c-0.3-0.5-0.6-0.9-1.1-1.1c-0.5-0.3-1-0.4-1.6-0.4c-0.5,0-0.9,0.1-1.3,0.3
		s-0.8,0.5-1.1,0.8c-0.3,0.3-0.5,0.7-0.7,1.2c-0.2,0.5-0.3,1-0.3,1.5c0,0.5,0.1,1,0.3,1.5c0.2,0.5,0.4,0.9,0.7,1.2
		c0.3,0.3,0.7,0.6,1.1,0.8c0.4,0.2,0.9,0.3,1.3,0.3c0.3,0,0.6,0,0.9-0.1c0.3-0.1,0.6-0.2,0.8-0.4c0.3-0.1,0.5-0.3,0.6-0.5
		c0.2-0.2,0.3-0.4,0.4-0.6l1.2,0.4c-0.1,0.3-0.3,0.6-0.6,0.9s-0.5,0.5-0.9,0.7c-0.3,0.2-0.7,0.4-1.1,0.5c-0.4,0.1-0.8,0.2-1.3,0.2
		c-0.7,0-1.3-0.1-1.9-0.4s-1.1-0.6-1.5-1.1s-0.7-1-1-1.6C323.8,38,323.7,37.3,323.7,36.7z"/>
	<path class="st4" d="M336.6,41.6c-0.4,0-0.9-0.1-1.2-0.2s-0.7-0.4-1-0.6c-0.3-0.3-0.5-0.6-0.7-0.9s-0.2-0.7-0.2-1.1
		c0-0.4,0.1-0.8,0.3-1.1c0.2-0.3,0.5-0.6,0.8-0.9s0.8-0.4,1.2-0.6c0.5-0.1,1-0.2,1.6-0.2c0.5,0,1,0,1.5,0.1s0.9,0.2,1.3,0.4v-0.8
		c0-0.8-0.2-1.5-0.7-2c-0.5-0.5-1.1-0.7-1.9-0.7c-0.5,0-1,0.1-1.5,0.3s-1,0.5-1.5,0.8l-0.4-0.8c1.2-0.8,2.4-1.2,3.5-1.2
		c1.2,0,2.1,0.3,2.8,1c0.7,0.7,1,1.6,1,2.7v4.2c0,0.3,0.1,0.5,0.5,0.5v1.1c-0.2,0-0.4,0.1-0.5,0.1c-0.3,0-0.6-0.1-0.7-0.2
		c-0.2-0.2-0.3-0.4-0.3-0.6l0-0.7c-0.4,0.6-1,1-1.6,1.3C338.1,41.4,337.4,41.6,336.6,41.6z M336.9,40.6c0.6,0,1.2-0.1,1.8-0.4
		c0.5-0.2,0.9-0.6,1.2-1c0.1-0.1,0.2-0.2,0.2-0.4c0.1-0.1,0.1-0.2,0.1-0.4v-1.5c-0.4-0.2-0.8-0.3-1.3-0.4c-0.4-0.1-0.9-0.1-1.3-0.1
		c-0.9,0-1.6,0.2-2.1,0.5c-0.5,0.4-0.8,0.8-0.8,1.4c0,0.3,0.1,0.6,0.2,0.8c0.1,0.3,0.3,0.5,0.5,0.7s0.4,0.3,0.7,0.4
		S336.6,40.6,336.9,40.6z"/>
	<path class="st4" d="M352.3,41.6c-0.6,0-1.2-0.1-1.7-0.4c-0.5-0.3-1-0.6-1.3-1.1c-0.4-0.4-0.7-1-0.9-1.5c-0.2-0.6-0.3-1.2-0.3-1.8
		c0-0.6,0.1-1.3,0.3-1.9c0.2-0.6,0.5-1.1,0.9-1.5c0.4-0.4,0.9-0.8,1.4-1.1c0.5-0.3,1.1-0.4,1.8-0.4c0.4,0,0.7,0.1,1.1,0.2
		c0.3,0.1,0.7,0.2,1,0.4c0.3,0.2,0.6,0.4,0.8,0.6c0.2,0.2,0.5,0.5,0.6,0.8V32h1.1v11.6c0,0.3,0.2,0.5,0.5,0.5v1.1
		c-0.1,0-0.2,0-0.4,0c-0.1,0-0.2,0-0.3,0c-0.3,0-0.5-0.1-0.7-0.4c-0.2-0.2-0.3-0.5-0.3-0.7v-4.7c-0.5,0.7-1,1.2-1.6,1.6
		C353.6,41.4,353,41.6,352.3,41.6z M352.6,40.5c0.4,0,0.7-0.1,1-0.2c0.3-0.1,0.6-0.3,0.9-0.5c0.3-0.2,0.5-0.4,0.7-0.7
		c0.2-0.3,0.4-0.6,0.6-0.9v-2.9c0-0.3-0.2-0.6-0.4-0.9c-0.2-0.3-0.5-0.6-0.7-0.8c-0.3-0.2-0.6-0.4-1-0.5c-0.3-0.1-0.7-0.2-1-0.2
		c-0.5,0-1,0.1-1.4,0.3c-0.4,0.2-0.8,0.5-1.1,0.9s-0.5,0.8-0.7,1.2s-0.3,0.9-0.3,1.4c0,0.5,0.1,1,0.3,1.4c0.2,0.5,0.4,0.9,0.7,1.2
		c0.3,0.3,0.7,0.6,1.1,0.8C351.7,40.4,352.2,40.5,352.6,40.5z"/>
	<path class="st4" d="M362.7,41.6c-1,0-1.8-0.3-2.3-1c-0.5-0.7-0.7-1.7-0.7-3V32h1.2v5.3c0,2.1,0.7,3.2,2.2,3.2
		c0.4,0,0.7-0.1,1.1-0.2c0.3-0.1,0.7-0.3,1-0.5c0.3-0.2,0.6-0.5,0.8-0.8c0.2-0.3,0.4-0.7,0.6-1.1V32h1.2v7.8c0,0.3,0.1,0.5,0.4,0.5
		v1.1c-0.1,0-0.3,0-0.4,0s-0.2,0-0.2,0c-0.3,0-0.5-0.1-0.7-0.3s-0.3-0.5-0.3-0.8v-1.1c-0.4,0.7-1,1.3-1.7,1.7
		C364.2,41.4,363.5,41.6,362.7,41.6z"/>
	<path class="st4" d="M374.5,41.6c-0.7,0-1.3-0.1-1.9-0.4s-1.1-0.6-1.5-1.1c-0.4-0.5-0.7-1-1-1.6c-0.2-0.6-0.4-1.2-0.4-1.9
		c0-0.7,0.1-1.3,0.4-1.9c0.2-0.6,0.6-1.1,1-1.5s0.9-0.8,1.5-1c0.6-0.3,1.2-0.4,1.9-0.4c0.7,0,1.3,0.1,1.9,0.4
		c0.6,0.3,1.1,0.6,1.5,1.1c0.4,0.4,0.7,1,1,1.5c0.2,0.6,0.3,1.2,0.3,1.8c0,0.1,0,0.2,0,0.3s0,0.2,0,0.2h-8c0,0.5,0.2,1,0.4,1.4
		c0.2,0.4,0.5,0.8,0.8,1.1c0.3,0.3,0.7,0.6,1.1,0.7c0.4,0.2,0.8,0.3,1.3,0.3c0.3,0,0.6,0,0.9-0.1s0.6-0.2,0.8-0.3s0.5-0.3,0.7-0.5
		c0.2-0.2,0.4-0.4,0.5-0.7l1.1,0.3c-0.1,0.3-0.3,0.7-0.6,0.9c-0.3,0.3-0.6,0.5-0.9,0.7c-0.3,0.2-0.7,0.4-1.2,0.5
		C375.4,41.5,375,41.6,374.5,41.6z M378,36.2c0-0.5-0.2-1-0.4-1.4c-0.2-0.4-0.5-0.8-0.8-1.1c-0.3-0.3-0.7-0.5-1.1-0.7
		s-0.8-0.3-1.3-0.3s-0.9,0.1-1.3,0.3c-0.4,0.2-0.8,0.4-1.1,0.7c-0.3,0.3-0.6,0.7-0.7,1.1c-0.2,0.4-0.3,0.9-0.3,1.4H378z"/>
	<path class="st4" d="M169.2,63.2c-0.7,0-1.3-0.1-1.9-0.4c-0.6-0.3-1.1-0.6-1.5-1.1s-0.7-1-1-1.5c-0.2-0.6-0.3-1.2-0.3-1.9
		c0-0.7,0.1-1.3,0.4-1.9c0.2-0.6,0.6-1.1,1-1.5c0.4-0.4,0.9-0.8,1.5-1.1c0.6-0.3,1.2-0.4,1.9-0.4c0.7,0,1.3,0.1,1.9,0.4
		c0.6,0.3,1.1,0.6,1.5,1.1c0.4,0.4,0.7,1,1,1.5c0.2,0.6,0.4,1.2,0.4,1.9c0,0.6-0.1,1.3-0.3,1.9c-0.2,0.6-0.5,1.1-1,1.5
		s-0.9,0.8-1.5,1.1C170.6,63,169.9,63.2,169.2,63.2z M165.8,58.3c0,0.5,0.1,1,0.3,1.5c0.2,0.4,0.4,0.8,0.7,1.2
		c0.3,0.3,0.7,0.6,1.1,0.8s0.9,0.3,1.3,0.3c0.5,0,0.9-0.1,1.3-0.3c0.4-0.2,0.8-0.5,1.1-0.8c0.3-0.3,0.6-0.7,0.7-1.2
		c0.2-0.5,0.3-0.9,0.3-1.5c0-0.5-0.1-1-0.3-1.5c-0.2-0.5-0.4-0.9-0.7-1.2s-0.7-0.6-1.1-0.8c-0.4-0.2-0.9-0.3-1.3-0.3
		c-0.5,0-0.9,0.1-1.3,0.3c-0.4,0.2-0.8,0.5-1.1,0.8c-0.3,0.3-0.6,0.8-0.7,1.2C165.9,57.3,165.8,57.8,165.8,58.3z"/>
	<path class="st4" d="M182.9,63.2c-0.4,0-0.9-0.1-1.2-0.2s-0.7-0.4-1-0.6c-0.3-0.3-0.5-0.6-0.7-0.9c-0.2-0.4-0.2-0.7-0.2-1.1
		c0-0.4,0.1-0.8,0.3-1.1c0.2-0.3,0.5-0.6,0.8-0.9s0.8-0.4,1.2-0.6c0.5-0.1,1-0.2,1.6-0.2c0.5,0,1,0,1.5,0.1c0.5,0.1,0.9,0.2,1.3,0.4
		v-0.8c0-0.8-0.2-1.5-0.7-2c-0.5-0.5-1.1-0.7-1.9-0.7c-0.5,0-1,0.1-1.5,0.3s-1,0.5-1.5,0.8l-0.4-0.8c1.2-0.8,2.4-1.2,3.5-1.2
		c1.2,0,2.1,0.3,2.8,1c0.7,0.7,1,1.6,1,2.7v4.2c0,0.3,0.1,0.5,0.4,0.5V63c-0.2,0-0.4,0.1-0.5,0.1c-0.3,0-0.6-0.1-0.7-0.2
		c-0.2-0.2-0.3-0.4-0.3-0.6l0-0.7c-0.4,0.6-1,1-1.6,1.3C184.4,63,183.7,63.2,182.9,63.2z M183.2,62.2c0.6,0,1.2-0.1,1.8-0.4
		c0.5-0.2,0.9-0.6,1.2-1c0.1-0.1,0.2-0.2,0.2-0.4s0.1-0.2,0.1-0.4v-1.5c-0.4-0.2-0.8-0.3-1.3-0.4c-0.4-0.1-0.9-0.1-1.3-0.1
		c-0.9,0-1.6,0.2-2.1,0.5c-0.5,0.4-0.8,0.8-0.8,1.4c0,0.3,0.1,0.6,0.2,0.8c0.1,0.3,0.3,0.5,0.5,0.7c0.2,0.2,0.4,0.3,0.7,0.4
		C182.6,62.2,182.9,62.2,183.2,62.2z"/>
	<path class="st4" d="M194.8,62.5c-0.1,0-0.2,0.1-0.3,0.1c-0.1,0.1-0.3,0.1-0.5,0.2c-0.2,0.1-0.4,0.1-0.6,0.2s-0.5,0.1-0.7,0.1
		c-0.3,0-0.5,0-0.8-0.1c-0.2-0.1-0.5-0.2-0.6-0.3c-0.2-0.1-0.3-0.3-0.4-0.6c-0.1-0.2-0.2-0.5-0.2-0.8v-6.7h-1.3v-1h1.3v-3.2h1.2v3.2
		h2.2v1h-2.2v6.4c0,0.3,0.1,0.6,0.4,0.8s0.5,0.2,0.8,0.2c0.3,0,0.7-0.1,0.9-0.2c0.3-0.1,0.4-0.2,0.5-0.2L194.8,62.5z"/>
	<path class="st4" d="M196.4,49.8h1.2v11c0,0.3,0.1,0.6,0.3,0.8c0.2,0.2,0.5,0.3,0.8,0.3c0.1,0,0.3,0,0.5-0.1c0.2,0,0.3-0.1,0.5-0.1
		l0.2,1c-0.2,0.1-0.5,0.2-0.8,0.2c-0.3,0.1-0.6,0.1-0.9,0.1c-0.6,0-1-0.2-1.3-0.5c-0.3-0.3-0.5-0.8-0.5-1.3V49.8z"/>
	<path class="st4" d="M205.3,63.2c-0.7,0-1.3-0.1-1.9-0.4c-0.6-0.3-1.1-0.6-1.5-1.1c-0.4-0.5-0.7-1-1-1.6c-0.2-0.6-0.4-1.2-0.4-1.9
		c0-0.7,0.1-1.3,0.4-1.9c0.2-0.6,0.6-1.1,1-1.5s0.9-0.8,1.5-1c0.6-0.3,1.2-0.4,1.9-0.4c0.7,0,1.3,0.1,1.9,0.4
		c0.6,0.3,1.1,0.6,1.5,1.1c0.4,0.4,0.7,1,1,1.5c0.2,0.6,0.3,1.2,0.3,1.8c0,0.1,0,0.2,0,0.3s0,0.2,0,0.2h-8c0,0.5,0.2,1,0.4,1.4
		c0.2,0.4,0.5,0.8,0.8,1.1c0.3,0.3,0.7,0.6,1.1,0.7c0.4,0.2,0.8,0.3,1.3,0.3c0.3,0,0.6,0,0.9-0.1c0.3-0.1,0.6-0.2,0.8-0.3
		s0.5-0.3,0.7-0.5c0.2-0.2,0.4-0.4,0.5-0.7l1.1,0.3c-0.1,0.3-0.3,0.7-0.6,0.9c-0.3,0.3-0.6,0.5-0.9,0.7c-0.3,0.2-0.7,0.4-1.2,0.5
		C206.2,63.1,205.7,63.2,205.3,63.2z M208.7,57.8c0-0.5-0.2-1-0.4-1.4c-0.2-0.4-0.4-0.8-0.8-1.1s-0.7-0.5-1.1-0.7
		c-0.4-0.2-0.8-0.3-1.3-0.3s-0.9,0.1-1.3,0.3c-0.4,0.2-0.8,0.4-1.1,0.7c-0.3,0.3-0.6,0.7-0.7,1.1s-0.3,0.9-0.3,1.4H208.7z"/>
	<path class="st4" d="M216.2,62.5c-0.1,0-0.2,0.1-0.3,0.1c-0.1,0.1-0.3,0.1-0.5,0.2S215,63,214.8,63c-0.2,0-0.5,0.1-0.7,0.1
		c-0.3,0-0.5,0-0.8-0.1s-0.4-0.2-0.6-0.3c-0.2-0.1-0.3-0.3-0.4-0.6s-0.2-0.5-0.2-0.8v-6.7h-1.3v-1h1.3v-3.2h1.2v3.2h2.2v1h-2.2v6.4
		c0,0.3,0.1,0.6,0.4,0.8s0.5,0.2,0.8,0.2c0.3,0,0.7-0.1,0.9-0.2c0.3-0.1,0.4-0.2,0.5-0.2L216.2,62.5z"/>
	<path class="st4" d="M220.1,63.2c-0.4,0-0.9-0.1-1.2-0.2s-0.7-0.4-1-0.6c-0.3-0.3-0.5-0.6-0.7-0.9c-0.2-0.4-0.2-0.7-0.2-1.1
		c0-0.4,0.1-0.8,0.3-1.1c0.2-0.3,0.5-0.6,0.8-0.9s0.8-0.4,1.2-0.6c0.5-0.1,1-0.2,1.6-0.2c0.5,0,1,0,1.5,0.1c0.5,0.1,0.9,0.2,1.3,0.4
		v-0.8c0-0.8-0.2-1.5-0.7-2c-0.5-0.5-1.1-0.7-1.9-0.7c-0.5,0-1,0.1-1.5,0.3s-1,0.5-1.5,0.8l-0.4-0.8c1.2-0.8,2.4-1.2,3.5-1.2
		c1.2,0,2.1,0.3,2.8,1c0.7,0.7,1,1.6,1,2.7v4.2c0,0.3,0.2,0.5,0.4,0.5V63c-0.2,0-0.4,0.1-0.5,0.1c-0.3,0-0.6-0.1-0.7-0.2
		c-0.2-0.2-0.3-0.4-0.3-0.6l0-0.7c-0.4,0.6-1,1-1.6,1.3S220.8,63.2,220.1,63.2z M220.4,62.2c0.6,0,1.2-0.1,1.8-0.4
		c0.5-0.2,0.9-0.6,1.2-1c0.1-0.1,0.2-0.2,0.2-0.4c0.1-0.1,0.1-0.2,0.1-0.4v-1.5c-0.4-0.2-0.8-0.3-1.3-0.4c-0.4-0.1-0.9-0.1-1.3-0.1
		c-0.9,0-1.6,0.2-2.1,0.5c-0.5,0.4-0.8,0.8-0.8,1.4c0,0.3,0.1,0.6,0.2,0.8s0.3,0.5,0.5,0.7c0.2,0.2,0.4,0.3,0.7,0.4
		C219.8,62.2,220.1,62.2,220.4,62.2z"/>
	<path class="st4" d="M241.3,62.8c0,0-0.1,0-0.2,0.1c-0.1,0-0.2,0.1-0.4,0.1c-0.2,0-0.3,0.1-0.5,0.1c-0.2,0-0.4,0-0.6,0
		c-0.6,0-1-0.2-1.3-0.5s-0.5-0.7-0.5-1.2v-8.7c0-0.2,0-0.5-0.1-0.7c-0.1-0.2-0.2-0.4-0.3-0.6s-0.4-0.3-0.6-0.5
		c-0.2-0.1-0.6-0.2-0.9-0.2c-0.4,0-0.7,0.1-0.9,0.2c-0.3,0.1-0.5,0.3-0.6,0.6s-0.3,0.5-0.4,0.8s-0.1,0.7-0.1,1v0.2h2v1h-2V63h-1.2
		v-8.4h-1.3v-1h1.3v-0.3c0-0.5,0.1-1,0.2-1.4s0.3-0.8,0.6-1.1c0.3-0.3,0.6-0.6,1-0.7c0.4-0.2,0.9-0.3,1.4-0.3c0.5,0,1,0.1,1.4,0.2
		c0.4,0.1,0.7,0.3,1,0.6c0.3,0.3,0.5,0.5,0.6,0.9c0.1,0.3,0.2,0.7,0.2,1.1v8.4c0,0.3,0.1,0.5,0.2,0.7s0.4,0.4,0.7,0.4
		c0.2,0,0.5,0,0.7-0.1s0.4-0.1,0.4-0.1L241.3,62.8z"/>
	<path class="st4" d="M246.7,63.2c-0.7,0-1.3-0.1-1.9-0.4s-1.1-0.6-1.5-1.1c-0.4-0.5-0.7-1-1-1.6c-0.2-0.6-0.4-1.2-0.4-1.9
		c0-0.7,0.1-1.3,0.4-1.9c0.2-0.6,0.6-1.1,1-1.5s0.9-0.8,1.5-1c0.6-0.3,1.2-0.4,1.9-0.4c0.7,0,1.3,0.1,1.9,0.4
		c0.6,0.3,1.1,0.6,1.5,1.1c0.4,0.4,0.7,1,1,1.5c0.2,0.6,0.3,1.2,0.3,1.8c0,0.1,0,0.2,0,0.3s0,0.2,0,0.2h-8c0,0.5,0.2,1,0.4,1.4
		c0.2,0.4,0.5,0.8,0.8,1.1c0.3,0.3,0.7,0.6,1.1,0.7c0.4,0.2,0.8,0.3,1.3,0.3c0.3,0,0.6,0,0.9-0.1s0.6-0.2,0.8-0.3s0.5-0.3,0.7-0.5
		c0.2-0.2,0.4-0.4,0.5-0.7l1.1,0.3c-0.1,0.3-0.3,0.7-0.6,0.9c-0.3,0.3-0.6,0.5-0.9,0.7c-0.3,0.2-0.7,0.4-1.2,0.5
		C247.6,63.1,247.1,63.2,246.7,63.2z M250.1,57.8c0-0.5-0.2-1-0.4-1.4c-0.2-0.4-0.5-0.8-0.8-1.1c-0.3-0.3-0.7-0.5-1.1-0.7
		s-0.8-0.3-1.3-0.3s-0.9,0.1-1.3,0.3c-0.4,0.2-0.8,0.4-1.1,0.7c-0.3,0.3-0.6,0.7-0.7,1.1c-0.2,0.4-0.3,0.9-0.3,1.4H250.1z"/>
	<path class="st4" d="M252.5,58.3c0-0.7,0.1-1.3,0.3-1.9s0.5-1.1,1-1.5s0.9-0.8,1.5-1s1.2-0.4,1.9-0.4c0.9,0,1.7,0.2,2.3,0.6
		c0.7,0.4,1.2,0.9,1.5,1.6l-1.2,0.4c-0.3-0.5-0.6-0.9-1.1-1.1s-1-0.4-1.6-0.4c-0.5,0-0.9,0.1-1.3,0.3s-0.8,0.5-1.1,0.8
		c-0.3,0.3-0.5,0.7-0.7,1.2s-0.3,1-0.3,1.5c0,0.5,0.1,1,0.3,1.5c0.2,0.5,0.4,0.9,0.7,1.2c0.3,0.3,0.7,0.6,1.1,0.8
		c0.4,0.2,0.9,0.3,1.3,0.3c0.3,0,0.6,0,0.9-0.1s0.6-0.2,0.8-0.4s0.5-0.3,0.6-0.5c0.2-0.2,0.3-0.4,0.4-0.6l1.2,0.4
		c-0.1,0.3-0.3,0.6-0.6,0.9s-0.5,0.5-0.9,0.7c-0.3,0.2-0.7,0.4-1.1,0.5c-0.4,0.1-0.8,0.2-1.3,0.2c-0.7,0-1.3-0.1-1.9-0.4
		c-0.6-0.3-1.1-0.6-1.5-1.1c-0.4-0.5-0.7-1-1-1.6C252.7,59.6,252.5,58.9,252.5,58.3z"/>
	<path class="st4" d="M267.6,62.5c-0.1,0-0.2,0.1-0.3,0.1c-0.1,0.1-0.3,0.1-0.5,0.2s-0.4,0.1-0.6,0.2c-0.2,0-0.5,0.1-0.7,0.1
		c-0.3,0-0.5,0-0.8-0.1s-0.4-0.2-0.6-0.3c-0.2-0.1-0.3-0.3-0.4-0.6s-0.2-0.5-0.2-0.8v-6.7h-1.3v-1h1.3v-3.2h1.2v3.2h2.2v1h-2.2v6.4
		c0,0.3,0.1,0.6,0.4,0.8s0.5,0.2,0.8,0.2c0.3,0,0.7-0.1,0.9-0.2c0.3-0.1,0.4-0.2,0.5-0.2L267.6,62.5z"/>
	<path class="st4" d="M269.1,51.6v-1.8h1.2v1.8H269.1z M269.1,63v-9.4h1.2V63H269.1z"/>
	<path class="st4" d="M276,63.2c-1,0-1.8-0.3-2.3-1c-0.5-0.7-0.7-1.7-0.7-3v-5.5h1.2v5.3c0,2.1,0.7,3.2,2.2,3.2
		c0.4,0,0.7-0.1,1.1-0.2c0.3-0.1,0.7-0.3,1-0.5c0.3-0.2,0.6-0.5,0.8-0.8c0.2-0.3,0.4-0.7,0.6-1.1v-5.9h1.2v7.8
		c0,0.3,0.1,0.5,0.4,0.5V63c-0.1,0-0.3,0-0.4,0s-0.2,0-0.2,0c-0.3,0-0.5-0.1-0.7-0.3c-0.2-0.2-0.3-0.5-0.3-0.8v-1.1
		c-0.4,0.7-1,1.3-1.7,1.7S276.8,63.2,276,63.2z"/>
	<path class="st4" d="M292.3,63.2c-0.7,0-1.3-0.1-1.9-0.4c-0.6-0.3-1.1-0.6-1.5-1.1s-0.7-1-1-1.5c-0.2-0.6-0.3-1.2-0.3-1.9
		c0-0.7,0.1-1.3,0.4-1.9c0.2-0.6,0.6-1.1,1-1.5c0.4-0.4,0.9-0.8,1.5-1.1c0.6-0.3,1.2-0.4,1.9-0.4s1.3,0.1,1.9,0.4
		c0.6,0.3,1.1,0.6,1.5,1.1c0.4,0.4,0.7,1,1,1.5c0.2,0.6,0.4,1.2,0.4,1.9c0,0.6-0.1,1.3-0.3,1.9c-0.2,0.6-0.5,1.1-1,1.5
		s-0.9,0.8-1.5,1.1S293,63.2,292.3,63.2z M288.9,58.3c0,0.5,0.1,1,0.3,1.5c0.2,0.4,0.4,0.8,0.7,1.2c0.3,0.3,0.7,0.6,1.1,0.8
		s0.9,0.3,1.3,0.3c0.5,0,0.9-0.1,1.3-0.3c0.4-0.2,0.8-0.5,1.1-0.8c0.3-0.3,0.6-0.7,0.7-1.2c0.2-0.5,0.3-0.9,0.3-1.5
		c0-0.5-0.1-1-0.3-1.5s-0.4-0.9-0.7-1.2s-0.7-0.6-1.1-0.8c-0.4-0.2-0.9-0.3-1.3-0.3c-0.5,0-0.9,0.1-1.3,0.3
		c-0.4,0.2-0.8,0.5-1.1,0.8c-0.3,0.3-0.6,0.8-0.7,1.2C289,57.3,288.9,57.8,288.9,58.3z"/>
	<path class="st4" d="M302.2,66.2c-0.4,0-0.8-0.1-1.1-0.2c-0.3-0.1-0.7-0.3-0.9-0.5l0.6-0.8c0.2,0.2,0.4,0.3,0.6,0.3
		s0.5,0.1,0.7,0.1c0.2,0,0.4,0,0.6-0.1c0.2-0.1,0.4-0.2,0.5-0.4c0.2-0.2,0.3-0.3,0.4-0.5c0.1-0.2,0.1-0.4,0.1-0.7v-9.9h1.2v9.8
		c0,0.4-0.1,0.8-0.2,1.2s-0.4,0.6-0.6,0.9s-0.6,0.4-0.9,0.6C302.9,66.2,302.6,66.2,302.2,66.2z M303.7,51.6v-1.8h1.2v1.8H303.7z"/>
	<path class="st4" d="M311.7,63.2c-0.7,0-1.3-0.1-1.9-0.4c-0.6-0.3-1.1-0.6-1.5-1.1s-0.7-1-1-1.5c-0.2-0.6-0.3-1.2-0.3-1.9
		c0-0.7,0.1-1.3,0.4-1.9c0.2-0.6,0.6-1.1,1-1.5c0.4-0.4,0.9-0.8,1.5-1.1c0.6-0.3,1.2-0.4,1.9-0.4s1.3,0.1,1.9,0.4
		c0.6,0.3,1.1,0.6,1.5,1.1c0.4,0.4,0.7,1,1,1.5c0.2,0.6,0.4,1.2,0.4,1.9c0,0.6-0.1,1.3-0.3,1.9c-0.2,0.6-0.5,1.1-1,1.5
		s-0.9,0.8-1.5,1.1S312.3,63.2,311.7,63.2z M308.3,58.3c0,0.5,0.1,1,0.3,1.5c0.2,0.4,0.4,0.8,0.7,1.2c0.3,0.3,0.7,0.6,1.1,0.8
		s0.9,0.3,1.3,0.3c0.5,0,0.9-0.1,1.3-0.3c0.4-0.2,0.8-0.5,1.1-0.8c0.3-0.3,0.6-0.7,0.7-1.2c0.2-0.5,0.3-0.9,0.3-1.5
		c0-0.5-0.1-1-0.3-1.5s-0.4-0.9-0.7-1.2s-0.7-0.6-1.1-0.8c-0.4-0.2-0.9-0.3-1.3-0.3c-0.5,0-0.9,0.1-1.3,0.3
		c-0.4,0.2-0.8,0.5-1.1,0.8c-0.3,0.3-0.6,0.8-0.7,1.2C308.3,57.3,308.3,57.8,308.3,58.3z"/>
	<path class="st4" d="M322.4,63.2c-0.7,0-1.3-0.1-1.9-0.4s-1.1-0.6-1.5-1.1c-0.4-0.5-0.7-1-1-1.6c-0.2-0.6-0.4-1.2-0.4-1.9
		c0-0.7,0.1-1.3,0.4-1.9c0.2-0.6,0.6-1.1,1-1.5s0.9-0.8,1.5-1c0.6-0.3,1.2-0.4,1.9-0.4c0.7,0,1.3,0.1,1.9,0.4
		c0.6,0.3,1.1,0.6,1.5,1.1c0.4,0.4,0.7,1,1,1.5c0.2,0.6,0.3,1.2,0.3,1.8c0,0.1,0,0.2,0,0.3s0,0.2,0,0.2h-8c0,0.5,0.2,1,0.4,1.4
		c0.2,0.4,0.5,0.8,0.8,1.1c0.3,0.3,0.7,0.6,1.1,0.7c0.4,0.2,0.8,0.3,1.3,0.3c0.3,0,0.6,0,0.9-0.1s0.6-0.2,0.8-0.3s0.5-0.3,0.7-0.5
		c0.2-0.2,0.4-0.4,0.5-0.7l1.1,0.3c-0.1,0.3-0.3,0.7-0.6,0.9c-0.3,0.3-0.6,0.5-0.9,0.7c-0.3,0.2-0.7,0.4-1.2,0.5
		C323.3,63.1,322.9,63.2,322.4,63.2z M325.9,57.8c0-0.5-0.2-1-0.4-1.4c-0.2-0.4-0.5-0.8-0.8-1.1c-0.3-0.3-0.7-0.5-1.1-0.7
		s-0.8-0.3-1.3-0.3s-0.9,0.1-1.3,0.3c-0.4,0.2-0.8,0.4-1.1,0.7c-0.3,0.3-0.6,0.7-0.7,1.1c-0.2,0.4-0.3,0.9-0.3,1.4H325.9z"/>
	<path class="st4" d="M329,49.8h1.2v11c0,0.3,0.1,0.6,0.3,0.8c0.2,0.2,0.5,0.3,0.8,0.3c0.1,0,0.3,0,0.5-0.1c0.2,0,0.3-0.1,0.5-0.1
		l0.2,1c-0.2,0.1-0.5,0.2-0.8,0.2c-0.3,0.1-0.6,0.1-0.9,0.1c-0.6,0-1-0.2-1.3-0.5c-0.3-0.3-0.5-0.8-0.5-1.3V49.8z"/>
	<path class="st4" d="M341.7,63h-1.2v-5.2c0-1.1-0.2-1.9-0.5-2.4c-0.4-0.5-0.9-0.8-1.6-0.8c-0.3,0-0.7,0.1-1,0.2
		c-0.3,0.1-0.7,0.3-1,0.6c-0.3,0.2-0.6,0.5-0.8,0.8c-0.2,0.3-0.4,0.7-0.5,1.1V63h-1.2V49.8h1.2v5.9c0.4-0.7,0.9-1.3,1.5-1.7
		c0.7-0.4,1.4-0.6,2.1-0.6c0.5,0,1,0.1,1.4,0.3c0.4,0.2,0.7,0.5,0.9,0.8s0.4,0.8,0.5,1.3c0.1,0.5,0.2,1,0.2,1.6V63z"/>
	<path class="st4" d="M348.3,63.2c-0.7,0-1.3-0.1-1.9-0.4s-1.1-0.6-1.5-1.1s-0.7-1-1-1.5c-0.2-0.6-0.3-1.2-0.3-1.9
		c0-0.7,0.1-1.3,0.4-1.9c0.2-0.6,0.6-1.1,1-1.5c0.4-0.4,0.9-0.8,1.5-1.1c0.6-0.3,1.2-0.4,1.9-0.4c0.7,0,1.3,0.1,1.9,0.4
		c0.6,0.3,1.1,0.6,1.5,1.1c0.4,0.4,0.7,1,1,1.5c0.2,0.6,0.4,1.2,0.4,1.9c0,0.6-0.1,1.3-0.3,1.9c-0.2,0.6-0.5,1.1-1,1.5
		s-0.9,0.8-1.5,1.1C349.6,63,349,63.2,348.3,63.2z M344.9,58.3c0,0.5,0.1,1,0.3,1.5c0.2,0.4,0.4,0.8,0.7,1.2
		c0.3,0.3,0.7,0.6,1.1,0.8s0.9,0.3,1.3,0.3c0.5,0,0.9-0.1,1.3-0.3c0.4-0.2,0.8-0.5,1.1-0.8c0.3-0.3,0.6-0.7,0.7-1.2
		c0.2-0.5,0.3-0.9,0.3-1.5c0-0.5-0.1-1-0.3-1.5c-0.2-0.5-0.4-0.9-0.7-1.2s-0.7-0.6-1.1-0.8c-0.4-0.2-0.9-0.3-1.3-0.3
		c-0.5,0-0.9,0.1-1.3,0.3c-0.4,0.2-0.8,0.5-1.1,0.8c-0.3,0.3-0.6,0.8-0.7,1.2S344.9,57.8,344.9,58.3z"/>
	<path class="st4" d="M363.5,63.2c-0.6,0-1.2-0.1-1.8-0.4c-0.6-0.3-1-0.6-1.4-1.1c-0.4-0.4-0.7-1-0.9-1.5c-0.2-0.6-0.3-1.2-0.3-1.8
		c0-0.7,0.1-1.3,0.3-1.9c0.2-0.6,0.5-1.1,0.9-1.6c0.4-0.4,0.8-0.8,1.3-1.1c0.5-0.3,1.1-0.4,1.7-0.4c0.8,0,1.5,0.2,2.1,0.6
		c0.6,0.4,1.1,0.9,1.4,1.5v-5.7h1.2v11.6c0,0.3,0.1,0.5,0.4,0.5V63c-0.2,0-0.3,0.1-0.4,0.1c-0.3,0-0.5-0.1-0.8-0.3
		c-0.2-0.2-0.3-0.4-0.3-0.7v-0.9c-0.4,0.6-0.9,1.1-1.5,1.5C364.8,63,364.2,63.2,363.5,63.2z M363.8,62.1c0.3,0,0.6-0.1,1-0.2
		c0.3-0.1,0.7-0.3,1-0.5c0.3-0.2,0.6-0.5,0.8-0.7c0.2-0.3,0.3-0.6,0.4-0.9v-2.9c-0.1-0.3-0.3-0.6-0.5-0.9c-0.2-0.3-0.5-0.5-0.8-0.7
		c-0.3-0.2-0.6-0.4-0.9-0.5s-0.7-0.2-1-0.2c-0.5,0-1,0.1-1.4,0.3c-0.4,0.2-0.8,0.5-1.1,0.9c-0.3,0.4-0.5,0.8-0.7,1.2
		s-0.2,0.9-0.2,1.4c0,0.5,0.1,1,0.3,1.4c0.2,0.5,0.4,0.9,0.7,1.2c0.3,0.3,0.7,0.6,1.1,0.8C362.8,62,363.3,62.1,363.8,62.1z"/>
	<path class="st4" d="M373.2,63.2c-0.4,0-0.9-0.1-1.2-0.2s-0.7-0.4-1-0.6c-0.3-0.3-0.5-0.6-0.7-0.9s-0.2-0.7-0.2-1.1
		c0-0.4,0.1-0.8,0.3-1.1c0.2-0.3,0.5-0.6,0.8-0.9s0.8-0.4,1.2-0.6c0.5-0.1,1-0.2,1.6-0.2c0.5,0,1,0,1.5,0.1s0.9,0.2,1.3,0.4v-0.8
		c0-0.8-0.2-1.5-0.7-2c-0.5-0.5-1.1-0.7-1.9-0.7c-0.5,0-1,0.1-1.5,0.3s-1,0.5-1.5,0.8l-0.4-0.8c1.2-0.8,2.4-1.2,3.5-1.2
		c1.2,0,2.1,0.3,2.8,1c0.7,0.7,1,1.6,1,2.7v4.2c0,0.3,0.1,0.5,0.5,0.5V63c-0.2,0-0.4,0.1-0.5,0.1c-0.3,0-0.6-0.1-0.7-0.2
		c-0.2-0.2-0.3-0.4-0.3-0.6l0-0.7c-0.4,0.6-1,1-1.6,1.3C374.6,63,373.9,63.2,373.2,63.2z M373.5,62.2c0.6,0,1.2-0.1,1.8-0.4
		c0.5-0.2,0.9-0.6,1.2-1c0.1-0.1,0.2-0.2,0.2-0.4c0.1-0.1,0.1-0.2,0.1-0.4v-1.5c-0.4-0.2-0.8-0.3-1.3-0.4c-0.4-0.1-0.9-0.1-1.3-0.1
		c-0.9,0-1.6,0.2-2.1,0.5c-0.5,0.4-0.8,0.8-0.8,1.4c0,0.3,0.1,0.6,0.2,0.8c0.1,0.3,0.3,0.5,0.5,0.7s0.4,0.3,0.7,0.4
		S373.2,62.2,373.5,62.2z"/>
	<path class="st4" d="M170,84.8c-0.8,0-1.5-0.2-2.1-0.6s-1.1-0.9-1.5-1.5v5.8h-1.2V75.2h1.1V77c0.4-0.6,0.9-1.1,1.5-1.4
		c0.6-0.4,1.3-0.5,2-0.5c0.6,0,1.2,0.1,1.8,0.4c0.5,0.3,1,0.6,1.4,1.1c0.4,0.5,0.7,1,0.9,1.6c0.2,0.6,0.3,1.2,0.3,1.8
		c0,0.7-0.1,1.3-0.3,1.9c-0.2,0.6-0.5,1.1-0.9,1.5s-0.8,0.8-1.4,1.1S170.7,84.8,170,84.8z M169.7,83.7c0.5,0,1-0.1,1.4-0.3
		c0.4-0.2,0.8-0.5,1.1-0.9c0.3-0.4,0.5-0.8,0.7-1.2c0.2-0.4,0.2-0.9,0.2-1.4c0-0.5-0.1-1-0.3-1.4c-0.2-0.5-0.4-0.9-0.7-1.2
		c-0.3-0.3-0.7-0.6-1.1-0.8s-0.9-0.3-1.4-0.3c-0.3,0-0.6,0.1-1,0.2c-0.3,0.1-0.7,0.3-1,0.5s-0.5,0.5-0.8,0.7
		c-0.2,0.3-0.3,0.6-0.4,0.9v2.9c0.1,0.3,0.3,0.6,0.5,0.9c0.2,0.3,0.5,0.5,0.8,0.7c0.3,0.2,0.6,0.4,0.9,0.5
		C169,83.6,169.3,83.7,169.7,83.7z"/>
	<path class="st4" d="M180.4,84.8c-0.7,0-1.3-0.1-1.9-0.4c-0.6-0.3-1.1-0.6-1.5-1.1c-0.4-0.5-0.7-1-1-1.6c-0.2-0.6-0.4-1.2-0.4-1.9
		c0-0.7,0.1-1.3,0.4-1.9c0.2-0.6,0.6-1.1,1-1.5s0.9-0.8,1.5-1c0.6-0.3,1.2-0.4,1.9-0.4c0.7,0,1.3,0.1,1.9,0.4
		c0.6,0.3,1.1,0.6,1.5,1.1c0.4,0.4,0.7,1,1,1.5c0.2,0.6,0.3,1.2,0.3,1.8c0,0.1,0,0.2,0,0.3s0,0.2,0,0.2h-8c0,0.5,0.2,1,0.4,1.4
		c0.2,0.4,0.5,0.8,0.8,1.1c0.3,0.3,0.7,0.6,1.1,0.7c0.4,0.2,0.8,0.3,1.3,0.3c0.3,0,0.6,0,0.9-0.1c0.3-0.1,0.6-0.2,0.8-0.3
		s0.5-0.3,0.7-0.5c0.2-0.2,0.4-0.4,0.5-0.7l1.1,0.3c-0.1,0.3-0.3,0.7-0.6,0.9c-0.3,0.3-0.6,0.5-0.9,0.7c-0.3,0.2-0.7,0.4-1.2,0.5
		C181.3,84.7,180.9,84.8,180.4,84.8z M183.9,79.4c0-0.5-0.2-1-0.4-1.4c-0.2-0.4-0.4-0.8-0.8-1.1s-0.7-0.5-1.1-0.7
		c-0.4-0.2-0.8-0.3-1.3-0.3s-0.9,0.1-1.3,0.3c-0.4,0.2-0.8,0.4-1.1,0.7c-0.3,0.3-0.6,0.7-0.7,1.1s-0.3,0.9-0.3,1.4H183.9z"/>
	<path class="st4" d="M191.6,76.3c-0.8,0-1.5,0.3-2.2,0.7c-0.6,0.4-1,1-1.3,1.8v5.8h-1.2v-9.4h1.2v2.3c0.3-0.7,0.8-1.3,1.4-1.7
		c0.6-0.4,1.2-0.6,1.9-0.6c0.1,0,0.2,0,0.2,0V76.3z"/>
	<path class="st4" d="M201.1,84.6h-1.2v-5.2c0-1.1-0.2-1.9-0.5-2.4c-0.3-0.5-0.8-0.8-1.5-0.8c-0.4,0-0.7,0.1-1.1,0.2
		c-0.4,0.1-0.7,0.3-1,0.6c-0.3,0.2-0.6,0.5-0.8,0.9c-0.2,0.3-0.4,0.7-0.5,1.1v5.7h-1.2v-9.4h1.1v2.1c0.4-0.7,0.9-1.2,1.6-1.7
		c0.7-0.4,1.5-0.6,2.3-0.6c0.5,0,1,0.1,1.3,0.3c0.4,0.2,0.6,0.5,0.9,0.8c0.2,0.3,0.4,0.8,0.5,1.3s0.1,1.1,0.1,1.7V84.6z"/>
	<path class="st4" d="M206.1,84.8c-0.4,0-0.9-0.1-1.2-0.2s-0.7-0.4-1-0.6c-0.3-0.3-0.5-0.6-0.7-0.9c-0.2-0.4-0.2-0.7-0.2-1.1
		c0-0.4,0.1-0.8,0.3-1.1c0.2-0.3,0.5-0.6,0.8-0.9s0.8-0.4,1.2-0.6c0.5-0.1,1-0.2,1.6-0.2c0.5,0,1,0,1.5,0.1c0.5,0.1,0.9,0.2,1.3,0.4
		v-0.8c0-0.8-0.2-1.5-0.7-2c-0.5-0.5-1.1-0.7-1.9-0.7c-0.5,0-1,0.1-1.5,0.3s-1,0.5-1.5,0.8l-0.4-0.8c1.2-0.8,2.4-1.2,3.5-1.2
		c1.2,0,2.1,0.3,2.8,1c0.7,0.7,1,1.6,1,2.7V83c0,0.3,0.2,0.5,0.5,0.5v1.1c-0.2,0-0.4,0.1-0.5,0.1c-0.3,0-0.6-0.1-0.7-0.2
		c-0.2-0.2-0.3-0.4-0.3-0.6l0-0.7c-0.4,0.6-1,1-1.6,1.3C207.6,84.6,206.8,84.8,206.1,84.8z M206.4,83.8c0.6,0,1.2-0.1,1.8-0.4
		c0.5-0.2,0.9-0.6,1.2-1c0.1-0.1,0.2-0.2,0.2-0.4s0.1-0.2,0.1-0.4v-1.5c-0.4-0.2-0.8-0.3-1.3-0.4c-0.4-0.1-0.9-0.1-1.3-0.1
		c-0.9,0-1.6,0.2-2.1,0.5c-0.5,0.4-0.8,0.8-0.8,1.4c0,0.3,0.1,0.6,0.2,0.8c0.1,0.3,0.3,0.5,0.5,0.7c0.2,0.2,0.4,0.3,0.7,0.4
		C205.8,83.8,206.1,83.8,206.4,83.8z"/>
	<path class="st4" d="M221.8,84.8c-0.6,0-1.2-0.1-1.7-0.4s-1-0.6-1.3-1.1c-0.4-0.4-0.7-1-0.9-1.5s-0.3-1.2-0.3-1.8
		c0-0.6,0.1-1.3,0.3-1.9c0.2-0.6,0.5-1.1,0.9-1.5c0.4-0.4,0.9-0.8,1.4-1.1c0.5-0.3,1.1-0.4,1.8-0.4c0.4,0,0.7,0.1,1.1,0.2
		c0.3,0.1,0.7,0.2,1,0.4c0.3,0.2,0.6,0.4,0.8,0.6c0.2,0.2,0.5,0.5,0.6,0.8v-1.8h1.1v11.6c0,0.3,0.1,0.5,0.4,0.5v1.1
		c-0.1,0-0.2,0-0.4,0s-0.2,0-0.3,0c-0.3,0-0.5-0.1-0.7-0.4s-0.3-0.5-0.3-0.7v-4.7c-0.5,0.7-1,1.2-1.6,1.6
		C223.1,84.6,222.5,84.8,221.8,84.8z M222.1,83.7c0.4,0,0.7-0.1,1-0.2c0.3-0.1,0.6-0.3,0.9-0.5c0.3-0.2,0.5-0.4,0.7-0.7
		s0.4-0.6,0.6-0.9v-2.9c0-0.3-0.2-0.6-0.4-0.9s-0.5-0.6-0.7-0.8c-0.3-0.2-0.6-0.4-1-0.5c-0.3-0.1-0.7-0.2-1-0.2
		c-0.5,0-1,0.1-1.4,0.3c-0.4,0.2-0.8,0.5-1.1,0.9c-0.3,0.4-0.5,0.8-0.7,1.2s-0.3,0.9-0.3,1.4c0,0.5,0.1,1,0.3,1.4
		c0.2,0.5,0.4,0.9,0.7,1.2c0.3,0.3,0.7,0.6,1.1,0.8C221.2,83.6,221.6,83.7,222.1,83.7z"/>
	<path class="st4" d="M232.2,84.8c-1,0-1.8-0.3-2.3-1c-0.5-0.7-0.7-1.7-0.7-3v-5.5h1.2v5.3c0,2.1,0.7,3.2,2.2,3.2
		c0.4,0,0.7-0.1,1.1-0.2c0.3-0.1,0.7-0.3,1-0.5c0.3-0.2,0.6-0.5,0.8-0.8c0.2-0.3,0.4-0.7,0.6-1.1v-5.9h1.2V83c0,0.3,0.1,0.5,0.4,0.5
		v1.1c-0.1,0-0.3,0-0.4,0s-0.2,0-0.2,0c-0.3,0-0.5-0.1-0.7-0.3s-0.3-0.5-0.3-0.8v-1.1c-0.4,0.7-1,1.3-1.7,1.7
		C233.7,84.6,233,84.8,232.2,84.8z"/>
	<path class="st4" d="M244,84.8c-0.7,0-1.3-0.1-1.9-0.4s-1.1-0.6-1.5-1.1c-0.4-0.5-0.7-1-1-1.6c-0.2-0.6-0.4-1.2-0.4-1.9
		c0-0.7,0.1-1.3,0.4-1.9c0.2-0.6,0.6-1.1,1-1.5s0.9-0.8,1.5-1c0.6-0.3,1.2-0.4,1.9-0.4c0.7,0,1.3,0.1,1.9,0.4
		c0.6,0.3,1.1,0.6,1.5,1.1c0.4,0.4,0.7,1,1,1.5c0.2,0.6,0.3,1.2,0.3,1.8c0,0.1,0,0.2,0,0.3s0,0.2,0,0.2h-8c0,0.5,0.2,1,0.4,1.4
		c0.2,0.4,0.5,0.8,0.8,1.1c0.3,0.3,0.7,0.6,1.1,0.7c0.4,0.2,0.8,0.3,1.3,0.3c0.3,0,0.6,0,0.9-0.1s0.6-0.2,0.8-0.3s0.5-0.3,0.7-0.5
		c0.2-0.2,0.4-0.4,0.5-0.7l1.1,0.3c-0.1,0.3-0.3,0.7-0.6,0.9c-0.3,0.3-0.6,0.5-0.9,0.7c-0.3,0.2-0.7,0.4-1.2,0.5
		C244.9,84.7,244.4,84.8,244,84.8z M247.4,79.4c0-0.5-0.2-1-0.4-1.4c-0.2-0.4-0.5-0.8-0.8-1.1c-0.3-0.3-0.7-0.5-1.1-0.7
		S244.4,76,244,76s-0.9,0.1-1.3,0.3c-0.4,0.2-0.8,0.4-1.1,0.7c-0.3,0.3-0.6,0.7-0.7,1.1c-0.2,0.4-0.3,0.9-0.3,1.4H247.4z"/>
	<path class="st4" d="M257.4,84.8c-0.4,0-0.9-0.1-1.2-0.2s-0.7-0.4-1-0.6c-0.3-0.3-0.5-0.6-0.7-0.9c-0.2-0.4-0.2-0.7-0.2-1.1
		c0-0.4,0.1-0.8,0.3-1.1c0.2-0.3,0.5-0.6,0.8-0.9s0.8-0.4,1.2-0.6c0.5-0.1,1-0.2,1.6-0.2c0.5,0,1,0,1.5,0.1c0.5,0.1,0.9,0.2,1.3,0.4
		v-0.8c0-0.8-0.2-1.5-0.7-2c-0.5-0.5-1.1-0.7-1.9-0.7c-0.5,0-1,0.1-1.5,0.3s-1,0.5-1.5,0.8l-0.4-0.8c1.2-0.8,2.4-1.2,3.5-1.2
		c1.2,0,2.1,0.3,2.8,1c0.7,0.7,1,1.6,1,2.7V83c0,0.3,0.2,0.5,0.4,0.5v1.1c-0.2,0-0.4,0.1-0.5,0.1c-0.3,0-0.6-0.1-0.7-0.2
		c-0.2-0.2-0.3-0.4-0.3-0.6l0-0.7c-0.4,0.6-1,1-1.6,1.3S258.2,84.8,257.4,84.8z M257.7,83.8c0.6,0,1.2-0.1,1.8-0.4
		c0.5-0.2,0.9-0.6,1.2-1c0.1-0.1,0.2-0.2,0.2-0.4c0.1-0.1,0.1-0.2,0.1-0.4v-1.5c-0.4-0.2-0.8-0.3-1.3-0.4c-0.4-0.1-0.9-0.1-1.3-0.1
		c-0.9,0-1.6,0.2-2.1,0.5c-0.5,0.4-0.8,0.8-0.8,1.4c0,0.3,0.1,0.6,0.2,0.8s0.3,0.5,0.5,0.7c0.2,0.2,0.4,0.3,0.7,0.4
		C257.1,83.8,257.4,83.8,257.7,83.8z"/>
	<path class="st4" d="M267.5,84.6l-3.8-9.4h1.3l3.2,8.2l3.2-8.2h1.2l-3.8,9.4H267.5z"/>
	<path class="st4" d="M276.4,84.8c-0.4,0-0.9-0.1-1.2-0.2c-0.4-0.1-0.7-0.4-1-0.6c-0.3-0.3-0.5-0.6-0.7-0.9s-0.2-0.7-0.2-1.1
		c0-0.4,0.1-0.8,0.3-1.1c0.2-0.3,0.5-0.6,0.8-0.9c0.3-0.3,0.8-0.4,1.2-0.6c0.5-0.1,1-0.2,1.6-0.2c0.5,0,1,0,1.5,0.1
		c0.5,0.1,0.9,0.2,1.3,0.4v-0.8c0-0.8-0.2-1.5-0.7-2c-0.5-0.5-1.1-0.7-1.9-0.7c-0.5,0-1,0.1-1.5,0.3s-1,0.5-1.5,0.8l-0.4-0.8
		c1.2-0.8,2.4-1.2,3.5-1.2c1.2,0,2.1,0.3,2.8,1c0.7,0.7,1,1.6,1,2.7V83c0,0.3,0.2,0.5,0.5,0.5v1.1c-0.2,0-0.4,0.1-0.5,0.1
		c-0.3,0-0.6-0.1-0.7-0.2c-0.2-0.2-0.3-0.4-0.3-0.6l0-0.7c-0.4,0.6-1,1-1.6,1.3C277.8,84.6,277.1,84.8,276.4,84.8z M276.7,83.8
		c0.6,0,1.2-0.1,1.8-0.4c0.5-0.2,0.9-0.6,1.2-1c0.1-0.1,0.2-0.2,0.2-0.4s0.1-0.2,0.1-0.4v-1.5c-0.4-0.2-0.8-0.3-1.3-0.4
		c-0.4-0.1-0.9-0.1-1.3-0.1c-0.9,0-1.6,0.2-2.1,0.5c-0.5,0.4-0.8,0.8-0.8,1.4c0,0.3,0.1,0.6,0.2,0.8c0.1,0.3,0.3,0.5,0.5,0.7
		c0.2,0.2,0.4,0.3,0.7,0.4C276,83.8,276.3,83.8,276.7,83.8z"/>
	<path class="st4" d="M291.7,84.6h-1.2v-5.2c0-1.1-0.2-1.9-0.5-2.4c-0.3-0.5-0.8-0.8-1.5-0.8c-0.4,0-0.7,0.1-1.1,0.2
		c-0.4,0.1-0.7,0.3-1,0.6c-0.3,0.2-0.6,0.5-0.8,0.9s-0.4,0.7-0.5,1.1v5.7h-1.2v-9.4h1.1v2.1c0.4-0.7,0.9-1.2,1.6-1.7
		c0.7-0.4,1.5-0.6,2.3-0.6c0.5,0,1,0.1,1.3,0.3c0.4,0.2,0.6,0.5,0.9,0.8c0.2,0.3,0.4,0.8,0.5,1.3c0.1,0.5,0.1,1.1,0.1,1.7V84.6z"/>
	<path class="st4" d="M297,86.8c0.2,0.1,0.4,0.2,0.7,0.2c0.3,0.1,0.6,0.1,0.9,0.1c0.7,0,1-0.2,1-0.6c0-0.2-0.1-0.4-0.2-0.5
		c-0.2-0.1-0.4-0.1-0.7-0.1c-0.3,0-0.5,0-0.8,0.1c-0.3,0.1-0.5,0.1-0.6,0.2l0.8-1.4c-0.6,0-1.2-0.2-1.7-0.5c-0.5-0.3-1-0.6-1.4-1.1
		c-0.4-0.4-0.7-1-0.9-1.5c-0.2-0.6-0.3-1.2-0.3-1.8c0-0.7,0.1-1.3,0.3-1.9s0.5-1.1,1-1.5s0.9-0.8,1.5-1c0.6-0.3,1.2-0.4,1.9-0.4
		c0.9,0,1.7,0.2,2.3,0.6c0.7,0.4,1.2,0.9,1.5,1.6l-1.2,0.4c-0.3-0.5-0.6-0.9-1.1-1.1s-1-0.4-1.6-0.4c-0.5,0-0.9,0.1-1.3,0.3
		s-0.8,0.5-1.1,0.8c-0.3,0.3-0.5,0.7-0.7,1.2c-0.2,0.5-0.3,1-0.3,1.5c0,0.5,0.1,1,0.3,1.5c0.2,0.5,0.4,0.9,0.7,1.2
		c0.3,0.3,0.7,0.6,1.1,0.8c0.4,0.2,0.9,0.3,1.3,0.3c0.3,0,0.6,0,0.9-0.1s0.6-0.2,0.8-0.4c0.3-0.1,0.5-0.3,0.6-0.5
		c0.2-0.2,0.3-0.4,0.4-0.6l1.2,0.4c-0.3,0.6-0.7,1.2-1.3,1.6s-1.4,0.7-2.2,0.7l-0.5,0.8c0.1,0,0.2-0.1,0.4-0.1c0.1,0,0.2,0,0.3,0
		c0.4,0,0.8,0.1,1,0.3c0.2,0.2,0.4,0.5,0.4,0.8c0,0.4-0.2,0.7-0.5,0.9c-0.3,0.2-0.8,0.3-1.4,0.3c-0.3,0-0.7,0-1-0.1
		c-0.3-0.1-0.6-0.1-0.8-0.2L297,86.8z"/>
	<path class="st4" d="M306.5,84.8c-0.4,0-0.9-0.1-1.2-0.2c-0.4-0.1-0.7-0.4-1-0.6c-0.3-0.3-0.5-0.6-0.7-0.9s-0.2-0.7-0.2-1.1
		c0-0.4,0.1-0.8,0.3-1.1c0.2-0.3,0.5-0.6,0.8-0.9c0.3-0.3,0.8-0.4,1.2-0.6c0.5-0.1,1-0.2,1.6-0.2c0.5,0,1,0,1.5,0.1
		c0.5,0.1,0.9,0.2,1.3,0.4v-0.8c0-0.8-0.2-1.5-0.7-2c-0.5-0.5-1.1-0.7-1.9-0.7c-0.5,0-1,0.1-1.5,0.3s-1,0.5-1.5,0.8l-0.4-0.8
		c1.2-0.8,2.4-1.2,3.5-1.2c1.2,0,2.1,0.3,2.8,1c0.7,0.7,1,1.6,1,2.7V83c0,0.3,0.2,0.5,0.5,0.5v1.1c-0.2,0-0.4,0.1-0.5,0.1
		c-0.3,0-0.6-0.1-0.7-0.2c-0.2-0.2-0.3-0.4-0.3-0.6l0-0.7c-0.4,0.6-1,1-1.6,1.3C308,84.6,307.3,84.8,306.5,84.8z M306.8,83.8
		c0.6,0,1.2-0.1,1.8-0.4c0.5-0.2,0.9-0.6,1.2-1c0.1-0.1,0.2-0.2,0.2-0.4s0.1-0.2,0.1-0.4v-1.5c-0.4-0.2-0.8-0.3-1.3-0.4
		c-0.4-0.1-0.9-0.1-1.3-0.1c-0.9,0-1.6,0.2-2.1,0.5c-0.5,0.4-0.8,0.8-0.8,1.4c0,0.3,0.1,0.6,0.2,0.8c0.1,0.3,0.3,0.5,0.5,0.7
		c0.2,0.2,0.4,0.3,0.7,0.4C306.2,83.8,306.5,83.8,306.8,83.8z"/>
	<path class="st4" d="M313.8,84.6v-1.8h1.1v1.8H313.8z"/>
</g>
</svg>
