<?xml version="1.0" encoding="utf-8"?>
<!-- Generator: Adobe Illustrator 19.1.0, SVG Export Plug-In . SVG Version: 6.00 Build 0)  -->
<svg version="1.1" id="Camada_1" xmlns="http://www.w3.org/2000/svg" xmlns:xlink="http://www.w3.org/1999/xlink" x="0px" y="0px"
	 viewBox="0 0 420 176" style="enable-background:new 0 0 420 176;" xml:space="preserve">
<style type="text/css">
	.st0{fill:#FFFFFF;stroke:#B2B2B2;stroke-width:0.5;stroke-miterlimit:10;}
	.st1{fill:#92221C;}
	.st2{fill:#CA4832;}
	.st3{fill:#FFFFFF;}
	.st4{fill:#FFFFFF;stroke:#B1B1B1;stroke-width:0.5;stroke-miterlimit:10;}
	.st5{fill:#1D1D1B;}
</style>
<path class="st0" d="M514.1,72.6"/>
<g>
	<g>
		<circle class="st1" cx="375.9" cy="66.5" r="39.6"/>
		<circle class="st2" cx="377.4" cy="60.8" r="39.6"/>
		<circle class="st3" cx="377.4" cy="60.8" r="36.1"/>
		<path class="st1" d="M351.7,173.7l-4.4-1.1c-0.8-0.2-1.3-1-1.1-1.8l17.1-68.3c0.2-0.8,1-1.3,1.8-1.1l4.4,1.1
			c0.8,0.2,1.3,1,1.1,1.8l-17.1,68.3C353.3,173.4,352.5,173.9,351.7,173.7z"/>
		<g>
			<g>
				<g>
					<g>
						<path class="st2" d="M353.1,61.2"/>
					</g>
					<g>
						<path class="st2" d="M376.4,60.6c0.3-8.3-4.7-14.5-11.2-14.1c-6.1,0.4-11.4,6.8-12.1,14.6l-2.5-0.6
							c0.6-9.3,6.9-16.6,14.7-17.1c7.8-0.5,13.9,6.6,13.6,15.9l-0.1,1.2"/>
					</g>
				</g>
			</g>
			<g>
				<g>
					<g>
						<path class="st2" d="M378.9,60.5"/>
					</g>
					<g>
						<path class="st2" d="M402.1,60c-0.8,8.3-6.6,14.8-13,14.7c-6.1-0.1-10.6-6.3-10.3-14.1h-2.5c-0.9,9.3,4.7,17,12.5,17.2
							c7.8,0.2,14.8-7.3,15.6-16.6v-0.5"/>
					</g>
				</g>
			</g>
		</g>
	</g>
	<polyline class="st4" points="357.4,4.1 284.4,50.5 284.4,109.2 2.4,109.2 2.4,3.9 284.4,3.9 357.4,4.1 	"/>
</g>
<g>
	<path class="st5" d="M35.8,38.8v1.1h-8.6V27.1h8.4v1.1h-7.2v4.6h6.2v1.1h-6.2v4.9H35.8z"/>
	<path class="st5" d="M41,40.1c-0.7,0-1.4-0.1-2.1-0.4c-0.7-0.2-1.3-0.6-1.8-1l0.6-0.8c0.5,0.4,1.1,0.8,1.6,1s1.1,0.3,1.8,0.3
		c0.8,0,1.4-0.2,1.8-0.5c0.5-0.3,0.7-0.7,0.7-1.3c0-0.3-0.1-0.5-0.2-0.7s-0.3-0.3-0.5-0.5c-0.2-0.1-0.5-0.2-0.9-0.4
		c-0.4-0.1-0.8-0.2-1.2-0.3c-0.5-0.1-1-0.3-1.4-0.4c-0.4-0.1-0.7-0.3-1-0.5c-0.3-0.2-0.5-0.4-0.6-0.6c-0.1-0.2-0.2-0.6-0.2-0.9
		c0-0.5,0.1-0.9,0.3-1.2c0.2-0.4,0.4-0.7,0.8-0.9c0.3-0.2,0.7-0.4,1.1-0.5c0.4-0.1,0.9-0.2,1.4-0.2c0.7,0,1.4,0.1,2,0.4
		c0.6,0.2,1.1,0.5,1.4,0.9l-0.6,0.7c-0.3-0.4-0.8-0.6-1.3-0.8c-0.5-0.2-1-0.3-1.6-0.3c-0.3,0-0.6,0-0.9,0.1
		c-0.3,0.1-0.5,0.2-0.7,0.3c-0.2,0.1-0.4,0.3-0.5,0.5c-0.1,0.2-0.2,0.5-0.2,0.8c0,0.3,0,0.5,0.1,0.6c0.1,0.2,0.2,0.3,0.4,0.4
		s0.4,0.2,0.7,0.3c0.3,0.1,0.7,0.2,1.1,0.3c0.6,0.1,1.1,0.3,1.6,0.4c0.5,0.1,0.8,0.3,1.1,0.5c0.3,0.2,0.5,0.4,0.7,0.7
		c0.2,0.3,0.2,0.6,0.2,1c0,0.9-0.3,1.5-1,2.1S42.1,40.1,41,40.1z"/>
	<path class="st5" d="M51.1,39.5c-0.1,0-0.2,0.1-0.3,0.1c-0.1,0.1-0.3,0.1-0.5,0.2c-0.2,0.1-0.4,0.1-0.6,0.2C49.5,40,49.3,40,49,40
		c-0.3,0-0.5,0-0.8-0.1c-0.2-0.1-0.5-0.2-0.6-0.3s-0.3-0.3-0.4-0.6c-0.1-0.2-0.2-0.5-0.2-0.8v-6.7h-1.3v-1H47v-3.2h1.2v3.2h2.2v1
		h-2.2v6.4c0,0.3,0.1,0.6,0.4,0.8c0.2,0.2,0.5,0.2,0.8,0.2c0.3,0,0.7-0.1,0.9-0.2s0.4-0.2,0.5-0.2L51.1,39.5z"/>
	<path class="st5" d="M56.5,40.1c-0.7,0-1.3-0.1-1.9-0.4s-1.1-0.6-1.5-1.1c-0.4-0.5-0.7-1-1-1.6s-0.4-1.2-0.4-1.9
		c0-0.7,0.1-1.3,0.4-1.9s0.6-1.1,1-1.5c0.4-0.4,0.9-0.8,1.5-1s1.2-0.4,1.9-0.4c0.7,0,1.3,0.1,1.9,0.4s1.1,0.6,1.5,1.1
		c0.4,0.4,0.7,1,1,1.5s0.3,1.2,0.3,1.8c0,0.1,0,0.2,0,0.3c0,0.1,0,0.2,0,0.2h-8c0,0.5,0.2,1,0.4,1.4c0.2,0.4,0.5,0.8,0.8,1.1
		c0.3,0.3,0.7,0.6,1.1,0.7c0.4,0.2,0.8,0.3,1.3,0.3c0.3,0,0.6,0,0.9-0.1s0.6-0.2,0.8-0.3c0.3-0.1,0.5-0.3,0.7-0.5
		c0.2-0.2,0.4-0.4,0.5-0.7l1.1,0.3c-0.1,0.3-0.3,0.7-0.6,0.9c-0.3,0.3-0.6,0.5-0.9,0.7c-0.3,0.2-0.7,0.4-1.2,0.5
		S56.9,40.1,56.5,40.1z M59.9,34.7c0-0.5-0.2-1-0.4-1.4s-0.5-0.8-0.8-1.1c-0.3-0.3-0.7-0.5-1.1-0.7s-0.8-0.3-1.3-0.3
		s-0.9,0.1-1.3,0.3s-0.8,0.4-1.1,0.7c-0.3,0.3-0.6,0.7-0.7,1.1c-0.2,0.4-0.3,0.9-0.3,1.4H59.9z"/>
	<path class="st5" d="M70.7,40.1c-0.7,0-1.4-0.1-2.1-0.4c-0.7-0.2-1.3-0.6-1.8-1l0.6-0.8c0.5,0.4,1.1,0.8,1.6,1s1.1,0.3,1.8,0.3
		c0.8,0,1.4-0.2,1.8-0.5c0.5-0.3,0.7-0.7,0.7-1.3c0-0.3-0.1-0.5-0.2-0.7s-0.3-0.3-0.5-0.5c-0.2-0.1-0.5-0.2-0.9-0.4
		c-0.4-0.1-0.8-0.2-1.2-0.3c-0.5-0.1-1-0.3-1.4-0.4c-0.4-0.1-0.7-0.3-1-0.5c-0.3-0.2-0.5-0.4-0.6-0.6c-0.1-0.2-0.2-0.6-0.2-0.9
		c0-0.5,0.1-0.9,0.3-1.2c0.2-0.4,0.4-0.7,0.8-0.9c0.3-0.2,0.7-0.4,1.1-0.5c0.4-0.1,0.9-0.2,1.4-0.2c0.7,0,1.4,0.1,2,0.4
		c0.6,0.2,1.1,0.5,1.4,0.9l-0.6,0.7c-0.3-0.4-0.8-0.6-1.3-0.8c-0.5-0.2-1-0.3-1.6-0.3c-0.3,0-0.6,0-0.9,0.1
		c-0.3,0.1-0.5,0.2-0.7,0.3c-0.2,0.1-0.4,0.3-0.5,0.5c-0.1,0.2-0.2,0.5-0.2,0.8c0,0.3,0,0.5,0.1,0.6c0.1,0.2,0.2,0.3,0.4,0.4
		s0.4,0.2,0.7,0.3c0.3,0.1,0.7,0.2,1.1,0.3c0.6,0.1,1.1,0.3,1.6,0.4c0.5,0.1,0.8,0.3,1.1,0.5c0.3,0.2,0.5,0.4,0.7,0.7
		c0.2,0.3,0.2,0.6,0.2,1c0,0.9-0.3,1.5-1,2.1S71.8,40.1,70.7,40.1z"/>
	<path class="st5" d="M77.1,28.8l-0.8-0.3l1.1-1.7h1.3L77.1,28.8z M76.3,39.9v-9.4h1.2v9.4H76.3z"/>
	<path class="st5" d="M94.2,39.9H93v-5.2c0-1.1-0.2-1.9-0.5-2.4c-0.3-0.5-0.9-0.8-1.5-0.8c-0.4,0-0.7,0.1-1,0.2
		c-0.3,0.1-0.6,0.3-0.9,0.6c-0.3,0.2-0.5,0.5-0.7,0.9s-0.4,0.7-0.5,1.1v5.7h-1.2v-5.2c0-1.1-0.2-1.9-0.5-2.4s-0.9-0.8-1.5-0.8
		c-0.7,0-1.3,0.2-1.9,0.7c-0.6,0.5-0.9,1.1-1.2,1.9v5.7h-1.2v-9.4h1.1v2.1c0.4-0.7,0.9-1.3,1.5-1.7c0.6-0.4,1.3-0.6,2.1-0.6
		c0.8,0,1.4,0.2,1.9,0.7c0.5,0.4,0.8,1,0.9,1.7c0.9-1.6,2.1-2.4,3.6-2.4c0.5,0,1,0.1,1.3,0.3c0.4,0.2,0.7,0.5,0.9,0.8
		c0.2,0.4,0.4,0.8,0.5,1.3c0.1,0.5,0.2,1.1,0.2,1.7V39.9z"/>
	<path class="st5" d="M101.4,40.1c-0.7,0-1.4-0.2-2-0.6s-1.1-0.9-1.4-1.4v1.8h-1.1V26.8H98v5.7c0.4-0.6,0.9-1.1,1.5-1.5
		s1.3-0.6,2.1-0.6c0.7,0,1.3,0.1,1.8,0.4c0.5,0.3,1,0.6,1.3,1.1s0.6,1,0.8,1.6c0.2,0.6,0.3,1.2,0.3,1.8c0,0.7-0.1,1.3-0.3,1.9
		c-0.2,0.6-0.5,1.1-0.9,1.5c-0.4,0.4-0.9,0.8-1.4,1S102,40.1,101.4,40.1z M101.1,39c0.5,0,1-0.1,1.4-0.3c0.4-0.2,0.8-0.5,1.1-0.8
		c0.3-0.4,0.5-0.8,0.7-1.2c0.2-0.4,0.3-0.9,0.3-1.4c0-0.5-0.1-1-0.2-1.4s-0.4-0.9-0.7-1.2c-0.3-0.4-0.6-0.6-1.1-0.8
		s-0.9-0.3-1.4-0.3c-0.4,0-0.7,0.1-1,0.2c-0.3,0.1-0.6,0.3-0.9,0.5c-0.3,0.2-0.5,0.5-0.7,0.7c-0.2,0.3-0.4,0.6-0.5,0.9v2.9
		c0,0.3,0.2,0.6,0.4,0.9s0.5,0.5,0.8,0.7s0.6,0.4,1,0.5C100.5,39,100.8,39,101.1,39z"/>
	<path class="st5" d="M111.9,40.1c-0.7,0-1.3-0.1-1.9-0.4s-1.1-0.6-1.5-1.1c-0.4-0.4-0.7-1-1-1.5c-0.2-0.6-0.3-1.2-0.3-1.9
		c0-0.7,0.1-1.3,0.4-1.9s0.6-1.1,1-1.5s0.9-0.8,1.5-1.1c0.6-0.3,1.2-0.4,1.9-0.4s1.3,0.1,1.9,0.4c0.6,0.3,1.1,0.6,1.5,1.1
		s0.7,1,1,1.5c0.2,0.6,0.4,1.2,0.4,1.9c0,0.6-0.1,1.3-0.3,1.9c-0.2,0.6-0.5,1.1-1,1.5c-0.4,0.4-0.9,0.8-1.5,1.1
		S112.6,40.1,111.9,40.1z M108.5,35.3c0,0.5,0.1,1,0.3,1.5c0.2,0.4,0.4,0.8,0.7,1.2c0.3,0.3,0.7,0.6,1.1,0.8
		c0.4,0.2,0.9,0.3,1.3,0.3s0.9-0.1,1.3-0.3s0.8-0.5,1.1-0.8c0.3-0.3,0.6-0.7,0.7-1.2c0.2-0.5,0.3-0.9,0.3-1.5c0-0.5-0.1-1-0.3-1.5
		c-0.2-0.5-0.4-0.9-0.7-1.2c-0.3-0.3-0.7-0.6-1.1-0.8s-0.9-0.3-1.3-0.3s-0.9,0.1-1.3,0.3c-0.4,0.2-0.8,0.5-1.1,0.8
		c-0.3,0.3-0.6,0.8-0.7,1.2S108.5,34.7,108.5,35.3z"/>
	<path class="st5" d="M118.7,26.8h1.2v11c0,0.3,0.1,0.6,0.3,0.8c0.2,0.2,0.5,0.3,0.8,0.3c0.1,0,0.3,0,0.5-0.1s0.3-0.1,0.5-0.1l0.2,1
		c-0.2,0.1-0.5,0.2-0.8,0.2c-0.3,0.1-0.6,0.1-0.9,0.1c-0.6,0-1-0.2-1.3-0.5c-0.3-0.3-0.5-0.8-0.5-1.3V26.8z"/>
	<path class="st5" d="M127.5,40.1c-0.7,0-1.3-0.1-1.9-0.4s-1.1-0.6-1.5-1.1c-0.4-0.4-0.7-1-1-1.5c-0.2-0.6-0.3-1.2-0.3-1.9
		c0-0.7,0.1-1.3,0.4-1.9s0.6-1.1,1-1.5s0.9-0.8,1.5-1.1c0.6-0.3,1.2-0.4,1.9-0.4s1.3,0.1,1.9,0.4c0.6,0.3,1.1,0.6,1.5,1.1
		s0.7,1,1,1.5c0.2,0.6,0.4,1.2,0.4,1.9c0,0.6-0.1,1.3-0.3,1.9c-0.2,0.6-0.5,1.1-1,1.5c-0.4,0.4-0.9,0.8-1.5,1.1
		S128.2,40.1,127.5,40.1z M124.1,35.3c0,0.5,0.1,1,0.3,1.5c0.2,0.4,0.4,0.8,0.7,1.2c0.3,0.3,0.7,0.6,1.1,0.8
		c0.4,0.2,0.9,0.3,1.3,0.3s0.9-0.1,1.3-0.3s0.8-0.5,1.1-0.8c0.3-0.3,0.6-0.7,0.7-1.2c0.2-0.5,0.3-0.9,0.3-1.5c0-0.5-0.1-1-0.3-1.5
		c-0.2-0.5-0.4-0.9-0.7-1.2c-0.3-0.3-0.7-0.6-1.1-0.8s-0.9-0.3-1.3-0.3s-0.9,0.1-1.3,0.3c-0.4,0.2-0.8,0.5-1.1,0.8
		c-0.3,0.3-0.6,0.8-0.7,1.2S124.1,34.7,124.1,35.3z"/>
	<path class="st5" d="M141.9,40.1c-0.7,0-1.4-0.1-2.1-0.4c-0.7-0.2-1.3-0.6-1.8-1l0.6-0.8c0.5,0.4,1.1,0.8,1.6,1s1.1,0.3,1.8,0.3
		c0.8,0,1.4-0.2,1.8-0.5c0.5-0.3,0.7-0.7,0.7-1.3c0-0.3-0.1-0.5-0.2-0.7s-0.3-0.3-0.5-0.5c-0.2-0.1-0.5-0.2-0.9-0.4
		c-0.4-0.1-0.8-0.2-1.2-0.3c-0.5-0.1-1-0.3-1.4-0.4c-0.4-0.1-0.7-0.3-1-0.5c-0.3-0.2-0.5-0.4-0.6-0.6c-0.1-0.2-0.2-0.6-0.2-0.9
		c0-0.5,0.1-0.9,0.3-1.2c0.2-0.4,0.4-0.7,0.8-0.9c0.3-0.2,0.7-0.4,1.1-0.5c0.4-0.1,0.9-0.2,1.4-0.2c0.7,0,1.4,0.1,2,0.4
		c0.6,0.2,1.1,0.5,1.4,0.9l-0.6,0.7c-0.3-0.4-0.8-0.6-1.3-0.8c-0.5-0.2-1-0.3-1.6-0.3c-0.3,0-0.6,0-0.9,0.1
		c-0.3,0.1-0.5,0.2-0.7,0.3c-0.2,0.1-0.4,0.3-0.5,0.5c-0.1,0.2-0.2,0.5-0.2,0.8c0,0.3,0,0.5,0.1,0.6c0.1,0.2,0.2,0.3,0.4,0.4
		s0.4,0.2,0.7,0.3c0.3,0.1,0.7,0.2,1.1,0.3c0.6,0.1,1.1,0.3,1.6,0.4c0.5,0.1,0.8,0.3,1.1,0.5c0.3,0.2,0.5,0.4,0.7,0.7
		c0.2,0.3,0.2,0.6,0.2,1c0,0.9-0.3,1.5-1,2.1S143.1,40.1,141.9,40.1z"/>
	<path class="st5" d="M147.6,28.6v-1.8h1.2v1.8H147.6z M147.6,39.9v-9.4h1.2v9.4H147.6z"/>
	<path class="st5" d="M155.3,40c-0.6,0-1.2-0.1-1.8-0.4c-0.5-0.3-1-0.6-1.4-1.1c-0.4-0.4-0.7-1-0.9-1.5c-0.2-0.6-0.3-1.2-0.3-1.8
		c0-0.6,0.1-1.3,0.3-1.9c0.2-0.6,0.5-1.1,0.9-1.6s0.8-0.8,1.4-1.1c0.5-0.3,1.1-0.4,1.8-0.4c0.8,0,1.5,0.2,2.1,0.6
		c0.6,0.4,1.1,0.9,1.5,1.5v-2h1.1V40c0,0.6-0.1,1.2-0.4,1.7s-0.6,0.9-1,1.3s-0.9,0.6-1.5,0.8c-0.6,0.2-1.1,0.3-1.8,0.3
		c-1.1,0-2-0.2-2.6-0.6c-0.7-0.4-1.2-0.9-1.6-1.5l0.8-0.6c0.4,0.6,0.9,1,1.5,1.3c0.6,0.3,1.3,0.4,2,0.4c0.5,0,0.9-0.1,1.3-0.2
		s0.8-0.3,1.1-0.6s0.5-0.6,0.7-0.9c0.2-0.4,0.3-0.8,0.3-1.3v-1.9c-0.4,0.6-0.9,1.1-1.5,1.4C156.6,39.9,156,40,155.3,40z M155.6,39
		c0.4,0,0.7-0.1,1.1-0.2c0.3-0.1,0.7-0.3,0.9-0.5c0.3-0.2,0.5-0.5,0.7-0.7c0.2-0.3,0.3-0.6,0.4-0.8v-2.9c-0.1-0.3-0.3-0.6-0.5-0.9
		c-0.2-0.3-0.5-0.5-0.8-0.7c-0.3-0.2-0.6-0.4-0.9-0.5s-0.7-0.2-1-0.2c-0.5,0-1,0.1-1.4,0.3c-0.4,0.2-0.8,0.5-1.1,0.9
		c-0.3,0.4-0.5,0.8-0.7,1.2s-0.2,0.9-0.2,1.4c0,0.5,0.1,1,0.3,1.4c0.2,0.5,0.4,0.9,0.7,1.2c0.3,0.3,0.7,0.6,1.1,0.8
		S155.1,39,155.6,39z"/>
	<path class="st5" d="M170.5,39.9h-1.2v-5.2c0-1.1-0.2-1.9-0.5-2.4s-0.8-0.8-1.5-0.8c-0.4,0-0.7,0.1-1.1,0.2c-0.4,0.1-0.7,0.3-1,0.6
		c-0.3,0.2-0.6,0.5-0.8,0.9s-0.4,0.7-0.5,1.1v5.7h-1.2v-9.4h1.1v2.1c0.4-0.7,0.9-1.2,1.6-1.7s1.5-0.6,2.3-0.6c0.5,0,1,0.1,1.3,0.3
		c0.4,0.2,0.6,0.5,0.9,0.8c0.2,0.3,0.4,0.8,0.5,1.3c0.1,0.5,0.1,1.1,0.1,1.7V39.9z"/>
	<path class="st5" d="M173.1,28.6v-1.8h1.2v1.8H173.1z M173.1,39.9v-9.4h1.2v9.4H173.1z"/>
	<path class="st5" d="M177.5,31.5h-1.3v-1h1.3v-0.3c0-0.4,0.1-0.9,0.2-1.3c0.1-0.4,0.3-0.8,0.6-1.2c0.3-0.3,0.6-0.6,1-0.9
		c0.4-0.2,0.9-0.3,1.5-0.3c0.3,0,0.6,0,0.9,0.1c0.3,0.1,0.5,0.1,0.8,0.2c0.2,0.1,0.4,0.2,0.6,0.3c0.2,0.1,0.3,0.2,0.4,0.3l-0.6,0.9
		c-0.2-0.2-0.5-0.3-0.9-0.5s-0.8-0.2-1.2-0.2c-0.4,0-0.7,0.1-1,0.2c-0.3,0.2-0.5,0.4-0.7,0.6s-0.3,0.5-0.4,0.8
		c-0.1,0.3-0.1,0.6-0.1,0.9v0.3h4.7v9.4h-1.2v-8.4h-3.5v8.4h-1.2V31.5z"/>
	<path class="st5" d="M185.5,35.2c0-0.7,0.1-1.3,0.3-1.9c0.2-0.6,0.5-1.1,1-1.5c0.4-0.4,0.9-0.8,1.5-1s1.2-0.4,1.9-0.4
		c0.9,0,1.7,0.2,2.3,0.6c0.7,0.4,1.2,0.9,1.5,1.6l-1.2,0.4c-0.3-0.5-0.6-0.9-1.1-1.1c-0.5-0.3-1-0.4-1.6-0.4c-0.5,0-0.9,0.1-1.3,0.3
		c-0.4,0.2-0.8,0.5-1.1,0.8c-0.3,0.3-0.5,0.7-0.7,1.2s-0.3,1-0.3,1.5c0,0.5,0.1,1,0.3,1.5c0.2,0.5,0.4,0.9,0.7,1.2
		c0.3,0.3,0.7,0.6,1.1,0.8s0.9,0.3,1.3,0.3c0.3,0,0.6,0,0.9-0.1s0.6-0.2,0.8-0.4c0.3-0.2,0.5-0.3,0.6-0.5c0.2-0.2,0.3-0.4,0.4-0.6
		l1.2,0.4c-0.1,0.3-0.3,0.6-0.6,0.9c-0.3,0.3-0.5,0.5-0.9,0.7c-0.3,0.2-0.7,0.4-1.1,0.5s-0.8,0.2-1.3,0.2c-0.7,0-1.3-0.1-1.9-0.4
		s-1.1-0.6-1.5-1.1s-0.7-1-1-1.6C185.6,36.5,185.5,35.9,185.5,35.2z"/>
	<path class="st5" d="M198.4,40.1c-0.4,0-0.9-0.1-1.2-0.2c-0.4-0.2-0.7-0.4-1-0.6c-0.3-0.3-0.5-0.6-0.7-0.9
		c-0.2-0.4-0.2-0.7-0.2-1.1s0.1-0.8,0.3-1.1c0.2-0.3,0.5-0.6,0.8-0.9c0.3-0.3,0.8-0.4,1.2-0.6c0.5-0.1,1-0.2,1.6-0.2
		c0.5,0,1,0,1.5,0.1c0.5,0.1,0.9,0.2,1.3,0.4V34c0-0.8-0.2-1.5-0.7-2c-0.5-0.5-1.1-0.7-1.9-0.7c-0.5,0-1,0.1-1.5,0.3
		c-0.5,0.2-1,0.5-1.5,0.8l-0.4-0.8c1.2-0.8,2.4-1.2,3.5-1.2c1.2,0,2.1,0.3,2.8,1c0.7,0.7,1,1.6,1,2.7v4.2c0,0.3,0.1,0.5,0.4,0.5v1.1
		c-0.2,0-0.4,0.1-0.5,0.1c-0.3,0-0.6-0.1-0.7-0.2c-0.2-0.2-0.3-0.4-0.3-0.6l0-0.7c-0.4,0.6-1,1-1.6,1.3S199.1,40.1,198.4,40.1z
		 M198.7,39.2c0.6,0,1.2-0.1,1.8-0.4s0.9-0.6,1.2-1c0.1-0.1,0.2-0.2,0.2-0.4c0.1-0.1,0.1-0.2,0.1-0.4v-1.5c-0.4-0.2-0.8-0.3-1.3-0.4
		c-0.4-0.1-0.9-0.1-1.3-0.1c-0.9,0-1.6,0.2-2.1,0.5c-0.5,0.4-0.8,0.8-0.8,1.4c0,0.3,0.1,0.6,0.2,0.8c0.1,0.3,0.3,0.5,0.5,0.7
		c0.2,0.2,0.4,0.3,0.7,0.4C198,39.1,198.3,39.2,198.7,39.2z"/>
	<path class="st5" d="M214,40.1c-0.6,0-1.2-0.1-1.7-0.4c-0.5-0.3-1-0.6-1.3-1.1c-0.4-0.4-0.7-1-0.9-1.5s-0.3-1.2-0.3-1.8
		c0-0.6,0.1-1.3,0.3-1.9c0.2-0.6,0.5-1.1,0.9-1.5c0.4-0.4,0.9-0.8,1.4-1.1c0.5-0.3,1.1-0.4,1.8-0.4c0.4,0,0.7,0.1,1.1,0.2
		c0.3,0.1,0.7,0.2,1,0.4c0.3,0.2,0.6,0.4,0.8,0.6s0.5,0.5,0.6,0.8v-1.8h1.1v11.6c0,0.3,0.1,0.5,0.5,0.5v1.1c-0.1,0-0.2,0-0.4,0
		s-0.2,0-0.3,0c-0.3,0-0.5-0.1-0.7-0.4c-0.2-0.2-0.3-0.5-0.3-0.7V38c-0.5,0.7-1,1.2-1.6,1.6C215.4,39.9,214.7,40.1,214,40.1z
		 M214.4,39c0.4,0,0.7-0.1,1-0.2c0.3-0.1,0.6-0.3,0.9-0.5c0.3-0.2,0.5-0.4,0.7-0.7c0.2-0.3,0.4-0.6,0.6-0.9v-2.9
		c0-0.3-0.2-0.6-0.4-0.9s-0.5-0.6-0.7-0.8c-0.3-0.2-0.6-0.4-1-0.5c-0.3-0.1-0.7-0.2-1-0.2c-0.5,0-1,0.1-1.4,0.3
		c-0.4,0.2-0.8,0.5-1.1,0.9c-0.3,0.4-0.5,0.8-0.7,1.2s-0.3,0.9-0.3,1.4c0,0.5,0.1,1,0.3,1.4c0.2,0.5,0.4,0.9,0.7,1.2
		c0.3,0.3,0.7,0.6,1.1,0.8C213.5,38.9,213.9,39,214.4,39z"/>
	<path class="st5" d="M224.4,40.1c-1,0-1.8-0.3-2.3-1s-0.7-1.7-0.7-3v-5.5h1.2v5.3c0,2.1,0.7,3.2,2.2,3.2c0.4,0,0.7-0.1,1.1-0.2
		s0.7-0.3,1-0.5c0.3-0.2,0.6-0.5,0.8-0.8c0.2-0.3,0.4-0.7,0.6-1.1v-5.9h1.2v7.8c0,0.3,0.1,0.5,0.4,0.5v1.1c-0.1,0-0.3,0-0.4,0
		s-0.2,0-0.2,0c-0.3,0-0.5-0.1-0.7-0.3c-0.2-0.2-0.3-0.5-0.3-0.8v-1.1c-0.4,0.7-1,1.3-1.7,1.7C226,39.9,225.2,40.1,224.4,40.1z"/>
	<path class="st5" d="M236.3,40.1c-0.7,0-1.3-0.1-1.9-0.4c-0.6-0.3-1.1-0.6-1.5-1.1s-0.7-1-1-1.6c-0.2-0.6-0.4-1.2-0.4-1.9
		c0-0.7,0.1-1.3,0.4-1.9c0.2-0.6,0.6-1.1,1-1.5c0.4-0.4,0.9-0.8,1.5-1c0.6-0.3,1.2-0.4,1.9-0.4c0.7,0,1.3,0.1,1.9,0.4
		c0.6,0.3,1.1,0.6,1.5,1.1c0.4,0.4,0.7,1,1,1.5c0.2,0.6,0.3,1.2,0.3,1.8c0,0.1,0,0.2,0,0.3c0,0.1,0,0.2,0,0.2h-8
		c0,0.5,0.2,1,0.4,1.4c0.2,0.4,0.5,0.8,0.8,1.1c0.3,0.3,0.7,0.6,1.1,0.7c0.4,0.2,0.8,0.3,1.3,0.3c0.3,0,0.6,0,0.9-0.1
		c0.3-0.1,0.6-0.2,0.8-0.3c0.3-0.1,0.5-0.3,0.7-0.5s0.4-0.4,0.5-0.7l1.1,0.3c-0.1,0.3-0.3,0.7-0.6,0.9c-0.3,0.3-0.6,0.5-0.9,0.7
		c-0.3,0.2-0.7,0.4-1.2,0.5S236.7,40.1,236.3,40.1z M239.7,34.7c0-0.5-0.2-1-0.4-1.4c-0.2-0.4-0.4-0.8-0.8-1.1
		c-0.3-0.3-0.7-0.5-1.1-0.7c-0.4-0.2-0.8-0.3-1.3-0.3s-0.9,0.1-1.3,0.3c-0.4,0.2-0.8,0.4-1.1,0.7s-0.6,0.7-0.7,1.1
		c-0.2,0.4-0.3,0.9-0.3,1.4H239.7z"/>
	<path class="st5" d="M31,61.7c-0.7,0-1.3-0.1-1.9-0.4s-1.1-0.6-1.5-1.1c-0.4-0.4-0.7-1-1-1.5c-0.2-0.6-0.3-1.2-0.3-1.9
		c0-0.7,0.1-1.3,0.4-1.9c0.2-0.6,0.6-1.1,1-1.5c0.4-0.4,0.9-0.8,1.5-1.1c0.6-0.3,1.2-0.4,1.9-0.4s1.3,0.1,1.9,0.4
		c0.6,0.3,1.1,0.6,1.5,1.1c0.4,0.4,0.7,1,1,1.5c0.2,0.6,0.4,1.2,0.4,1.9c0,0.6-0.1,1.3-0.3,1.9c-0.2,0.6-0.5,1.1-1,1.5
		c-0.4,0.4-0.9,0.8-1.5,1.1S31.7,61.7,31,61.7z M27.6,56.9c0,0.5,0.1,1,0.3,1.5s0.4,0.8,0.7,1.2c0.3,0.3,0.7,0.6,1.1,0.8
		c0.4,0.2,0.9,0.3,1.3,0.3s0.9-0.1,1.3-0.3c0.4-0.2,0.8-0.5,1.1-0.8c0.3-0.3,0.6-0.7,0.7-1.2c0.2-0.5,0.3-0.9,0.3-1.5
		c0-0.5-0.1-1-0.3-1.5c-0.2-0.5-0.4-0.9-0.7-1.2c-0.3-0.3-0.7-0.6-1.1-0.8c-0.4-0.2-0.9-0.3-1.3-0.3s-0.9,0.1-1.3,0.3
		c-0.4,0.2-0.8,0.5-1.1,0.8c-0.3,0.3-0.6,0.8-0.7,1.2S27.6,56.3,27.6,56.9z"/>
	<path class="st5" d="M44.7,61.7c-0.4,0-0.9-0.1-1.2-0.2c-0.4-0.1-0.7-0.4-1-0.6c-0.3-0.3-0.5-0.6-0.7-0.9c-0.2-0.4-0.2-0.7-0.2-1.1
		c0-0.4,0.1-0.8,0.3-1.1c0.2-0.3,0.5-0.6,0.8-0.9c0.3-0.3,0.8-0.4,1.2-0.6s1-0.2,1.6-0.2c0.5,0,1,0,1.5,0.1s0.9,0.2,1.3,0.4v-0.8
		c0-0.8-0.2-1.5-0.7-2c-0.5-0.5-1.1-0.7-1.9-0.7c-0.5,0-1,0.1-1.5,0.3c-0.5,0.2-1,0.5-1.5,0.8l-0.4-0.8c1.2-0.8,2.4-1.2,3.5-1.2
		c1.2,0,2.1,0.3,2.8,1s1,1.6,1,2.7v4.2c0,0.3,0.2,0.5,0.5,0.5v1.1c-0.2,0-0.4,0.1-0.5,0.1c-0.3,0-0.6-0.1-0.7-0.2s-0.3-0.4-0.3-0.6
		l0-0.7c-0.4,0.6-1,1-1.6,1.3C46.1,61.5,45.4,61.7,44.7,61.7z M45,60.8c0.6,0,1.2-0.1,1.8-0.4c0.5-0.2,0.9-0.6,1.2-1
		c0.1-0.1,0.2-0.2,0.2-0.4c0.1-0.1,0.1-0.2,0.1-0.4v-1.5c-0.4-0.2-0.8-0.3-1.3-0.4c-0.4-0.1-0.9-0.1-1.3-0.1c-0.9,0-1.6,0.2-2.1,0.5
		c-0.5,0.4-0.8,0.8-0.8,1.4c0,0.3,0.1,0.6,0.2,0.8s0.3,0.5,0.5,0.7c0.2,0.2,0.4,0.3,0.7,0.4C44.3,60.7,44.6,60.8,45,60.8z"/>
	<path class="st5" d="M56.5,61.1c-0.1,0-0.2,0.1-0.3,0.1c-0.1,0.1-0.3,0.1-0.5,0.2c-0.2,0.1-0.4,0.1-0.6,0.2c-0.2,0-0.5,0.1-0.7,0.1
		c-0.3,0-0.5,0-0.8-0.1c-0.2-0.1-0.5-0.2-0.6-0.3c-0.2-0.1-0.3-0.3-0.4-0.6c-0.1-0.2-0.2-0.5-0.2-0.8v-6.7h-1.3v-1h1.3V49h1.2v3.2
		h2.2v1h-2.2v6.4c0,0.3,0.1,0.6,0.4,0.8c0.2,0.2,0.5,0.2,0.8,0.2c0.3,0,0.7-0.1,0.9-0.2c0.3-0.1,0.4-0.2,0.5-0.2L56.5,61.1z"/>
	<path class="st5" d="M58.1,48.4h1.2v11c0,0.3,0.1,0.6,0.3,0.8c0.2,0.2,0.5,0.3,0.8,0.3c0.1,0,0.3,0,0.5-0.1c0.2,0,0.3-0.1,0.5-0.1
		l0.2,1c-0.2,0.1-0.5,0.2-0.8,0.2c-0.3,0.1-0.6,0.1-0.9,0.1c-0.6,0-1-0.2-1.3-0.5c-0.3-0.3-0.5-0.8-0.5-1.3V48.4z"/>
	<path class="st5" d="M67,61.7c-0.7,0-1.3-0.1-1.9-0.4c-0.6-0.3-1.1-0.6-1.5-1.1s-0.7-1-1-1.6c-0.2-0.6-0.4-1.2-0.4-1.9
		c0-0.7,0.1-1.3,0.4-1.9c0.2-0.6,0.6-1.1,1-1.5c0.4-0.4,0.9-0.8,1.5-1c0.6-0.3,1.2-0.4,1.9-0.4c0.7,0,1.3,0.1,1.9,0.4
		c0.6,0.3,1.1,0.6,1.5,1.1c0.4,0.4,0.7,1,1,1.5c0.2,0.6,0.3,1.2,0.3,1.8c0,0.1,0,0.2,0,0.3c0,0.1,0,0.2,0,0.2h-8
		c0,0.5,0.2,1,0.4,1.4s0.5,0.8,0.8,1.1c0.3,0.3,0.7,0.6,1.1,0.7s0.8,0.3,1.3,0.3c0.3,0,0.6,0,0.9-0.1c0.3-0.1,0.6-0.2,0.8-0.3
		c0.3-0.1,0.5-0.3,0.7-0.5s0.4-0.4,0.5-0.7l1.1,0.3c-0.1,0.3-0.3,0.7-0.6,0.9c-0.3,0.3-0.6,0.5-0.9,0.7c-0.3,0.2-0.7,0.4-1.2,0.5
		C67.9,61.6,67.5,61.7,67,61.7z M70.5,56.3c0-0.5-0.2-1-0.4-1.4c-0.2-0.4-0.4-0.8-0.8-1.1c-0.3-0.3-0.7-0.5-1.1-0.7
		c-0.4-0.2-0.8-0.3-1.3-0.3s-0.9,0.1-1.3,0.3c-0.4,0.2-0.8,0.4-1.1,0.7s-0.6,0.7-0.7,1.1c-0.2,0.4-0.3,0.9-0.3,1.4H70.5z"/>
	<path class="st5" d="M78,61.1c-0.1,0-0.2,0.1-0.3,0.1c-0.1,0.1-0.3,0.1-0.5,0.2c-0.2,0.1-0.4,0.1-0.6,0.2c-0.2,0-0.5,0.1-0.7,0.1
		c-0.3,0-0.5,0-0.8-0.1c-0.2-0.1-0.5-0.2-0.6-0.3c-0.2-0.1-0.3-0.3-0.4-0.6c-0.1-0.2-0.2-0.5-0.2-0.8v-6.7h-1.3v-1h1.3V49h1.2v3.2
		h2.2v1h-2.2v6.4c0,0.3,0.1,0.6,0.4,0.8c0.2,0.2,0.5,0.2,0.8,0.2c0.3,0,0.7-0.1,0.9-0.2c0.3-0.1,0.4-0.2,0.5-0.2L78,61.1z"/>
	<path class="st5" d="M81.9,61.7c-0.4,0-0.9-0.1-1.2-0.2c-0.4-0.1-0.7-0.4-1-0.6c-0.3-0.3-0.5-0.6-0.7-0.9c-0.2-0.4-0.2-0.7-0.2-1.1
		c0-0.4,0.1-0.8,0.3-1.1c0.2-0.3,0.5-0.6,0.8-0.9c0.3-0.3,0.8-0.4,1.2-0.6c0.5-0.1,1-0.2,1.6-0.2c0.5,0,1,0,1.5,0.1
		c0.5,0.1,0.9,0.2,1.3,0.4v-0.8c0-0.8-0.2-1.5-0.7-2c-0.5-0.5-1.1-0.7-1.9-0.7c-0.5,0-1,0.1-1.5,0.3c-0.5,0.2-1,0.5-1.5,0.8
		l-0.4-0.8c1.2-0.8,2.4-1.2,3.5-1.2c1.2,0,2.1,0.3,2.8,1s1,1.6,1,2.7v4.2c0,0.3,0.1,0.5,0.4,0.5v1.1c-0.2,0-0.4,0.1-0.5,0.1
		c-0.3,0-0.6-0.1-0.7-0.2c-0.2-0.2-0.3-0.4-0.3-0.6l0-0.7c-0.4,0.6-1,1-1.6,1.3S82.6,61.7,81.9,61.7z M82.1,60.8
		c0.6,0,1.2-0.1,1.8-0.4c0.5-0.2,0.9-0.6,1.2-1c0.1-0.1,0.2-0.2,0.2-0.4c0.1-0.1,0.1-0.2,0.1-0.4v-1.5c-0.4-0.2-0.8-0.3-1.3-0.4
		c-0.4-0.1-0.9-0.1-1.3-0.1c-0.9,0-1.6,0.2-2.1,0.5c-0.5,0.4-0.8,0.8-0.8,1.4c0,0.3,0.1,0.6,0.2,0.8c0.1,0.3,0.3,0.5,0.5,0.7
		c0.2,0.2,0.4,0.3,0.7,0.4C81.5,60.7,81.8,60.8,82.1,60.8z"/>
	<path class="st5" d="M101.8,61.5h-1.2v-5.2c0-1.1-0.2-1.9-0.5-2.4s-0.8-0.8-1.5-0.8c-0.4,0-0.7,0.1-1.1,0.2c-0.4,0.1-0.7,0.3-1,0.6
		c-0.3,0.2-0.6,0.5-0.8,0.9s-0.4,0.7-0.5,1.1v5.7h-1.2v-9.4H95v2.1c0.4-0.7,0.9-1.2,1.6-1.7c0.7-0.4,1.5-0.6,2.3-0.6
		c0.5,0,1,0.1,1.3,0.3c0.4,0.2,0.6,0.5,0.9,0.8c0.2,0.3,0.4,0.8,0.5,1.3c0.1,0.5,0.1,1.1,0.1,1.7V61.5z"/>
	<path class="st5" d="M106.7,61.7c-0.4,0-0.9-0.1-1.2-0.2c-0.4-0.1-0.7-0.4-1-0.6c-0.3-0.3-0.5-0.6-0.7-0.9
		c-0.2-0.4-0.2-0.7-0.2-1.1c0-0.4,0.1-0.8,0.3-1.1c0.2-0.3,0.5-0.6,0.8-0.9c0.3-0.3,0.8-0.4,1.2-0.6c0.5-0.1,1-0.2,1.6-0.2
		c0.5,0,1,0,1.5,0.1c0.5,0.1,0.9,0.2,1.3,0.4v-0.8c0-0.8-0.2-1.5-0.7-2c-0.5-0.5-1.1-0.7-1.9-0.7c-0.5,0-1,0.1-1.5,0.3
		c-0.5,0.2-1,0.5-1.5,0.8l-0.4-0.8c1.2-0.8,2.4-1.2,3.5-1.2c1.2,0,2.1,0.3,2.8,1s1,1.6,1,2.7v4.2c0,0.3,0.1,0.5,0.4,0.5v1.1
		c-0.2,0-0.4,0.1-0.5,0.1c-0.3,0-0.6-0.1-0.7-0.2c-0.2-0.2-0.3-0.4-0.3-0.6l0-0.7c-0.4,0.6-1,1-1.6,1.3S107.5,61.7,106.7,61.7z
		 M107,60.8c0.6,0,1.2-0.1,1.8-0.4c0.5-0.2,0.9-0.6,1.2-1c0.1-0.1,0.2-0.2,0.2-0.4c0.1-0.1,0.1-0.2,0.1-0.4v-1.5
		c-0.4-0.2-0.8-0.3-1.3-0.4c-0.4-0.1-0.9-0.1-1.3-0.1c-0.9,0-1.6,0.2-2.1,0.5c-0.5,0.4-0.8,0.8-0.8,1.4c0,0.3,0.1,0.6,0.2,0.8
		c0.1,0.3,0.3,0.5,0.5,0.7c0.2,0.2,0.4,0.3,0.7,0.4C106.4,60.7,106.7,60.8,107,60.8z M108.9,50c-0.3,0-0.5,0-0.7-0.1
		c-0.2-0.1-0.4-0.2-0.6-0.2s-0.3-0.2-0.5-0.3s-0.3-0.1-0.5-0.1c-0.2,0-0.4,0-0.5,0.1c-0.1,0.1-0.2,0.2-0.3,0.3
		c-0.1,0.1-0.1,0.2-0.1,0.3c0,0.1,0,0.1,0,0.2h-0.8c0-0.1,0-0.2,0.1-0.4c0-0.2,0.1-0.4,0.2-0.6c0.1-0.2,0.3-0.4,0.5-0.5
		c0.2-0.1,0.5-0.2,0.8-0.2c0.3,0,0.5,0,0.7,0.1c0.2,0.1,0.4,0.2,0.5,0.3s0.3,0.2,0.5,0.3c0.2,0.1,0.4,0.1,0.6,0.1s0.4,0,0.5-0.1
		c0.1-0.1,0.2-0.2,0.3-0.3c0.1-0.1,0.1-0.2,0.1-0.3c0-0.1,0-0.1,0-0.2h0.8c0,0.1,0,0.2-0.1,0.4c0,0.2-0.1,0.4-0.3,0.6
		c-0.1,0.2-0.3,0.4-0.5,0.5C109.5,50,109.2,50,108.9,50z"/>
	<path class="st5" d="M118.2,61.7c-0.7,0-1.3-0.1-1.9-0.4s-1.1-0.6-1.5-1.1c-0.4-0.4-0.7-1-1-1.5c-0.2-0.6-0.3-1.2-0.3-1.9
		c0-0.7,0.1-1.3,0.4-1.9c0.2-0.6,0.6-1.1,1-1.5c0.4-0.4,0.9-0.8,1.5-1.1c0.6-0.3,1.2-0.4,1.9-0.4s1.3,0.1,1.9,0.4
		c0.6,0.3,1.1,0.6,1.5,1.1c0.4,0.4,0.7,1,1,1.5c0.2,0.6,0.4,1.2,0.4,1.9c0,0.6-0.1,1.3-0.3,1.9c-0.2,0.6-0.5,1.1-1,1.5
		c-0.4,0.4-0.9,0.8-1.5,1.1S118.9,61.7,118.2,61.7z M114.8,56.9c0,0.5,0.1,1,0.3,1.5s0.4,0.8,0.7,1.2c0.3,0.3,0.7,0.6,1.1,0.8
		c0.4,0.2,0.9,0.3,1.3,0.3s0.9-0.1,1.3-0.3c0.4-0.2,0.8-0.5,1.1-0.8c0.3-0.3,0.6-0.7,0.7-1.2c0.2-0.5,0.3-0.9,0.3-1.5
		c0-0.5-0.1-1-0.3-1.5c-0.2-0.5-0.4-0.9-0.7-1.2c-0.3-0.3-0.7-0.6-1.1-0.8c-0.4-0.2-0.9-0.3-1.3-0.3s-0.9,0.1-1.3,0.3
		c-0.4,0.2-0.8,0.5-1.1,0.8c-0.3,0.3-0.6,0.8-0.7,1.2S114.8,56.3,114.8,56.9z"/>
	<path class="st5" d="M134.3,61.7c-0.8,0-1.5-0.2-2.1-0.6c-0.6-0.4-1.1-0.9-1.5-1.5v5.8h-1.2V52.1h1.1V54c0.4-0.6,0.9-1.1,1.5-1.4
		c0.6-0.4,1.3-0.5,2-0.5c0.6,0,1.2,0.1,1.8,0.4s1,0.6,1.4,1.1c0.4,0.5,0.7,1,0.9,1.6c0.2,0.6,0.3,1.2,0.3,1.8c0,0.7-0.1,1.3-0.3,1.9
		c-0.2,0.6-0.5,1.1-0.9,1.5c-0.4,0.4-0.8,0.8-1.4,1.1C135.5,61.6,134.9,61.7,134.3,61.7z M133.9,60.6c0.5,0,1-0.1,1.4-0.3
		s0.8-0.5,1.1-0.9c0.3-0.4,0.5-0.8,0.7-1.2c0.2-0.4,0.2-0.9,0.2-1.4c0-0.5-0.1-1-0.3-1.4c-0.2-0.5-0.4-0.9-0.7-1.2
		c-0.3-0.3-0.7-0.6-1.1-0.8s-0.9-0.3-1.4-0.3c-0.3,0-0.6,0.1-1,0.2s-0.7,0.3-1,0.5s-0.5,0.5-0.8,0.7c-0.2,0.3-0.3,0.6-0.4,0.9v2.9
		c0.1,0.3,0.3,0.6,0.5,0.9c0.2,0.3,0.5,0.5,0.8,0.7c0.3,0.2,0.6,0.4,0.9,0.5C133.3,60.6,133.6,60.6,133.9,60.6z"/>
	<path class="st5" d="M144.6,61.7c-0.7,0-1.3-0.1-1.9-0.4s-1.1-0.6-1.5-1.1c-0.4-0.4-0.7-1-1-1.5c-0.2-0.6-0.3-1.2-0.3-1.9
		c0-0.7,0.1-1.3,0.4-1.9c0.2-0.6,0.6-1.1,1-1.5c0.4-0.4,0.9-0.8,1.5-1.1c0.6-0.3,1.2-0.4,1.9-0.4s1.3,0.1,1.9,0.4
		c0.6,0.3,1.1,0.6,1.5,1.1c0.4,0.4,0.7,1,1,1.5c0.2,0.6,0.4,1.2,0.4,1.9c0,0.6-0.1,1.3-0.3,1.9c-0.2,0.6-0.5,1.1-1,1.5
		c-0.4,0.4-0.9,0.8-1.5,1.1S145.3,61.7,144.6,61.7z M141.2,56.9c0,0.5,0.1,1,0.3,1.5s0.4,0.8,0.7,1.2c0.3,0.3,0.7,0.6,1.1,0.8
		c0.4,0.2,0.9,0.3,1.3,0.3s0.9-0.1,1.3-0.3c0.4-0.2,0.8-0.5,1.1-0.8c0.3-0.3,0.6-0.7,0.7-1.2c0.2-0.5,0.3-0.9,0.3-1.5
		c0-0.5-0.1-1-0.3-1.5c-0.2-0.5-0.4-0.9-0.7-1.2c-0.3-0.3-0.7-0.6-1.1-0.8c-0.4-0.2-0.9-0.3-1.3-0.3s-0.9,0.1-1.3,0.3
		c-0.4,0.2-0.8,0.5-1.1,0.8c-0.3,0.3-0.6,0.8-0.7,1.2S141.2,56.3,141.2,56.9z"/>
	<path class="st5" d="M154.4,61.7c-0.7,0-1.4-0.1-2.1-0.4c-0.7-0.2-1.3-0.6-1.8-1l0.6-0.8c0.5,0.4,1.1,0.8,1.6,1
		c0.5,0.2,1.1,0.3,1.8,0.3c0.8,0,1.4-0.2,1.8-0.5s0.7-0.7,0.7-1.3c0-0.3-0.1-0.5-0.2-0.7c-0.1-0.2-0.3-0.3-0.5-0.5s-0.5-0.2-0.9-0.4
		c-0.4-0.1-0.8-0.2-1.2-0.3c-0.5-0.1-1-0.3-1.4-0.4c-0.4-0.1-0.7-0.3-1-0.4s-0.5-0.4-0.6-0.6s-0.2-0.6-0.2-0.9
		c0-0.5,0.1-0.9,0.3-1.2c0.2-0.4,0.4-0.7,0.8-0.9c0.3-0.2,0.7-0.4,1.1-0.5s0.9-0.2,1.4-0.2c0.7,0,1.4,0.1,2,0.4
		c0.6,0.2,1.1,0.5,1.4,0.9l-0.6,0.7c-0.3-0.4-0.8-0.6-1.3-0.8c-0.5-0.2-1-0.3-1.6-0.3c-0.3,0-0.6,0-0.9,0.1
		c-0.3,0.1-0.5,0.2-0.7,0.3c-0.2,0.1-0.4,0.3-0.5,0.5c-0.1,0.2-0.2,0.5-0.2,0.8c0,0.3,0,0.5,0.1,0.6s0.2,0.3,0.4,0.4
		c0.2,0.1,0.4,0.2,0.7,0.3s0.7,0.2,1.1,0.3c0.6,0.1,1.1,0.3,1.6,0.4s0.8,0.3,1.1,0.5c0.3,0.2,0.5,0.4,0.7,0.7s0.2,0.6,0.2,1
		c0,0.9-0.3,1.5-1,2.1C156.4,61.4,155.5,61.7,154.4,61.7z"/>
	<path class="st5" d="M163.2,61.7c-0.7,0-1.4-0.1-2.1-0.4c-0.7-0.2-1.3-0.6-1.8-1l0.6-0.8c0.5,0.4,1.1,0.8,1.6,1
		c0.5,0.2,1.1,0.3,1.8,0.3c0.8,0,1.4-0.2,1.8-0.5c0.5-0.3,0.7-0.7,0.7-1.3c0-0.3-0.1-0.5-0.2-0.7s-0.3-0.3-0.5-0.5
		c-0.2-0.1-0.5-0.2-0.9-0.4c-0.4-0.1-0.8-0.2-1.2-0.3c-0.5-0.1-1-0.3-1.4-0.4c-0.4-0.1-0.7-0.3-1-0.4c-0.3-0.2-0.5-0.4-0.6-0.6
		s-0.2-0.6-0.2-0.9c0-0.5,0.1-0.9,0.3-1.2c0.2-0.4,0.4-0.7,0.8-0.9c0.3-0.2,0.7-0.4,1.1-0.5c0.4-0.1,0.9-0.2,1.4-0.2
		c0.7,0,1.4,0.1,2,0.4c0.6,0.2,1.1,0.5,1.4,0.9L166,54c-0.3-0.4-0.8-0.6-1.3-0.8c-0.5-0.2-1-0.3-1.6-0.3c-0.3,0-0.6,0-0.9,0.1
		c-0.3,0.1-0.5,0.2-0.7,0.3c-0.2,0.1-0.4,0.3-0.5,0.5c-0.1,0.2-0.2,0.5-0.2,0.8c0,0.3,0,0.5,0.1,0.6s0.2,0.3,0.4,0.4
		s0.4,0.2,0.7,0.3c0.3,0.1,0.7,0.2,1.1,0.3c0.6,0.1,1.1,0.3,1.6,0.4s0.8,0.3,1.1,0.5c0.3,0.2,0.5,0.4,0.7,0.7c0.2,0.3,0.2,0.6,0.2,1
		c0,0.9-0.3,1.5-1,2.1C165.2,61.4,164.3,61.7,163.2,61.7z"/>
	<path class="st5" d="M171.8,61.7c-1,0-1.8-0.3-2.3-1c-0.5-0.7-0.7-1.7-0.7-3v-5.5h1.2v5.3c0,2.1,0.7,3.2,2.2,3.2
		c0.4,0,0.7-0.1,1.1-0.2c0.3-0.1,0.7-0.3,1-0.5c0.3-0.2,0.6-0.5,0.8-0.8c0.2-0.3,0.4-0.7,0.6-1.1v-5.9h1.2v7.8
		c0,0.3,0.1,0.5,0.4,0.5v1.1c-0.1,0-0.3,0-0.4,0s-0.2,0-0.2,0c-0.3,0-0.5-0.1-0.7-0.3c-0.2-0.2-0.3-0.5-0.3-0.8v-1.1
		c-0.4,0.7-1,1.3-1.7,1.7C173.3,61.5,172.6,61.7,171.8,61.7z"/>
	<path class="st5" d="M179.5,50.2v-1.8h1.2v1.8H179.5z M179.5,61.5v-9.4h1.2v9.4H179.5z"/>
	<path class="st5" d="M185.8,61.7c-0.4,0-0.9-0.1-1.2-0.2c-0.4-0.1-0.7-0.4-1-0.6c-0.3-0.3-0.5-0.6-0.7-0.9
		c-0.2-0.4-0.2-0.7-0.2-1.1c0-0.4,0.1-0.8,0.3-1.1c0.2-0.3,0.5-0.6,0.8-0.9c0.3-0.3,0.8-0.4,1.2-0.6s1-0.2,1.6-0.2
		c0.5,0,1,0,1.5,0.1s0.9,0.2,1.3,0.4v-0.8c0-0.8-0.2-1.5-0.7-2c-0.5-0.5-1.1-0.7-1.9-0.7c-0.5,0-1,0.1-1.5,0.3
		c-0.5,0.2-1,0.5-1.5,0.8l-0.4-0.8c1.2-0.8,2.4-1.2,3.5-1.2c1.2,0,2.1,0.3,2.8,1s1,1.6,1,2.7v4.2c0,0.3,0.2,0.5,0.5,0.5v1.1
		c-0.2,0-0.4,0.1-0.5,0.1c-0.3,0-0.6-0.1-0.7-0.2s-0.3-0.4-0.3-0.6l0-0.7c-0.4,0.6-1,1-1.6,1.3C187.3,61.5,186.6,61.7,185.8,61.7z
		 M186.1,60.8c0.6,0,1.2-0.1,1.8-0.4c0.5-0.2,0.9-0.6,1.2-1c0.1-0.1,0.2-0.2,0.2-0.4c0.1-0.1,0.1-0.2,0.1-0.4v-1.5
		c-0.4-0.2-0.8-0.3-1.3-0.4c-0.4-0.1-0.9-0.1-1.3-0.1c-0.9,0-1.6,0.2-2.1,0.5c-0.5,0.4-0.8,0.8-0.8,1.4c0,0.3,0.1,0.6,0.2,0.8
		s0.3,0.5,0.5,0.7c0.2,0.2,0.4,0.3,0.7,0.4C185.5,60.7,185.8,60.8,186.1,60.8z"/>
	<path class="st5" d="M34.9,83.1h-1.2v-5.2c0-1.1-0.2-1.9-0.5-2.4s-0.8-0.8-1.5-0.8c-0.4,0-0.7,0.1-1.1,0.2c-0.4,0.1-0.7,0.3-1,0.6
		c-0.3,0.2-0.6,0.5-0.8,0.9s-0.4,0.7-0.5,1.1v5.7H27v-9.4h1.1v2.1c0.4-0.7,0.9-1.2,1.6-1.7s1.5-0.6,2.3-0.6c0.5,0,1,0.1,1.3,0.3
		c0.4,0.2,0.6,0.5,0.9,0.8c0.2,0.3,0.4,0.8,0.5,1.3c0.1,0.5,0.1,1.1,0.1,1.7V83.1z"/>
	<path class="st5" d="M41.6,83.3c-0.7,0-1.3-0.1-1.9-0.4c-0.6-0.3-1.1-0.6-1.5-1.1s-0.7-1-1-1.6c-0.2-0.6-0.4-1.2-0.4-1.9
		c0-0.7,0.1-1.3,0.4-1.9c0.2-0.6,0.6-1.1,1-1.5c0.4-0.4,0.9-0.8,1.5-1c0.6-0.3,1.2-0.4,1.9-0.4c0.7,0,1.3,0.1,1.9,0.4
		c0.6,0.3,1.1,0.6,1.5,1.1c0.4,0.4,0.7,1,1,1.5c0.2,0.6,0.3,1.2,0.3,1.8c0,0.1,0,0.2,0,0.3c0,0.1,0,0.2,0,0.2h-8
		c0,0.5,0.2,1,0.4,1.4c0.2,0.4,0.5,0.8,0.8,1.1c0.3,0.3,0.7,0.6,1.1,0.7c0.4,0.2,0.8,0.3,1.3,0.3c0.3,0,0.6,0,0.9-0.1
		c0.3-0.1,0.6-0.2,0.8-0.3c0.3-0.1,0.5-0.3,0.7-0.5s0.4-0.4,0.5-0.7l1.1,0.3c-0.1,0.3-0.3,0.7-0.6,0.9c-0.3,0.3-0.6,0.5-0.9,0.7
		c-0.3,0.2-0.7,0.4-1.2,0.5S42,83.3,41.6,83.3z M45,77.9c0-0.5-0.2-1-0.4-1.4c-0.2-0.4-0.4-0.8-0.8-1.1c-0.3-0.3-0.7-0.5-1.1-0.7
		c-0.4-0.2-0.8-0.3-1.3-0.3s-0.9,0.1-1.3,0.3c-0.4,0.2-0.8,0.4-1.1,0.7s-0.6,0.7-0.7,1.1c-0.2,0.4-0.3,0.9-0.3,1.4H45z"/>
	<path class="st5" d="M56,83.1h-1.2v-5.2c0-1.1-0.2-1.9-0.5-2.4s-0.8-0.8-1.5-0.8c-0.4,0-0.7,0.1-1.1,0.2c-0.4,0.1-0.7,0.3-1,0.6
		c-0.3,0.2-0.6,0.5-0.8,0.9s-0.4,0.7-0.5,1.1v5.7h-1.2v-9.4h1.1v2.1c0.4-0.7,0.9-1.2,1.6-1.7s1.5-0.6,2.3-0.6c0.5,0,1,0.1,1.3,0.3
		c0.4,0.2,0.6,0.5,0.9,0.8c0.2,0.3,0.4,0.8,0.5,1.3c0.1,0.5,0.1,1.1,0.1,1.7V83.1z"/>
	<path class="st5" d="M66.4,83.1h-1.2v-5.2c0-1.1-0.2-1.9-0.5-2.4c-0.4-0.5-0.9-0.8-1.6-0.8c-0.3,0-0.7,0.1-1,0.2
		c-0.3,0.1-0.7,0.3-1,0.6s-0.6,0.5-0.8,0.8c-0.2,0.3-0.4,0.7-0.5,1.1v5.7h-1.2V70h1.2v5.9c0.4-0.7,0.9-1.3,1.5-1.7
		c0.7-0.4,1.4-0.6,2.1-0.6c0.5,0,1,0.1,1.4,0.3s0.7,0.5,0.9,0.8c0.2,0.4,0.4,0.8,0.5,1.3c0.1,0.5,0.2,1,0.2,1.6V83.1z"/>
	<path class="st5" d="M72,83.3c-1,0-1.8-0.3-2.3-1s-0.7-1.7-0.7-3v-5.5h1.2V79c0,2.1,0.7,3.2,2.2,3.2c0.4,0,0.7-0.1,1.1-0.2
		c0.3-0.1,0.7-0.3,1-0.5c0.3-0.2,0.6-0.5,0.8-0.8c0.2-0.3,0.4-0.7,0.6-1.1v-5.9H77v7.8c0,0.3,0.1,0.5,0.4,0.5v1.1
		c-0.1,0-0.3,0-0.4,0s-0.2,0-0.2,0c-0.3,0-0.5-0.1-0.7-0.3c-0.2-0.2-0.3-0.5-0.3-0.8V81c-0.4,0.7-1,1.3-1.7,1.7
		C73.5,83.1,72.8,83.3,72,83.3z"/>
	<path class="st5" d="M93.7,83.1h-1.2v-5.2c0-1.1-0.2-1.9-0.5-2.4c-0.3-0.5-0.9-0.8-1.5-0.8c-0.4,0-0.7,0.1-1,0.2
		c-0.3,0.1-0.6,0.3-0.9,0.6c-0.3,0.2-0.5,0.5-0.7,0.9s-0.4,0.7-0.5,1.1v5.7h-1.2v-5.2c0-1.1-0.2-1.9-0.5-2.4
		c-0.3-0.5-0.9-0.8-1.5-0.8c-0.7,0-1.3,0.2-1.9,0.7c-0.6,0.5-0.9,1.1-1.2,1.9v5.7h-1.2v-9.4h1.1v2.1c0.4-0.7,0.9-1.3,1.5-1.7
		c0.6-0.4,1.3-0.6,2.1-0.6c0.8,0,1.4,0.2,1.9,0.7c0.5,0.4,0.8,1,0.9,1.7c0.9-1.6,2.1-2.4,3.6-2.4c0.5,0,1,0.1,1.3,0.3
		c0.4,0.2,0.7,0.5,0.9,0.8c0.2,0.4,0.4,0.8,0.5,1.3c0.1,0.5,0.2,1.1,0.2,1.7V83.1z"/>
	<path class="st5" d="M100.2,78.4c0-0.7,0.1-1.3,0.3-1.9c0.2-0.6,0.5-1.1,1-1.5c0.4-0.4,0.9-0.8,1.5-1c0.6-0.3,1.2-0.4,1.9-0.4
		c0.9,0,1.7,0.2,2.3,0.6c0.7,0.4,1.2,0.9,1.5,1.6l-1.2,0.4c-0.3-0.5-0.6-0.9-1.1-1.1c-0.5-0.3-1-0.4-1.6-0.4c-0.5,0-0.9,0.1-1.3,0.3
		c-0.4,0.2-0.8,0.5-1.1,0.8c-0.3,0.3-0.5,0.7-0.7,1.2c-0.2,0.5-0.3,1-0.3,1.5c0,0.5,0.1,1,0.3,1.5c0.2,0.5,0.4,0.9,0.7,1.2
		c0.3,0.3,0.7,0.6,1.1,0.8s0.9,0.3,1.3,0.3c0.3,0,0.6,0,0.9-0.1s0.6-0.2,0.8-0.4c0.3-0.2,0.5-0.3,0.6-0.5c0.2-0.2,0.3-0.4,0.4-0.6
		l1.2,0.4c-0.1,0.3-0.3,0.6-0.6,0.9c-0.3,0.3-0.5,0.5-0.9,0.7s-0.7,0.4-1.1,0.5s-0.8,0.2-1.3,0.2c-0.7,0-1.3-0.1-1.9-0.4
		c-0.6-0.3-1.1-0.6-1.5-1.1c-0.4-0.5-0.7-1-1-1.6S100.2,79.1,100.2,78.4z"/>
	<path class="st5" d="M114.7,83.3c-0.7,0-1.3-0.1-1.9-0.4s-1.1-0.6-1.5-1.1c-0.4-0.4-0.7-1-1-1.5c-0.2-0.6-0.3-1.2-0.3-1.9
		c0-0.7,0.1-1.3,0.4-1.9s0.6-1.1,1-1.5s0.9-0.8,1.5-1.1c0.6-0.3,1.2-0.4,1.9-0.4s1.3,0.1,1.9,0.4c0.6,0.3,1.1,0.6,1.5,1.1
		s0.7,1,1,1.5c0.2,0.6,0.4,1.2,0.4,1.9c0,0.6-0.1,1.3-0.3,1.9c-0.2,0.6-0.5,1.1-1,1.5c-0.4,0.4-0.9,0.8-1.5,1.1
		S115.3,83.3,114.7,83.3z M111.3,78.5c0,0.5,0.1,1,0.3,1.5c0.2,0.4,0.4,0.8,0.7,1.2c0.3,0.3,0.7,0.6,1.1,0.8
		c0.4,0.2,0.9,0.3,1.3,0.3s0.9-0.1,1.3-0.3s0.8-0.5,1.1-0.8c0.3-0.3,0.6-0.7,0.7-1.2c0.2-0.5,0.3-0.9,0.3-1.5c0-0.5-0.1-1-0.3-1.5
		c-0.2-0.5-0.4-0.9-0.7-1.2c-0.3-0.3-0.7-0.6-1.1-0.8s-0.9-0.3-1.3-0.3s-0.9,0.1-1.3,0.3c-0.4,0.2-0.8,0.5-1.1,0.8
		c-0.3,0.3-0.6,0.8-0.7,1.2S111.3,77.9,111.3,78.5z"/>
	<path class="st5" d="M129.3,83.1H128v-5.2c0-1.1-0.2-1.9-0.5-2.4s-0.8-0.8-1.5-0.8c-0.4,0-0.7,0.1-1.1,0.2c-0.4,0.1-0.7,0.3-1,0.6
		c-0.3,0.2-0.6,0.5-0.8,0.9s-0.4,0.7-0.5,1.1v5.7h-1.2v-9.4h1.1v2.1c0.4-0.7,0.9-1.2,1.6-1.7s1.5-0.6,2.3-0.6c0.5,0,1,0.1,1.3,0.3
		c0.4,0.2,0.6,0.5,0.9,0.8c0.2,0.3,0.4,0.8,0.5,1.3c0.1,0.5,0.1,1.1,0.1,1.7V83.1z"/>
	<path class="st5" d="M136.3,82.7c-0.1,0-0.2,0.1-0.3,0.1c-0.1,0.1-0.3,0.1-0.5,0.2c-0.2,0.1-0.4,0.1-0.6,0.2
		c-0.2,0-0.5,0.1-0.7,0.1c-0.3,0-0.5,0-0.8-0.1c-0.2-0.1-0.5-0.2-0.6-0.3c-0.2-0.2-0.3-0.3-0.4-0.6c-0.1-0.2-0.2-0.5-0.2-0.8v-6.7
		h-1.3v-1h1.3v-3.2h1.2v3.2h2.2v1h-2.2v6.4c0,0.3,0.1,0.6,0.4,0.8c0.2,0.2,0.5,0.2,0.8,0.2c0.3,0,0.7-0.1,0.9-0.2
		c0.3-0.1,0.4-0.2,0.5-0.2L136.3,82.7z"/>
	<path class="st5" d="M140.2,83.3c-0.4,0-0.9-0.1-1.2-0.2c-0.4-0.2-0.7-0.4-1-0.6c-0.3-0.3-0.5-0.6-0.7-0.9
		c-0.2-0.4-0.2-0.7-0.2-1.1s0.1-0.8,0.3-1.1c0.2-0.3,0.5-0.6,0.8-0.9c0.3-0.3,0.8-0.4,1.2-0.6c0.5-0.1,1-0.2,1.6-0.2
		c0.5,0,1,0,1.5,0.1s0.9,0.2,1.3,0.4v-0.8c0-0.8-0.2-1.5-0.7-2c-0.5-0.5-1.1-0.7-1.9-0.7c-0.5,0-1,0.1-1.5,0.3
		c-0.5,0.2-1,0.5-1.5,0.8l-0.4-0.8c1.2-0.8,2.4-1.2,3.5-1.2c1.2,0,2.1,0.3,2.8,1c0.7,0.7,1,1.6,1,2.7v4.2c0,0.3,0.2,0.5,0.5,0.5v1.1
		c-0.2,0-0.4,0.1-0.5,0.1c-0.3,0-0.6-0.1-0.7-0.2c-0.2-0.2-0.3-0.4-0.3-0.6l0-0.7c-0.4,0.6-1,1-1.6,1.3
		C141.6,83.1,140.9,83.3,140.2,83.3z M140.5,82.4c0.6,0,1.2-0.1,1.8-0.4c0.5-0.2,0.9-0.6,1.2-1c0.1-0.1,0.2-0.2,0.2-0.4
		c0.1-0.1,0.1-0.2,0.1-0.4v-1.5c-0.4-0.2-0.8-0.3-1.3-0.4c-0.4-0.1-0.9-0.1-1.3-0.1c-0.9,0-1.6,0.2-2.1,0.5
		c-0.5,0.4-0.8,0.8-0.8,1.4c0,0.3,0.1,0.6,0.2,0.8s0.3,0.5,0.5,0.7c0.2,0.2,0.4,0.3,0.7,0.4C139.9,82.3,140.1,82.4,140.5,82.4z"/>
	<path class="st5" d="M147,78.4c0-0.7,0.1-1.3,0.3-1.9c0.2-0.6,0.5-1.1,1-1.5c0.4-0.4,0.9-0.8,1.5-1s1.2-0.4,1.9-0.4
		c0.9,0,1.7,0.2,2.3,0.6c0.7,0.4,1.2,0.9,1.5,1.6l-1.2,0.4c-0.3-0.5-0.6-0.9-1.1-1.1c-0.5-0.3-1-0.4-1.6-0.4c-0.5,0-0.9,0.1-1.3,0.3
		c-0.4,0.2-0.8,0.5-1.1,0.8c-0.3,0.3-0.5,0.7-0.7,1.2s-0.3,1-0.3,1.5c0,0.5,0.1,1,0.3,1.5c0.2,0.5,0.4,0.9,0.7,1.2
		c0.3,0.3,0.7,0.6,1.1,0.8s0.9,0.3,1.3,0.3c0.3,0,0.6,0,0.9-0.1s0.6-0.2,0.8-0.4c0.3-0.2,0.5-0.3,0.6-0.5c0.2-0.2,0.3-0.4,0.4-0.6
		l1.2,0.4c-0.1,0.3-0.3,0.6-0.6,0.9c-0.3,0.3-0.5,0.5-0.9,0.7c-0.3,0.2-0.7,0.4-1.1,0.5s-0.8,0.2-1.3,0.2c-0.7,0-1.3-0.1-1.9-0.4
		s-1.1-0.6-1.5-1.1s-0.7-1-1-1.6C147.1,79.7,147,79.1,147,78.4z"/>
	<path class="st5" d="M162,82.7c-0.1,0-0.2,0.1-0.3,0.1c-0.1,0.1-0.3,0.1-0.5,0.2c-0.2,0.1-0.4,0.1-0.6,0.2c-0.2,0-0.5,0.1-0.7,0.1
		c-0.3,0-0.5,0-0.8-0.1c-0.2-0.1-0.5-0.2-0.6-0.3c-0.2-0.2-0.3-0.3-0.4-0.6c-0.1-0.2-0.2-0.5-0.2-0.8v-6.7h-1.3v-1h1.3v-3.2h1.2v3.2
		h2.2v1h-2.2v6.4c0,0.3,0.1,0.6,0.4,0.8c0.2,0.2,0.5,0.2,0.8,0.2c0.3,0,0.7-0.1,0.9-0.2c0.3-0.1,0.4-0.2,0.5-0.2L162,82.7z"/>
	<path class="st5" d="M167.3,83.3c-0.7,0-1.3-0.1-1.9-0.4s-1.1-0.6-1.5-1.1c-0.4-0.4-0.7-1-1-1.5c-0.2-0.6-0.3-1.2-0.3-1.9
		c0-0.7,0.1-1.3,0.4-1.9s0.6-1.1,1-1.5s0.9-0.8,1.5-1.1c0.6-0.3,1.2-0.4,1.9-0.4s1.3,0.1,1.9,0.4c0.6,0.3,1.1,0.6,1.5,1.1
		s0.7,1,1,1.5c0.2,0.6,0.4,1.2,0.4,1.9c0,0.6-0.1,1.3-0.3,1.9c-0.2,0.6-0.5,1.1-1,1.5c-0.4,0.4-0.9,0.8-1.5,1.1S168,83.3,167.3,83.3
		z M163.9,78.5c0,0.5,0.1,1,0.3,1.5c0.2,0.4,0.4,0.8,0.7,1.2c0.3,0.3,0.7,0.6,1.1,0.8c0.4,0.2,0.9,0.3,1.3,0.3s0.9-0.1,1.3-0.3
		s0.8-0.5,1.1-0.8c0.3-0.3,0.6-0.7,0.7-1.2c0.2-0.5,0.3-0.9,0.3-1.5c0-0.5-0.1-1-0.3-1.5c-0.2-0.5-0.4-0.9-0.7-1.2
		c-0.3-0.3-0.7-0.6-1.1-0.8s-0.9-0.3-1.3-0.3s-0.9,0.1-1.3,0.3c-0.4,0.2-0.8,0.5-1.1,0.8c-0.3,0.3-0.6,0.8-0.7,1.2
		S163.9,77.9,163.9,78.5z"/>
	<path class="st5" d="M178,78.4c0-0.7,0.1-1.3,0.3-1.9c0.2-0.6,0.5-1.1,1-1.5c0.4-0.4,0.9-0.8,1.5-1s1.2-0.4,1.9-0.4
		c0.9,0,1.7,0.2,2.3,0.6c0.7,0.4,1.2,0.9,1.5,1.6l-1.2,0.4c-0.3-0.5-0.6-0.9-1.1-1.1c-0.5-0.3-1-0.4-1.6-0.4c-0.5,0-0.9,0.1-1.3,0.3
		c-0.4,0.2-0.8,0.5-1.1,0.8c-0.3,0.3-0.5,0.7-0.7,1.2s-0.3,1-0.3,1.5c0,0.5,0.1,1,0.3,1.5c0.2,0.5,0.4,0.9,0.7,1.2
		c0.3,0.3,0.7,0.6,1.1,0.8s0.9,0.3,1.3,0.3c0.3,0,0.6,0,0.9-0.1s0.6-0.2,0.8-0.4c0.3-0.2,0.5-0.3,0.6-0.5c0.2-0.2,0.3-0.4,0.4-0.6
		l1.2,0.4c-0.1,0.3-0.3,0.6-0.6,0.9c-0.3,0.3-0.5,0.5-0.9,0.7c-0.3,0.2-0.7,0.4-1.1,0.5s-0.8,0.2-1.3,0.2c-0.7,0-1.3-0.1-1.9-0.4
		s-1.1-0.6-1.5-1.1s-0.7-1-1-1.6C178.1,79.7,178,79.1,178,78.4z"/>
	<path class="st5" d="M192.4,83.3c-0.7,0-1.3-0.1-1.9-0.4c-0.6-0.3-1.1-0.6-1.5-1.1c-0.4-0.4-0.7-1-1-1.5c-0.2-0.6-0.3-1.2-0.3-1.9
		c0-0.7,0.1-1.3,0.4-1.9c0.2-0.6,0.6-1.1,1-1.5s0.9-0.8,1.5-1.1c0.6-0.3,1.2-0.4,1.9-0.4c0.7,0,1.3,0.1,1.9,0.4
		c0.6,0.3,1.1,0.6,1.5,1.1s0.7,1,1,1.5s0.4,1.2,0.4,1.9c0,0.6-0.1,1.3-0.3,1.9c-0.2,0.6-0.5,1.1-1,1.5c-0.4,0.4-0.9,0.8-1.5,1.1
		C193.7,83.2,193.1,83.3,192.4,83.3z M189,78.5c0,0.5,0.1,1,0.3,1.5c0.2,0.4,0.4,0.8,0.7,1.2s0.7,0.6,1.1,0.8
		c0.4,0.2,0.9,0.3,1.3,0.3c0.5,0,0.9-0.1,1.3-0.3s0.8-0.5,1.1-0.8c0.3-0.3,0.6-0.7,0.7-1.2s0.3-0.9,0.3-1.5c0-0.5-0.1-1-0.3-1.5
		s-0.4-0.9-0.7-1.2c-0.3-0.3-0.7-0.6-1.1-0.8s-0.9-0.3-1.3-0.3c-0.5,0-0.9,0.1-1.3,0.3s-0.8,0.5-1.1,0.8c-0.3,0.3-0.6,0.8-0.7,1.2
		C189.1,77.5,189,77.9,189,78.5z"/>
	<path class="st5" d="M213.1,83.1h-1.2v-5.2c0-1.1-0.2-1.9-0.5-2.4c-0.3-0.5-0.9-0.8-1.5-0.8c-0.4,0-0.7,0.1-1,0.2
		c-0.3,0.1-0.6,0.3-0.9,0.6c-0.3,0.2-0.5,0.5-0.7,0.9s-0.4,0.7-0.5,1.1v5.7h-1.2v-5.2c0-1.1-0.2-1.9-0.5-2.4s-0.9-0.8-1.5-0.8
		c-0.7,0-1.3,0.2-1.9,0.7c-0.6,0.5-0.9,1.1-1.2,1.9v5.7h-1.2v-9.4h1.1v2.1c0.4-0.7,0.9-1.3,1.5-1.7c0.6-0.4,1.3-0.6,2.1-0.6
		c0.8,0,1.4,0.2,1.9,0.7c0.5,0.4,0.8,1,0.9,1.7c0.9-1.6,2.1-2.4,3.6-2.4c0.5,0,1,0.1,1.3,0.3c0.4,0.2,0.7,0.5,0.9,0.8
		c0.2,0.4,0.4,0.8,0.5,1.3c0.1,0.5,0.2,1.1,0.2,1.7V83.1z"/>
	<path class="st5" d="M224.2,83.3c-0.7,0-1.3-0.1-1.9-0.4c-0.6-0.3-1.1-0.6-1.5-1.1c-0.4-0.4-0.7-1-1-1.5c-0.2-0.6-0.3-1.2-0.3-1.9
		c0-0.7,0.1-1.3,0.4-1.9c0.2-0.6,0.6-1.1,1-1.5s0.9-0.8,1.5-1.1c0.6-0.3,1.2-0.4,1.9-0.4c0.7,0,1.3,0.1,1.9,0.4
		c0.6,0.3,1.1,0.6,1.5,1.1s0.7,1,1,1.5s0.4,1.2,0.4,1.9c0,0.6-0.1,1.3-0.3,1.9c-0.2,0.6-0.5,1.1-1,1.5c-0.4,0.4-0.9,0.8-1.5,1.1
		C225.5,83.2,224.9,83.3,224.2,83.3z M220.8,78.5c0,0.5,0.1,1,0.3,1.5c0.2,0.4,0.4,0.8,0.7,1.2s0.7,0.6,1.1,0.8
		c0.4,0.2,0.9,0.3,1.3,0.3c0.5,0,0.9-0.1,1.3-0.3s0.8-0.5,1.1-0.8c0.3-0.3,0.6-0.7,0.7-1.2s0.3-0.9,0.3-1.5c0-0.5-0.1-1-0.3-1.5
		s-0.4-0.9-0.7-1.2c-0.3-0.3-0.7-0.6-1.1-0.8s-0.9-0.3-1.3-0.3c-0.5,0-0.9,0.1-1.3,0.3s-0.8,0.5-1.1,0.8c-0.3,0.3-0.6,0.8-0.7,1.2
		C220.9,77.5,220.8,77.9,220.8,78.5z"/>
	<path class="st5" d="M238.6,83.3c-0.7,0-1.4-0.1-2.1-0.4c-0.7-0.2-1.3-0.6-1.8-1l0.6-0.8c0.5,0.4,1.1,0.8,1.6,1s1.1,0.3,1.8,0.3
		c0.8,0,1.4-0.2,1.8-0.5c0.5-0.3,0.7-0.7,0.7-1.3c0-0.3-0.1-0.5-0.2-0.7c-0.1-0.2-0.3-0.3-0.5-0.5c-0.2-0.1-0.5-0.2-0.9-0.4
		c-0.4-0.1-0.8-0.2-1.2-0.3c-0.5-0.1-1-0.3-1.4-0.4c-0.4-0.1-0.7-0.3-1-0.5s-0.5-0.4-0.6-0.6c-0.1-0.2-0.2-0.6-0.2-0.9
		c0-0.5,0.1-0.9,0.3-1.2c0.2-0.4,0.4-0.7,0.8-0.9c0.3-0.2,0.7-0.4,1.1-0.5s0.9-0.2,1.4-0.2c0.7,0,1.4,0.1,2,0.4
		c0.6,0.2,1.1,0.5,1.4,0.9l-0.6,0.7c-0.3-0.4-0.8-0.6-1.3-0.8c-0.5-0.2-1-0.3-1.6-0.3c-0.3,0-0.6,0-0.9,0.1
		c-0.3,0.1-0.5,0.2-0.7,0.3c-0.2,0.1-0.4,0.3-0.5,0.5s-0.2,0.5-0.2,0.8c0,0.3,0,0.5,0.1,0.6c0.1,0.2,0.2,0.3,0.4,0.4
		c0.2,0.1,0.4,0.2,0.7,0.3c0.3,0.1,0.7,0.2,1.1,0.3c0.6,0.1,1.1,0.3,1.6,0.4c0.5,0.1,0.8,0.3,1.1,0.5c0.3,0.2,0.5,0.4,0.7,0.7
		c0.2,0.3,0.2,0.6,0.2,1c0,0.9-0.3,1.5-1,2.1C240.7,83,239.8,83.3,238.6,83.3z"/>
	<path class="st5" d="M248.3,83.3c-0.7,0-1.3-0.1-1.9-0.4c-0.6-0.3-1.1-0.6-1.5-1.1c-0.4-0.4-0.7-1-1-1.5c-0.2-0.6-0.3-1.2-0.3-1.9
		c0-0.7,0.1-1.3,0.4-1.9c0.2-0.6,0.6-1.1,1-1.5s0.9-0.8,1.5-1.1c0.6-0.3,1.2-0.4,1.9-0.4c0.7,0,1.3,0.1,1.9,0.4
		c0.6,0.3,1.1,0.6,1.5,1.1s0.7,1,1,1.5s0.4,1.2,0.4,1.9c0,0.6-0.1,1.3-0.3,1.9c-0.2,0.6-0.5,1.1-1,1.5c-0.4,0.4-0.9,0.8-1.5,1.1
		C249.6,83.2,249,83.3,248.3,83.3z M244.9,78.5c0,0.5,0.1,1,0.3,1.5c0.2,0.4,0.4,0.8,0.7,1.2s0.7,0.6,1.1,0.8
		c0.4,0.2,0.9,0.3,1.3,0.3c0.5,0,0.9-0.1,1.3-0.3s0.8-0.5,1.1-0.8c0.3-0.3,0.6-0.7,0.7-1.2s0.3-0.9,0.3-1.5c0-0.5-0.1-1-0.3-1.5
		s-0.4-0.9-0.7-1.2c-0.3-0.3-0.7-0.6-1.1-0.8s-0.9-0.3-1.3-0.3c-0.5,0-0.9,0.1-1.3,0.3s-0.8,0.5-1.1,0.8c-0.3,0.3-0.6,0.8-0.7,1.2
		C245,77.5,244.9,77.9,244.9,78.5z"/>
	<path class="st5" d="M255.1,70h1.2v11c0,0.3,0.1,0.6,0.3,0.8c0.2,0.2,0.5,0.3,0.8,0.3c0.1,0,0.3,0,0.5-0.1c0.2,0,0.3-0.1,0.5-0.1
		l0.2,1c-0.2,0.1-0.5,0.2-0.8,0.2c-0.3,0.1-0.6,0.1-0.9,0.1c-0.6,0-1-0.2-1.3-0.5s-0.5-0.8-0.5-1.3V70z"/>
	<path class="st5" d="M263.9,83.3c-0.7,0-1.3-0.1-1.9-0.4c-0.6-0.3-1.1-0.6-1.5-1.1c-0.4-0.4-0.7-1-1-1.5c-0.2-0.6-0.3-1.2-0.3-1.9
		c0-0.7,0.1-1.3,0.4-1.9c0.2-0.6,0.6-1.1,1-1.5s0.9-0.8,1.5-1.1c0.6-0.3,1.2-0.4,1.9-0.4c0.7,0,1.3,0.1,1.9,0.4
		c0.6,0.3,1.1,0.6,1.5,1.1s0.7,1,1,1.5s0.4,1.2,0.4,1.9c0,0.6-0.1,1.3-0.3,1.9c-0.2,0.6-0.5,1.1-1,1.5c-0.4,0.4-0.9,0.8-1.5,1.1
		C265.2,83.2,264.6,83.3,263.9,83.3z M260.5,78.5c0,0.5,0.1,1,0.3,1.5c0.2,0.4,0.4,0.8,0.7,1.2s0.7,0.6,1.1,0.8
		c0.4,0.2,0.9,0.3,1.3,0.3c0.5,0,0.9-0.1,1.3-0.3s0.8-0.5,1.1-0.8c0.3-0.3,0.6-0.7,0.7-1.2s0.3-0.9,0.3-1.5c0-0.5-0.1-1-0.3-1.5
		s-0.4-0.9-0.7-1.2c-0.3-0.3-0.7-0.6-1.1-0.8s-0.9-0.3-1.3-0.3c-0.5,0-0.9,0.1-1.3,0.3s-0.8,0.5-1.1,0.8c-0.3,0.3-0.6,0.8-0.7,1.2
		C260.6,77.5,260.5,77.9,260.5,78.5z"/>
</g>
</svg>
