<?xml version="1.0" encoding="utf-8"?>
<!-- Generator: Adobe Illustrator 19.1.0, SVG Export Plug-In . SVG Version: 6.00 Build 0)  -->
<svg version="1.1" id="Camada_1" xmlns="http://www.w3.org/2000/svg" xmlns:xlink="http://www.w3.org/1999/xlink" x="0px" y="0px"
	 viewBox="0 0 420 176" style="enable-background:new 0 0 420 176;" xml:space="preserve">
<style type="text/css">
	.st0{fill:#FFFFFF;stroke:#B2B2B2;stroke-width:0.5;stroke-miterlimit:10;}
	.st1{fill:#93221C;}
	.st2{fill:#CB4833;}
</style>
<path class="st0" d="M514.1,72.6"/>
<g>
	<circle class="st1" cx="42" cy="67.1" r="39.5"/>
	<circle class="st2" cx="40.5" cy="61.5" r="39.5"/>
	<path class="st1" d="M71.5,172.7l-4.8,1.2c-0.6,0.2-1.3-0.2-1.5-0.9l-17.4-68.6c-0.2-0.6,0.2-1.3,0.9-1.5l4.8-1.2
		c0.6-0.2,1.3,0.2,1.5,0.9l17.4,68.6C72.5,171.9,72.1,172.6,71.5,172.7z"/>
</g>
<path class="st0" d="M60,5.6"/>
<polygon class="st0" points="413.6,5.4 413.6,110.4 132.6,110.4 132.6,51.9 60,5.6 "/>
<g>
	<path d="M156.9,28.1c-0.4-0.4-0.8-0.7-1.4-1s-1.3-0.4-2.1-0.4c-1.1,0-2,0.2-2.5,0.6c-0.5,0.4-0.8,1-0.8,1.7c0,0.4,0.1,0.7,0.2,0.9
		c0.1,0.2,0.4,0.5,0.6,0.6s0.7,0.3,1.1,0.5c0.5,0.1,1,0.3,1.6,0.4c0.7,0.1,1.3,0.3,1.8,0.5c0.5,0.2,1,0.4,1.4,0.7
		c0.4,0.3,0.7,0.6,0.9,1c0.2,0.4,0.3,0.9,0.3,1.4c0,0.6-0.1,1.1-0.3,1.5c-0.2,0.4-0.5,0.8-1,1.1c-0.4,0.3-0.9,0.5-1.5,0.6
		c-0.6,0.1-1.2,0.2-1.9,0.2c-2,0-3.7-0.6-5.1-1.9l0.6-1c0.2,0.2,0.5,0.5,0.8,0.7c0.3,0.2,0.7,0.4,1.1,0.6s0.8,0.3,1.3,0.4
		s0.9,0.1,1.4,0.1c1,0,1.8-0.2,2.4-0.5c0.6-0.4,0.9-0.9,0.9-1.7c0-0.4-0.1-0.7-0.2-1c-0.2-0.3-0.4-0.5-0.7-0.7
		c-0.3-0.2-0.7-0.4-1.2-0.5c-0.5-0.1-1-0.3-1.7-0.4c-0.7-0.2-1.3-0.3-1.8-0.5c-0.5-0.2-0.9-0.4-1.3-0.6s-0.6-0.6-0.8-0.9
		c-0.2-0.4-0.3-0.8-0.3-1.3c0-0.6,0.1-1.1,0.3-1.6s0.5-0.8,0.9-1.2c0.4-0.3,0.9-0.5,1.4-0.7c0.6-0.2,1.2-0.2,1.8-0.2
		c0.9,0,1.6,0.1,2.3,0.4c0.7,0.3,1.3,0.6,1.8,1.1L156.9,28.1z"/>
	<path d="M160.8,27.3L160,27l1.1-1.7h1.3L160.8,27.3z M160.1,38.5v-9.4h1.2v9.4H160.1z"/>
	<path d="M178,38.5h-1.2v-5.2c0-1.1-0.2-1.9-0.5-2.4c-0.3-0.5-0.9-0.8-1.5-0.8c-0.4,0-0.7,0.1-1,0.2c-0.3,0.1-0.6,0.3-0.9,0.6
		c-0.3,0.2-0.5,0.5-0.7,0.9s-0.4,0.7-0.5,1.1v5.7h-1.2v-5.2c0-1.1-0.2-1.9-0.5-2.4c-0.3-0.5-0.9-0.8-1.5-0.8c-0.7,0-1.3,0.2-1.9,0.7
		c-0.6,0.5-0.9,1.1-1.2,1.9v5.7H164v-9.4h1.1v2.1c0.4-0.7,0.9-1.3,1.5-1.7c0.6-0.4,1.3-0.6,2.1-0.6c0.8,0,1.4,0.2,1.9,0.7
		c0.5,0.4,0.8,1,0.9,1.7c0.9-1.6,2.1-2.4,3.6-2.4c0.5,0,1,0.1,1.3,0.3s0.7,0.5,0.9,0.8c0.2,0.4,0.4,0.8,0.5,1.3s0.2,1.1,0.2,1.7
		V38.5z"/>
	<path d="M185.2,38.7c-0.7,0-1.4-0.2-2-0.6s-1.1-0.9-1.4-1.4v1.8h-1.1V25.3h1.2v5.7c0.4-0.6,0.9-1.1,1.5-1.5
		c0.6-0.4,1.3-0.6,2.1-0.6c0.7,0,1.3,0.1,1.8,0.4c0.5,0.3,1,0.6,1.3,1.1c0.4,0.5,0.6,1,0.8,1.6c0.2,0.6,0.3,1.2,0.3,1.8
		c0,0.7-0.1,1.3-0.3,1.9s-0.5,1.1-0.9,1.5s-0.9,0.8-1.4,1S185.8,38.7,185.2,38.7z M184.9,37.6c0.5,0,1-0.1,1.4-0.3
		c0.4-0.2,0.8-0.5,1.1-0.8s0.5-0.8,0.7-1.2c0.2-0.4,0.3-0.9,0.3-1.4c0-0.5-0.1-1-0.2-1.4s-0.4-0.9-0.7-1.2s-0.6-0.6-1.1-0.8
		c-0.4-0.2-0.9-0.3-1.4-0.3c-0.4,0-0.7,0.1-1,0.2c-0.3,0.1-0.6,0.3-0.9,0.5c-0.3,0.2-0.5,0.5-0.7,0.7c-0.2,0.3-0.4,0.6-0.5,0.9v2.9
		c0,0.3,0.2,0.6,0.4,0.9c0.2,0.3,0.5,0.5,0.8,0.7s0.6,0.4,1,0.5C184.3,37.5,184.6,37.6,184.9,37.6z"/>
	<path d="M195.7,38.7c-0.7,0-1.3-0.1-1.9-0.4c-0.6-0.3-1.1-0.6-1.5-1.1s-0.7-1-1-1.5c-0.2-0.6-0.3-1.2-0.3-1.9
		c0-0.7,0.1-1.3,0.4-1.9c0.2-0.6,0.6-1.1,1-1.5c0.4-0.4,0.9-0.8,1.5-1.1c0.6-0.3,1.2-0.4,1.9-0.4c0.7,0,1.3,0.1,1.9,0.4
		c0.6,0.3,1.1,0.6,1.5,1.1c0.4,0.4,0.7,1,1,1.5c0.2,0.6,0.4,1.2,0.4,1.9c0,0.6-0.1,1.3-0.3,1.9c-0.2,0.6-0.5,1.1-1,1.5
		s-0.9,0.8-1.5,1.1C197,38.5,196.4,38.7,195.7,38.7z M192.3,33.8c0,0.5,0.1,1,0.3,1.5c0.2,0.4,0.4,0.8,0.7,1.2
		c0.3,0.3,0.7,0.6,1.1,0.8s0.9,0.3,1.3,0.3c0.5,0,0.9-0.1,1.3-0.3c0.4-0.2,0.8-0.5,1.1-0.8c0.3-0.3,0.6-0.7,0.7-1.2
		c0.2-0.5,0.3-0.9,0.3-1.5c0-0.5-0.1-1-0.3-1.5c-0.2-0.5-0.4-0.9-0.7-1.2s-0.7-0.6-1.1-0.8c-0.4-0.2-0.9-0.3-1.3-0.3
		c-0.5,0-0.9,0.1-1.3,0.3c-0.4,0.2-0.8,0.5-1.1,0.8c-0.3,0.3-0.6,0.8-0.7,1.2C192.4,32.8,192.3,33.3,192.3,33.8z"/>
	<path d="M202.5,25.3h1.2v11c0,0.3,0.1,0.6,0.3,0.8c0.2,0.2,0.5,0.3,0.8,0.3c0.1,0,0.3,0,0.5-0.1c0.2,0,0.3-0.1,0.5-0.1l0.2,1
		c-0.2,0.1-0.5,0.2-0.8,0.2c-0.3,0.1-0.6,0.1-0.9,0.1c-0.6,0-1-0.2-1.3-0.5c-0.3-0.3-0.5-0.8-0.5-1.3V25.3z"/>
	<path d="M211.3,38.7c-0.7,0-1.3-0.1-1.9-0.4c-0.6-0.3-1.1-0.6-1.5-1.1s-0.7-1-1-1.5c-0.2-0.6-0.3-1.2-0.3-1.9
		c0-0.7,0.1-1.3,0.4-1.9c0.2-0.6,0.6-1.1,1-1.5c0.4-0.4,0.9-0.8,1.5-1.1c0.6-0.3,1.2-0.4,1.9-0.4c0.7,0,1.3,0.1,1.9,0.4
		c0.6,0.3,1.1,0.6,1.5,1.1c0.4,0.4,0.7,1,1,1.5c0.2,0.6,0.4,1.2,0.4,1.9c0,0.6-0.1,1.3-0.3,1.9c-0.2,0.6-0.5,1.1-1,1.5
		s-0.9,0.8-1.5,1.1C212.6,38.5,212,38.7,211.3,38.7z M207.9,33.8c0,0.5,0.1,1,0.3,1.5c0.2,0.4,0.4,0.8,0.7,1.2
		c0.3,0.3,0.7,0.6,1.1,0.8s0.9,0.3,1.3,0.3c0.5,0,0.9-0.1,1.3-0.3c0.4-0.2,0.8-0.5,1.1-0.8c0.3-0.3,0.6-0.7,0.7-1.2
		c0.2-0.5,0.3-0.9,0.3-1.5c0-0.5-0.1-1-0.3-1.5s-0.4-0.9-0.7-1.2c-0.3-0.3-0.7-0.6-1.1-0.8c-0.4-0.2-0.9-0.3-1.3-0.3
		c-0.5,0-0.9,0.1-1.3,0.3c-0.4,0.2-0.8,0.5-1.1,0.8c-0.3,0.3-0.6,0.8-0.7,1.2C208,32.8,207.9,33.3,207.9,33.8z"/>
	<path d="M225,38.7c-0.4,0-0.9-0.1-1.2-0.2s-0.7-0.4-1-0.6c-0.3-0.3-0.5-0.6-0.7-0.9c-0.2-0.4-0.2-0.7-0.2-1.1
		c0-0.4,0.1-0.8,0.3-1.1c0.2-0.3,0.5-0.6,0.8-0.9c0.3-0.3,0.8-0.4,1.2-0.6c0.5-0.1,1-0.2,1.6-0.2c0.5,0,1,0,1.5,0.1s0.9,0.2,1.3,0.4
		v-0.8c0-0.8-0.2-1.5-0.7-2s-1.1-0.7-1.9-0.7c-0.5,0-1,0.1-1.5,0.3s-1,0.5-1.5,0.8l-0.4-0.8c1.2-0.8,2.4-1.2,3.5-1.2
		c1.2,0,2.1,0.3,2.8,1c0.7,0.7,1,1.6,1,2.7v4.2c0,0.3,0.2,0.5,0.5,0.5v1.1c-0.2,0-0.4,0.1-0.5,0.1c-0.3,0-0.6-0.1-0.7-0.2
		c-0.2-0.2-0.3-0.4-0.3-0.6l0-0.7c-0.4,0.6-1,1-1.6,1.3C226.4,38.5,225.7,38.7,225,38.7z M225.2,37.7c0.6,0,1.2-0.1,1.8-0.4
		c0.5-0.2,0.9-0.6,1.2-1c0.1-0.1,0.2-0.2,0.2-0.4c0.1-0.1,0.1-0.2,0.1-0.4v-1.5c-0.4-0.2-0.8-0.3-1.3-0.4c-0.4-0.1-0.9-0.1-1.3-0.1
		c-0.9,0-1.6,0.2-2.1,0.5c-0.5,0.4-0.8,0.8-0.8,1.4c0,0.3,0.1,0.6,0.2,0.8s0.3,0.5,0.5,0.7c0.2,0.2,0.4,0.3,0.7,0.4
		C224.6,37.7,224.9,37.7,225.2,37.7z"/>
	<path d="M237.2,38.7c-0.8,0-1.5-0.2-2.1-0.6c-0.6-0.4-1.1-0.9-1.5-1.5v5.8h-1.2V29.1h1.1v1.8c0.4-0.6,0.9-1.1,1.5-1.4
		c0.6-0.4,1.3-0.5,2-0.5c0.6,0,1.2,0.1,1.8,0.4c0.5,0.3,1,0.6,1.4,1.1c0.4,0.5,0.7,1,0.9,1.6c0.2,0.6,0.3,1.2,0.3,1.8
		c0,0.7-0.1,1.3-0.3,1.9c-0.2,0.6-0.5,1.1-0.9,1.5s-0.8,0.8-1.3,1.1C238.4,38.5,237.8,38.7,237.2,38.7z M236.9,37.6
		c0.5,0,1-0.1,1.4-0.3c0.4-0.2,0.8-0.5,1.1-0.9c0.3-0.4,0.5-0.8,0.7-1.2c0.2-0.4,0.2-0.9,0.2-1.4c0-0.5-0.1-1-0.3-1.4
		c-0.2-0.5-0.4-0.9-0.7-1.2c-0.3-0.3-0.7-0.6-1.1-0.8s-0.9-0.3-1.4-0.3c-0.3,0-0.6,0.1-1,0.2c-0.3,0.1-0.7,0.3-1,0.5
		s-0.5,0.5-0.8,0.7c-0.2,0.3-0.3,0.6-0.4,0.9v2.9c0.1,0.3,0.3,0.6,0.5,0.9c0.2,0.3,0.5,0.5,0.8,0.7c0.3,0.2,0.6,0.4,0.9,0.5
		C236.2,37.5,236.5,37.6,236.9,37.6z"/>
	<path d="M248.2,30.2c-0.8,0-1.5,0.3-2.2,0.7c-0.6,0.4-1,1-1.3,1.8v5.8h-1.2v-9.4h1.2v2.3c0.3-0.7,0.8-1.3,1.4-1.7
		c0.6-0.4,1.2-0.6,1.9-0.6c0.1,0,0.2,0,0.2,0V30.2z"/>
	<path d="M253.4,38.7c-0.7,0-1.3-0.1-1.9-0.4c-0.6-0.3-1.1-0.6-1.5-1.1s-0.7-1-1-1.6c-0.2-0.6-0.4-1.2-0.4-1.9
		c0-0.7,0.1-1.3,0.4-1.9c0.2-0.6,0.6-1.1,1-1.5s0.9-0.8,1.5-1c0.6-0.3,1.2-0.4,1.9-0.4c0.7,0,1.3,0.1,1.9,0.4
		c0.6,0.3,1.1,0.6,1.5,1.1c0.4,0.4,0.7,1,1,1.5c0.2,0.6,0.3,1.2,0.3,1.8c0,0.1,0,0.2,0,0.3s0,0.2,0,0.2h-8c0,0.5,0.2,1,0.4,1.4
		c0.2,0.4,0.5,0.8,0.8,1.1c0.3,0.3,0.7,0.6,1.1,0.7c0.4,0.2,0.8,0.3,1.3,0.3c0.3,0,0.6,0,0.9-0.1c0.3-0.1,0.6-0.2,0.8-0.3
		s0.5-0.3,0.7-0.5s0.4-0.4,0.5-0.7l1.1,0.3c-0.1,0.3-0.3,0.7-0.6,0.9s-0.6,0.5-0.9,0.7c-0.3,0.2-0.7,0.4-1.2,0.5
		C254.3,38.6,253.9,38.7,253.4,38.7z M256.9,33.3c0-0.5-0.2-1-0.4-1.4c-0.2-0.4-0.4-0.8-0.8-1.1c-0.3-0.3-0.7-0.5-1.1-0.7
		c-0.4-0.2-0.8-0.3-1.3-0.3s-0.9,0.1-1.3,0.3c-0.4,0.2-0.8,0.4-1.1,0.7s-0.6,0.7-0.7,1.1c-0.2,0.4-0.3,0.9-0.3,1.4H256.9z"/>
	<path d="M263,38.7c-0.7,0-1.4-0.1-2.1-0.4c-0.7-0.2-1.3-0.6-1.8-1l0.6-0.8c0.5,0.4,1.1,0.8,1.6,1c0.5,0.2,1.1,0.3,1.8,0.3
		c0.8,0,1.4-0.2,1.8-0.5c0.5-0.3,0.7-0.7,0.7-1.3c0-0.3-0.1-0.5-0.2-0.7c-0.1-0.2-0.3-0.3-0.5-0.5c-0.2-0.1-0.5-0.2-0.9-0.4
		c-0.4-0.1-0.8-0.2-1.2-0.3c-0.5-0.1-1-0.3-1.4-0.4c-0.4-0.1-0.7-0.3-1-0.4s-0.5-0.4-0.6-0.6c-0.1-0.2-0.2-0.6-0.2-0.9
		c0-0.5,0.1-0.9,0.3-1.2c0.2-0.4,0.4-0.7,0.8-0.9c0.3-0.2,0.7-0.4,1.1-0.5s0.9-0.2,1.4-0.2c0.7,0,1.4,0.1,2,0.4s1.1,0.5,1.4,0.9
		l-0.6,0.7c-0.3-0.4-0.8-0.6-1.3-0.8s-1-0.3-1.6-0.3c-0.3,0-0.6,0-0.9,0.1c-0.3,0.1-0.5,0.2-0.7,0.3s-0.4,0.3-0.5,0.5
		c-0.1,0.2-0.2,0.5-0.2,0.8c0,0.3,0,0.5,0.1,0.6c0.1,0.2,0.2,0.3,0.4,0.4c0.2,0.1,0.4,0.2,0.7,0.3c0.3,0.1,0.7,0.2,1.1,0.3
		c0.6,0.1,1.1,0.3,1.6,0.4c0.5,0.1,0.8,0.3,1.1,0.5c0.3,0.2,0.5,0.4,0.7,0.7c0.2,0.3,0.2,0.6,0.2,1c0,0.9-0.3,1.5-1,2.1
		C265.1,38.4,264.2,38.7,263,38.7z"/>
	<path d="M272.7,38.7c-0.7,0-1.3-0.1-1.9-0.4s-1.1-0.6-1.5-1.1c-0.4-0.5-0.7-1-1-1.6c-0.2-0.6-0.4-1.2-0.4-1.9
		c0-0.7,0.1-1.3,0.4-1.9c0.2-0.6,0.6-1.1,1-1.5s0.9-0.8,1.5-1c0.6-0.3,1.2-0.4,1.9-0.4c0.7,0,1.3,0.1,1.9,0.4
		c0.6,0.3,1.1,0.6,1.5,1.1c0.4,0.4,0.7,1,1,1.5c0.2,0.6,0.3,1.2,0.3,1.8c0,0.1,0,0.2,0,0.3s0,0.2,0,0.2h-8c0,0.5,0.2,1,0.4,1.4
		c0.2,0.4,0.5,0.8,0.8,1.1c0.3,0.3,0.7,0.6,1.1,0.7c0.4,0.2,0.8,0.3,1.3,0.3c0.3,0,0.6,0,0.9-0.1s0.6-0.2,0.8-0.3s0.5-0.3,0.7-0.5
		c0.2-0.2,0.4-0.4,0.5-0.7l1.1,0.3c-0.1,0.3-0.3,0.7-0.6,0.9c-0.3,0.3-0.6,0.5-0.9,0.7c-0.3,0.2-0.7,0.4-1.2,0.5
		C273.6,38.6,273.2,38.7,272.7,38.7z M276.2,33.3c0-0.5-0.2-1-0.4-1.4s-0.5-0.8-0.8-1.1c-0.3-0.3-0.7-0.5-1.1-0.7s-0.8-0.3-1.3-0.3
		s-0.9,0.1-1.3,0.3s-0.8,0.4-1.1,0.7c-0.3,0.3-0.6,0.7-0.7,1.1c-0.2,0.4-0.3,0.9-0.3,1.4H276.2z"/>
	<path d="M287.1,38.5h-1.2v-5.2c0-1.1-0.2-1.9-0.5-2.4c-0.3-0.5-0.8-0.8-1.5-0.8c-0.4,0-0.7,0.1-1.1,0.2c-0.4,0.1-0.7,0.3-1,0.6
		c-0.3,0.2-0.6,0.5-0.8,0.9c-0.2,0.3-0.4,0.7-0.5,1.1v5.7h-1.2v-9.4h1.1v2.1c0.4-0.7,0.9-1.2,1.6-1.7c0.7-0.4,1.5-0.6,2.3-0.6
		c0.5,0,1,0.1,1.3,0.3c0.4,0.2,0.6,0.5,0.9,0.8s0.4,0.8,0.5,1.3c0.1,0.5,0.1,1.1,0.1,1.7V38.5z"/>
	<path d="M294.2,38c-0.1,0-0.2,0.1-0.3,0.1c-0.1,0.1-0.3,0.1-0.5,0.2c-0.2,0.1-0.4,0.1-0.6,0.2c-0.2,0-0.5,0.1-0.7,0.1
		c-0.3,0-0.5,0-0.8-0.1c-0.2-0.1-0.5-0.2-0.6-0.3c-0.2-0.1-0.3-0.3-0.4-0.6s-0.2-0.5-0.2-0.8v-6.7h-1.3v-1h1.3v-3.2h1.2v3.2h2.2v1
		h-2.2v6.4c0,0.3,0.1,0.6,0.4,0.8c0.2,0.2,0.5,0.2,0.8,0.2c0.3,0,0.7-0.1,0.9-0.2c0.3-0.1,0.4-0.2,0.5-0.2L294.2,38z"/>
	<path d="M298.1,38.7c-0.4,0-0.9-0.1-1.2-0.2s-0.7-0.4-1-0.6c-0.3-0.3-0.5-0.6-0.7-0.9c-0.2-0.4-0.2-0.7-0.2-1.1
		c0-0.4,0.1-0.8,0.3-1.1c0.2-0.3,0.5-0.6,0.8-0.9c0.3-0.3,0.8-0.4,1.2-0.6c0.5-0.1,1-0.2,1.6-0.2c0.5,0,1,0,1.5,0.1s0.9,0.2,1.3,0.4
		v-0.8c0-0.8-0.2-1.5-0.7-2s-1.1-0.7-1.9-0.7c-0.5,0-1,0.1-1.5,0.3s-1,0.5-1.5,0.8l-0.4-0.8c1.2-0.8,2.4-1.2,3.5-1.2
		c1.2,0,2.1,0.3,2.8,1c0.7,0.7,1,1.6,1,2.7v4.2c0,0.3,0.2,0.5,0.5,0.5v1.1c-0.2,0-0.4,0.1-0.5,0.1c-0.3,0-0.6-0.1-0.7-0.2
		c-0.2-0.2-0.3-0.4-0.3-0.6l0-0.7c-0.4,0.6-1,1-1.6,1.3C299.5,38.5,298.8,38.7,298.1,38.7z M298.3,37.7c0.6,0,1.2-0.1,1.8-0.4
		c0.5-0.2,0.9-0.6,1.2-1c0.1-0.1,0.2-0.2,0.2-0.4c0.1-0.1,0.1-0.2,0.1-0.4v-1.5c-0.4-0.2-0.8-0.3-1.3-0.4c-0.4-0.1-0.9-0.1-1.3-0.1
		c-0.9,0-1.6,0.2-2.1,0.5c-0.5,0.4-0.8,0.8-0.8,1.4c0,0.3,0.1,0.6,0.2,0.8s0.3,0.5,0.5,0.7c0.2,0.2,0.4,0.3,0.7,0.4
		C297.7,37.7,298,37.7,298.3,37.7z"/>
	<path d="M309.4,38.7c-0.6,0-1.2-0.1-1.8-0.4s-1-0.6-1.4-1.1c-0.4-0.4-0.7-1-0.9-1.5c-0.2-0.6-0.3-1.2-0.3-1.8
		c0-0.7,0.1-1.3,0.3-1.9c0.2-0.6,0.5-1.1,0.9-1.6c0.4-0.4,0.8-0.8,1.3-1.1c0.5-0.3,1.1-0.4,1.7-0.4c0.8,0,1.5,0.2,2.1,0.6
		s1.1,0.9,1.4,1.5v-5.7h1.2v11.6c0,0.3,0.1,0.5,0.4,0.5v1.1c-0.2,0-0.3,0.1-0.4,0.1c-0.3,0-0.5-0.1-0.8-0.3
		c-0.2-0.2-0.3-0.4-0.3-0.7v-0.9c-0.4,0.6-0.9,1.1-1.5,1.5C310.7,38.5,310,38.7,309.4,38.7z M309.6,37.6c0.3,0,0.6-0.1,1-0.2
		c0.3-0.1,0.7-0.3,1-0.5c0.3-0.2,0.6-0.5,0.8-0.7c0.2-0.3,0.3-0.6,0.4-0.9v-2.9c-0.1-0.3-0.3-0.6-0.5-0.9c-0.2-0.3-0.5-0.5-0.8-0.7
		c-0.3-0.2-0.6-0.4-0.9-0.5s-0.7-0.2-1-0.2c-0.5,0-1,0.1-1.4,0.3c-0.4,0.2-0.8,0.5-1.1,0.9c-0.3,0.4-0.5,0.8-0.7,1.2
		c-0.2,0.5-0.2,0.9-0.2,1.4c0,0.5,0.1,1,0.3,1.4c0.2,0.5,0.4,0.9,0.7,1.2c0.3,0.3,0.7,0.6,1.1,0.8C308.7,37.5,309.1,37.6,309.6,37.6
		z"/>
	<path d="M320.7,38.7c-0.7,0-1.3-0.1-1.9-0.4s-1.1-0.6-1.5-1.1s-0.7-1-1-1.5c-0.2-0.6-0.3-1.2-0.3-1.9c0-0.7,0.1-1.3,0.4-1.9
		c0.2-0.6,0.6-1.1,1-1.5c0.4-0.4,0.9-0.8,1.5-1.1c0.6-0.3,1.2-0.4,1.9-0.4s1.3,0.1,1.9,0.4c0.6,0.3,1.1,0.6,1.5,1.1
		c0.4,0.4,0.7,1,1,1.5c0.2,0.6,0.4,1.2,0.4,1.9c0,0.6-0.1,1.3-0.3,1.9c-0.2,0.6-0.5,1.1-1,1.5s-0.9,0.8-1.5,1.1
		S321.4,38.7,320.7,38.7z M317.3,33.8c0,0.5,0.1,1,0.3,1.5c0.2,0.4,0.4,0.8,0.7,1.2c0.3,0.3,0.7,0.6,1.1,0.8s0.9,0.3,1.3,0.3
		s0.9-0.1,1.3-0.3c0.4-0.2,0.8-0.5,1.1-0.8c0.3-0.3,0.6-0.7,0.7-1.2c0.2-0.5,0.3-0.9,0.3-1.5c0-0.5-0.1-1-0.3-1.5
		c-0.2-0.5-0.4-0.9-0.7-1.2c-0.3-0.3-0.7-0.6-1.1-0.8c-0.4-0.2-0.9-0.3-1.3-0.3s-0.9,0.1-1.3,0.3c-0.4,0.2-0.8,0.5-1.1,0.8
		c-0.3,0.3-0.6,0.8-0.7,1.2S317.3,33.3,317.3,33.8z"/>
	<path d="M151.6,60.3c-0.4,0-0.9-0.1-1.2-0.2s-0.7-0.4-1-0.6c-0.3-0.3-0.5-0.6-0.7-0.9c-0.2-0.4-0.2-0.7-0.2-1.1
		c0-0.4,0.1-0.8,0.3-1.1c0.2-0.3,0.5-0.6,0.8-0.9s0.8-0.4,1.2-0.6c0.5-0.1,1-0.2,1.6-0.2c0.5,0,1,0,1.5,0.1c0.5,0.1,0.9,0.2,1.3,0.4
		v-0.8c0-0.8-0.2-1.5-0.7-2c-0.5-0.5-1.1-0.7-1.9-0.7c-0.5,0-1,0.1-1.5,0.3s-1,0.5-1.5,0.8l-0.4-0.8c1.2-0.8,2.4-1.2,3.5-1.2
		c1.2,0,2.1,0.3,2.8,1c0.7,0.7,1,1.6,1,2.7v4.2c0,0.3,0.1,0.5,0.4,0.5v1.1c-0.2,0-0.4,0.1-0.5,0.1c-0.3,0-0.6-0.1-0.7-0.2
		c-0.2-0.2-0.3-0.4-0.3-0.6l0-0.7c-0.4,0.6-1,1-1.6,1.3C153,60.1,152.3,60.3,151.6,60.3z M151.8,59.3c0.6,0,1.2-0.1,1.8-0.4
		c0.5-0.2,0.9-0.6,1.2-1c0.1-0.1,0.2-0.2,0.2-0.4s0.1-0.2,0.1-0.4v-1.5c-0.4-0.2-0.8-0.3-1.3-0.4c-0.4-0.1-0.9-0.1-1.3-0.1
		c-0.9,0-1.6,0.2-2.1,0.5c-0.5,0.4-0.8,0.8-0.8,1.4c0,0.3,0.1,0.6,0.2,0.8c0.1,0.3,0.3,0.5,0.5,0.7c0.2,0.2,0.4,0.3,0.7,0.4
		C151.2,59.3,151.5,59.3,151.8,59.3z"/>
	<path d="M162.6,60.3c-0.6,0-1.2-0.1-1.7-0.4s-1-0.6-1.3-1.1c-0.4-0.4-0.7-1-0.9-1.5s-0.3-1.2-0.3-1.8c0-0.6,0.1-1.3,0.3-1.9
		c0.2-0.6,0.5-1.1,0.9-1.5c0.4-0.4,0.9-0.8,1.4-1.1c0.5-0.3,1.1-0.4,1.8-0.4c0.4,0,0.7,0.1,1.1,0.2c0.3,0.1,0.7,0.2,1,0.4
		c0.3,0.2,0.6,0.4,0.8,0.6c0.2,0.2,0.5,0.5,0.6,0.8v-1.8h1.1v11.6c0,0.3,0.1,0.5,0.5,0.5v1.1c-0.1,0-0.2,0-0.4,0c-0.1,0-0.2,0-0.3,0
		c-0.3,0-0.5-0.1-0.7-0.4s-0.3-0.5-0.3-0.7v-4.7c-0.5,0.7-1,1.2-1.6,1.6C164,60.1,163.3,60.3,162.6,60.3z M163,59.2
		c0.4,0,0.7-0.1,1-0.2c0.3-0.1,0.6-0.3,0.9-0.5c0.3-0.2,0.5-0.4,0.7-0.7c0.2-0.3,0.4-0.6,0.6-0.9v-2.9c0-0.3-0.2-0.6-0.4-0.9
		s-0.5-0.6-0.7-0.8c-0.3-0.2-0.6-0.4-1-0.5c-0.3-0.1-0.7-0.2-1-0.2c-0.5,0-1,0.1-1.4,0.3c-0.4,0.2-0.8,0.5-1.1,0.9
		c-0.3,0.4-0.5,0.8-0.7,1.2s-0.3,0.9-0.3,1.4c0,0.5,0.1,1,0.3,1.4c0.2,0.5,0.4,0.9,0.7,1.2c0.3,0.3,0.7,0.6,1.1,0.8
		C162.1,59.1,162.5,59.2,163,59.2z"/>
	<path d="M173,60.3c-1,0-1.8-0.3-2.3-1c-0.5-0.7-0.7-1.7-0.7-3v-5.5h1.2V56c0,2.1,0.7,3.2,2.2,3.2c0.4,0,0.7-0.1,1.1-0.2
		c0.3-0.1,0.7-0.3,1-0.5c0.3-0.2,0.6-0.5,0.8-0.8c0.2-0.3,0.4-0.7,0.6-1.1v-5.9h1.2v7.8c0,0.3,0.1,0.5,0.4,0.5v1.1
		c-0.1,0-0.3,0-0.4,0s-0.2,0-0.2,0c-0.3,0-0.5-0.1-0.7-0.3S177,59.4,177,59v-1.1c-0.4,0.7-1,1.3-1.7,1.7
		C174.6,60.1,173.8,60.3,173,60.3z"/>
	<path d="M183.2,60.3c-0.4,0-0.9-0.1-1.2-0.2s-0.7-0.4-1-0.6c-0.3-0.3-0.5-0.6-0.7-0.9c-0.2-0.4-0.2-0.7-0.2-1.1
		c0-0.4,0.1-0.8,0.3-1.1c0.2-0.3,0.5-0.6,0.8-0.9s0.8-0.4,1.2-0.6c0.5-0.1,1-0.2,1.6-0.2c0.5,0,1,0,1.5,0.1c0.5,0.1,0.9,0.2,1.3,0.4
		v-0.8c0-0.8-0.2-1.5-0.7-2c-0.5-0.5-1.1-0.7-1.9-0.7c-0.5,0-1,0.1-1.5,0.3s-1,0.5-1.5,0.8l-0.4-0.8c1.2-0.8,2.4-1.2,3.5-1.2
		c1.2,0,2.1,0.3,2.8,1c0.7,0.7,1,1.6,1,2.7v4.2c0,0.3,0.1,0.5,0.4,0.5v1.1c-0.2,0-0.4,0.1-0.5,0.1c-0.3,0-0.6-0.1-0.7-0.2
		c-0.2-0.2-0.3-0.4-0.3-0.6l0-0.7c-0.4,0.6-1,1-1.6,1.3C184.6,60.1,183.9,60.3,183.2,60.3z M183.5,59.3c0.6,0,1.2-0.1,1.8-0.4
		c0.5-0.2,0.9-0.6,1.2-1c0.1-0.1,0.2-0.2,0.2-0.4s0.1-0.2,0.1-0.4v-1.5c-0.4-0.2-0.8-0.3-1.3-0.4c-0.4-0.1-0.9-0.1-1.3-0.1
		c-0.9,0-1.6,0.2-2.1,0.5c-0.5,0.4-0.8,0.8-0.8,1.4c0,0.3,0.1,0.6,0.2,0.8c0.1,0.3,0.3,0.5,0.5,0.7c0.2,0.2,0.4,0.3,0.7,0.4
		C182.8,59.3,183.1,59.3,183.5,59.3z"/>
	<path d="M198.5,60.1h-1.2v-5.2c0-1.1-0.2-1.9-0.5-2.4c-0.3-0.5-0.8-0.8-1.5-0.8c-0.4,0-0.7,0.1-1.1,0.2c-0.4,0.1-0.7,0.3-1,0.6
		c-0.3,0.2-0.6,0.5-0.8,0.9c-0.2,0.3-0.4,0.7-0.5,1.1v5.7h-1.2v-9.4h1.1v2.1c0.4-0.7,0.9-1.2,1.6-1.7c0.7-0.4,1.5-0.6,2.3-0.6
		c0.5,0,1,0.1,1.3,0.3c0.4,0.2,0.6,0.5,0.9,0.8c0.2,0.3,0.4,0.8,0.5,1.3s0.1,1.1,0.1,1.7V60.1z"/>
	<path d="M205,60.3c-0.6,0-1.2-0.1-1.8-0.4s-1-0.6-1.4-1.1s-0.7-1-0.9-1.5c-0.2-0.6-0.3-1.2-0.3-1.8c0-0.7,0.1-1.3,0.3-1.9
		c0.2-0.6,0.5-1.1,0.9-1.6c0.4-0.4,0.8-0.8,1.4-1.1c0.5-0.3,1.1-0.4,1.7-0.4c0.8,0,1.5,0.2,2.1,0.6c0.6,0.4,1.1,0.9,1.4,1.5v-5.7
		h1.2v11.6c0,0.3,0.1,0.5,0.4,0.5v1.1c-0.2,0-0.3,0.1-0.4,0.1c-0.3,0-0.5-0.1-0.8-0.3c-0.2-0.2-0.3-0.4-0.3-0.7v-0.9
		c-0.4,0.6-0.9,1.1-1.5,1.5C206.3,60.1,205.6,60.3,205,60.3z M205.2,59.2c0.3,0,0.6-0.1,1-0.2c0.3-0.1,0.7-0.3,1-0.5
		c0.3-0.2,0.6-0.5,0.8-0.7c0.2-0.3,0.3-0.6,0.4-0.9V54c-0.1-0.3-0.3-0.6-0.5-0.9c-0.2-0.3-0.5-0.5-0.8-0.7c-0.3-0.2-0.6-0.4-0.9-0.5
		s-0.7-0.2-1-0.2c-0.5,0-1,0.1-1.4,0.3c-0.4,0.2-0.8,0.5-1.1,0.9c-0.3,0.4-0.5,0.8-0.7,1.2s-0.2,0.9-0.2,1.4c0,0.5,0.1,1,0.3,1.4
		c0.2,0.5,0.4,0.9,0.7,1.2c0.3,0.3,0.7,0.6,1.1,0.8C204.3,59.1,204.7,59.2,205.2,59.2z"/>
	<path d="M216.3,60.3c-0.7,0-1.3-0.1-1.9-0.4s-1.1-0.6-1.5-1.1s-0.7-1-1-1.5c-0.2-0.6-0.3-1.2-0.3-1.9c0-0.7,0.1-1.3,0.4-1.9
		c0.2-0.6,0.6-1.1,1-1.5c0.4-0.4,0.9-0.8,1.5-1.1c0.6-0.3,1.2-0.4,1.9-0.4s1.3,0.1,1.9,0.4c0.6,0.3,1.1,0.6,1.5,1.1
		c0.4,0.4,0.7,1,1,1.5c0.2,0.6,0.4,1.2,0.4,1.9c0,0.6-0.1,1.3-0.3,1.9c-0.2,0.6-0.5,1.1-1,1.5s-0.9,0.8-1.5,1.1S217,60.3,216.3,60.3
		z M212.9,55.4c0,0.5,0.1,1,0.3,1.5c0.2,0.4,0.4,0.8,0.7,1.2c0.3,0.3,0.7,0.6,1.1,0.8s0.9,0.3,1.3,0.3s0.9-0.1,1.3-0.3
		c0.4-0.2,0.8-0.5,1.1-0.8c0.3-0.3,0.6-0.7,0.7-1.2c0.2-0.5,0.3-0.9,0.3-1.5c0-0.5-0.1-1-0.3-1.5c-0.2-0.5-0.4-0.9-0.7-1.2
		c-0.3-0.3-0.7-0.6-1.1-0.8c-0.4-0.2-0.9-0.3-1.3-0.3s-0.9,0.1-1.3,0.3c-0.4,0.2-0.8,0.5-1.1,0.8c-0.3,0.3-0.6,0.8-0.7,1.2
		S212.9,54.9,212.9,55.4z"/>
	<path d="M230,60.3c-0.4,0-0.9-0.1-1.2-0.2s-0.7-0.4-1-0.6c-0.3-0.3-0.5-0.6-0.7-0.9s-0.2-0.7-0.2-1.1c0-0.4,0.1-0.8,0.3-1.1
		c0.2-0.3,0.5-0.6,0.8-0.9c0.3-0.3,0.8-0.4,1.2-0.6c0.5-0.1,1-0.2,1.6-0.2c0.5,0,1,0,1.5,0.1c0.5,0.1,0.9,0.2,1.3,0.4v-0.8
		c0-0.8-0.2-1.5-0.7-2c-0.5-0.5-1.1-0.7-1.9-0.7c-0.5,0-1,0.1-1.5,0.3s-1,0.5-1.5,0.8l-0.4-0.8c1.2-0.8,2.4-1.2,3.5-1.2
		c1.2,0,2.1,0.3,2.8,1c0.7,0.7,1,1.6,1,2.7v4.2c0,0.3,0.1,0.5,0.4,0.5v1.1c-0.2,0-0.4,0.1-0.5,0.1c-0.3,0-0.6-0.1-0.7-0.2
		c-0.2-0.2-0.3-0.4-0.3-0.6l0-0.7c-0.4,0.6-1,1-1.6,1.3S230.7,60.3,230,60.3z M230.3,59.3c0.6,0,1.2-0.1,1.8-0.4
		c0.5-0.2,0.9-0.6,1.2-1c0.1-0.1,0.2-0.2,0.2-0.4c0.1-0.1,0.1-0.2,0.1-0.4v-1.5c-0.4-0.2-0.8-0.3-1.3-0.4c-0.4-0.1-0.9-0.1-1.3-0.1
		c-0.9,0-1.6,0.2-2.1,0.5s-0.8,0.8-0.8,1.4c0,0.3,0.1,0.6,0.2,0.8c0.1,0.3,0.3,0.5,0.5,0.7s0.4,0.3,0.7,0.4S229.9,59.3,230.3,59.3z"
		/>
	<path d="M246.5,59.6c-0.1,0-0.2,0.1-0.3,0.1c-0.1,0.1-0.3,0.1-0.5,0.2s-0.4,0.1-0.6,0.2c-0.2,0-0.5,0.1-0.7,0.1
		c-0.3,0-0.5,0-0.8-0.1s-0.5-0.2-0.6-0.3c-0.2-0.1-0.3-0.3-0.4-0.6c-0.1-0.2-0.2-0.5-0.2-0.8v-6.7h-1.3v-1h1.3v-3.2h1.2v3.2h2.2v1
		h-2.2V58c0,0.3,0.1,0.6,0.4,0.8c0.2,0.2,0.5,0.2,0.8,0.2c0.3,0,0.7-0.1,0.9-0.2c0.3-0.1,0.4-0.2,0.5-0.2L246.5,59.6z"/>
	<path d="M251.9,60.3c-0.7,0-1.3-0.1-1.9-0.4c-0.6-0.3-1.1-0.6-1.5-1.1s-0.7-1-1-1.6c-0.2-0.6-0.4-1.2-0.4-1.9
		c0-0.7,0.1-1.3,0.4-1.9c0.2-0.6,0.6-1.1,1-1.5s0.9-0.8,1.5-1c0.6-0.3,1.2-0.4,1.9-0.4c0.7,0,1.3,0.1,1.9,0.4
		c0.6,0.3,1.1,0.6,1.5,1.1c0.4,0.4,0.7,1,1,1.5c0.2,0.6,0.3,1.2,0.3,1.8c0,0.1,0,0.2,0,0.3s0,0.2,0,0.2h-8c0,0.5,0.2,1,0.4,1.4
		c0.2,0.4,0.5,0.8,0.8,1.1c0.3,0.3,0.7,0.6,1.1,0.7c0.4,0.2,0.8,0.3,1.3,0.3c0.3,0,0.6,0,0.9-0.1c0.3-0.1,0.6-0.2,0.8-0.3
		s0.5-0.3,0.7-0.5s0.4-0.4,0.5-0.7l1.1,0.3c-0.1,0.3-0.3,0.7-0.6,0.9s-0.6,0.5-0.9,0.7c-0.3,0.2-0.7,0.4-1.2,0.5
		C252.7,60.2,252.3,60.3,251.9,60.3z M255.3,54.9c0-0.5-0.2-1-0.4-1.4c-0.2-0.4-0.4-0.8-0.8-1.1c-0.3-0.3-0.7-0.5-1.1-0.7
		c-0.4-0.2-0.8-0.3-1.3-0.3s-0.9,0.1-1.3,0.3c-0.4,0.2-0.8,0.4-1.1,0.7s-0.6,0.7-0.7,1.1c-0.2,0.4-0.3,0.9-0.3,1.4H255.3z"/>
	<path d="M263,51.8c-0.8,0-1.5,0.3-2.2,0.7c-0.6,0.4-1,1-1.3,1.8v5.8h-1.2v-9.4h1.2v2.3c0.3-0.7,0.8-1.3,1.4-1.7
		c0.6-0.4,1.2-0.6,1.9-0.6c0.1,0,0.2,0,0.2,0V51.8z"/>
	<path d="M263.6,55.4c0-0.7,0.1-1.3,0.3-1.9c0.2-0.6,0.5-1.1,1-1.5s0.9-0.8,1.5-1s1.2-0.4,1.9-0.4c0.9,0,1.7,0.2,2.3,0.6
		c0.7,0.4,1.2,0.9,1.5,1.6l-1.2,0.4c-0.3-0.5-0.6-0.9-1.1-1.1c-0.5-0.3-1-0.4-1.6-0.4c-0.5,0-0.9,0.1-1.3,0.3s-0.8,0.5-1.1,0.8
		c-0.3,0.3-0.5,0.7-0.7,1.2s-0.3,1-0.3,1.5c0,0.5,0.1,1,0.3,1.5c0.2,0.5,0.4,0.9,0.7,1.2c0.3,0.3,0.7,0.6,1.1,0.8
		c0.4,0.2,0.9,0.3,1.3,0.3c0.3,0,0.6,0,0.9-0.1s0.6-0.2,0.8-0.4s0.5-0.3,0.6-0.5c0.2-0.2,0.3-0.4,0.4-0.6l1.2,0.4
		c-0.1,0.3-0.3,0.6-0.6,0.9s-0.5,0.5-0.9,0.7c-0.3,0.2-0.7,0.4-1.1,0.5c-0.4,0.1-0.8,0.2-1.3,0.2c-0.7,0-1.3-0.1-1.9-0.4
		s-1.1-0.6-1.5-1.1s-0.7-1-1-1.6C263.7,56.7,263.6,56,263.6,55.4z"/>
	<path d="M278.1,60.3c-0.7,0-1.3-0.1-1.9-0.4c-0.6-0.3-1.1-0.6-1.5-1.1s-0.7-1-1-1.6c-0.2-0.6-0.4-1.2-0.4-1.9
		c0-0.7,0.1-1.3,0.4-1.9c0.2-0.6,0.6-1.1,1-1.5s0.9-0.8,1.5-1c0.6-0.3,1.2-0.4,1.9-0.4c0.7,0,1.3,0.1,1.9,0.4
		c0.6,0.3,1.1,0.6,1.5,1.1c0.4,0.4,0.7,1,1,1.5c0.2,0.6,0.3,1.2,0.3,1.8c0,0.1,0,0.2,0,0.3s0,0.2,0,0.2h-8c0,0.5,0.2,1,0.4,1.4
		c0.2,0.4,0.5,0.8,0.8,1.1c0.3,0.3,0.7,0.6,1.1,0.7c0.4,0.2,0.8,0.3,1.3,0.3c0.3,0,0.6,0,0.9-0.1c0.3-0.1,0.6-0.2,0.8-0.3
		s0.5-0.3,0.7-0.5s0.4-0.4,0.5-0.7l1.1,0.3c-0.1,0.3-0.3,0.7-0.6,0.9s-0.6,0.5-0.9,0.7c-0.3,0.2-0.7,0.4-1.2,0.5
		C279,60.2,278.5,60.3,278.1,60.3z M281.5,54.9c0-0.5-0.2-1-0.4-1.4c-0.2-0.4-0.4-0.8-0.8-1.1c-0.3-0.3-0.7-0.5-1.1-0.7
		c-0.4-0.2-0.8-0.3-1.3-0.3s-0.9,0.1-1.3,0.3c-0.4,0.2-0.8,0.4-1.1,0.7s-0.6,0.7-0.7,1.1c-0.2,0.4-0.3,0.9-0.3,1.4H281.5z"/>
	<path d="M284.6,48.7v-1.8h1.2v1.8H284.6z M284.6,60.1v-9.4h1.2v9.4H284.6z"/>
	<path d="M293.2,51.8c-0.8,0-1.5,0.3-2.2,0.7c-0.6,0.4-1,1-1.3,1.8v5.8h-1.2v-9.4h1.2v2.3c0.3-0.7,0.8-1.3,1.4-1.7
		c0.6-0.4,1.2-0.6,1.9-0.6c0.1,0,0.2,0,0.2,0V51.8z"/>
	<path d="M297,60.3c-0.4,0-0.9-0.1-1.2-0.2s-0.7-0.4-1-0.6c-0.3-0.3-0.5-0.6-0.7-0.9s-0.2-0.7-0.2-1.1c0-0.4,0.1-0.8,0.3-1.1
		c0.2-0.3,0.5-0.6,0.8-0.9c0.3-0.3,0.8-0.4,1.2-0.6c0.5-0.1,1-0.2,1.6-0.2c0.5,0,1,0,1.5,0.1c0.5,0.1,0.9,0.2,1.3,0.4v-0.8
		c0-0.8-0.2-1.5-0.7-2c-0.5-0.5-1.1-0.7-1.9-0.7c-0.5,0-1,0.1-1.5,0.3s-1,0.5-1.5,0.8l-0.4-0.8c1.2-0.8,2.4-1.2,3.5-1.2
		c1.2,0,2.1,0.3,2.8,1c0.7,0.7,1,1.6,1,2.7v4.2c0,0.3,0.1,0.5,0.4,0.5v1.1c-0.2,0-0.4,0.1-0.5,0.1c-0.3,0-0.6-0.1-0.7-0.2
		c-0.2-0.2-0.3-0.4-0.3-0.6l0-0.7c-0.4,0.6-1,1-1.6,1.3S297.8,60.3,297,60.3z M297.3,59.3c0.6,0,1.2-0.1,1.8-0.4
		c0.5-0.2,0.9-0.6,1.2-1c0.1-0.1,0.2-0.2,0.2-0.4c0.1-0.1,0.1-0.2,0.1-0.4v-1.5c-0.4-0.2-0.8-0.3-1.3-0.4c-0.4-0.1-0.9-0.1-1.3-0.1
		c-0.9,0-1.6,0.2-2.1,0.5s-0.8,0.8-0.8,1.4c0,0.3,0.1,0.6,0.2,0.8c0.1,0.3,0.3,0.5,0.5,0.7s0.4,0.3,0.7,0.4S297,59.3,297.3,59.3z"/>
	<path d="M309.1,48.7v-1.8h1.2v1.8H309.1z M309.1,60.1v-9.4h1.2v9.4H309.1z"/>
	<path d="M320.9,60.1h-1.2v-5.2c0-1.1-0.2-1.9-0.5-2.4s-0.8-0.8-1.5-0.8c-0.4,0-0.7,0.1-1.1,0.2c-0.4,0.1-0.7,0.3-1,0.6
		c-0.3,0.2-0.6,0.5-0.8,0.9s-0.4,0.7-0.5,1.1v5.7H313v-9.4h1.1v2.1c0.4-0.7,0.9-1.2,1.6-1.7c0.7-0.4,1.5-0.6,2.3-0.6
		c0.5,0,1,0.1,1.3,0.3s0.6,0.5,0.9,0.8c0.2,0.3,0.4,0.8,0.5,1.3c0.1,0.5,0.1,1.1,0.1,1.7V60.1z"/>
	<path d="M323.9,60.1v-8.4h-1.3v-1h1.3v-0.3c0-1.2,0.2-2.1,0.7-2.7c0.5-0.7,1.2-1,2-1c0.4,0,0.7,0.1,1.1,0.2
		c0.3,0.1,0.6,0.3,0.9,0.4l-0.4,0.9c-0.2-0.1-0.4-0.2-0.6-0.3c-0.2-0.1-0.5-0.1-0.7-0.1c-0.6,0-1,0.2-1.3,0.7
		c-0.3,0.4-0.5,1.1-0.5,1.9v0.3h2.6v1h-2.6v8.4H323.9z"/>
	<path d="M334,51.8c-0.8,0-1.5,0.3-2.2,0.7c-0.6,0.4-1,1-1.3,1.8v5.8h-1.2v-9.4h1.2v2.3c0.3-0.7,0.8-1.3,1.4-1.7
		c0.6-0.4,1.2-0.6,1.9-0.6c0.1,0,0.2,0,0.2,0V51.8z"/>
	<path d="M337.9,60.3c-0.4,0-0.9-0.1-1.2-0.2s-0.7-0.4-1-0.6c-0.3-0.3-0.5-0.6-0.7-0.9c-0.2-0.4-0.2-0.7-0.2-1.1
		c0-0.4,0.1-0.8,0.3-1.1c0.2-0.3,0.5-0.6,0.8-0.9c0.3-0.3,0.8-0.4,1.2-0.6c0.5-0.1,1-0.2,1.6-0.2c0.5,0,1,0,1.5,0.1s0.9,0.2,1.3,0.4
		v-0.8c0-0.8-0.2-1.5-0.7-2s-1.1-0.7-1.9-0.7c-0.5,0-1,0.1-1.5,0.3s-1,0.5-1.5,0.8l-0.4-0.8c1.2-0.8,2.4-1.2,3.5-1.2
		c1.2,0,2.1,0.3,2.8,1c0.7,0.7,1,1.6,1,2.7v4.2c0,0.3,0.2,0.5,0.5,0.5v1.1c-0.2,0-0.4,0.1-0.5,0.1c-0.3,0-0.6-0.1-0.7-0.2
		c-0.2-0.2-0.3-0.4-0.3-0.6l0-0.7c-0.4,0.6-1,1-1.6,1.3C339.4,60.1,338.7,60.3,337.9,60.3z M338.2,59.3c0.6,0,1.2-0.1,1.8-0.4
		c0.5-0.2,0.9-0.6,1.2-1c0.1-0.1,0.2-0.2,0.2-0.4c0.1-0.1,0.1-0.2,0.1-0.4v-1.5c-0.4-0.2-0.8-0.3-1.3-0.4c-0.4-0.1-0.9-0.1-1.3-0.1
		c-0.9,0-1.6,0.2-2.1,0.5c-0.5,0.4-0.8,0.8-0.8,1.4c0,0.3,0.1,0.6,0.2,0.8s0.3,0.5,0.5,0.7c0.2,0.2,0.4,0.3,0.7,0.4
		C337.6,59.3,337.9,59.3,338.2,59.3z"/>
	<path d="M348,62.3c0.2,0.1,0.4,0.2,0.7,0.2c0.3,0.1,0.6,0.1,0.9,0.1c0.7,0,1-0.2,1-0.6c0-0.2-0.1-0.4-0.2-0.5
		c-0.2-0.1-0.4-0.1-0.7-0.1c-0.3,0-0.5,0-0.8,0.1s-0.5,0.1-0.6,0.2l0.8-1.4c-0.6,0-1.2-0.2-1.7-0.5c-0.5-0.3-1-0.6-1.4-1.1
		c-0.4-0.4-0.7-1-0.9-1.5c-0.2-0.6-0.3-1.2-0.3-1.8c0-0.7,0.1-1.3,0.3-1.9c0.2-0.6,0.5-1.1,1-1.5s0.9-0.8,1.5-1
		c0.6-0.3,1.2-0.4,1.9-0.4c0.9,0,1.7,0.2,2.3,0.6c0.7,0.4,1.2,0.9,1.5,1.6l-1.2,0.4c-0.3-0.5-0.6-0.9-1.1-1.1
		c-0.5-0.3-1-0.4-1.6-0.4c-0.5,0-0.9,0.1-1.3,0.3s-0.8,0.5-1.1,0.8c-0.3,0.3-0.5,0.7-0.7,1.2c-0.2,0.5-0.3,1-0.3,1.5
		c0,0.5,0.1,1,0.3,1.5c0.2,0.5,0.4,0.9,0.7,1.2c0.3,0.3,0.7,0.6,1.1,0.8c0.4,0.2,0.9,0.3,1.3,0.3c0.3,0,0.6,0,0.9-0.1
		s0.6-0.2,0.8-0.4c0.3-0.1,0.5-0.3,0.6-0.5c0.2-0.2,0.3-0.4,0.4-0.6l1.2,0.4c-0.3,0.6-0.7,1.2-1.3,1.6c-0.6,0.4-1.4,0.7-2.2,0.7
		l-0.5,0.8c0.1,0,0.2-0.1,0.4-0.1c0.1,0,0.2,0,0.3,0c0.4,0,0.8,0.1,1,0.3c0.2,0.2,0.4,0.5,0.4,0.8c0,0.4-0.2,0.7-0.5,0.9
		c-0.3,0.2-0.8,0.3-1.4,0.3c-0.3,0-0.7,0-1-0.1s-0.6-0.1-0.8-0.2L348,62.3z"/>
	<path d="M357.6,60.3c-0.4,0-0.9-0.1-1.2-0.2s-0.7-0.4-1-0.6c-0.3-0.3-0.5-0.6-0.7-0.9c-0.2-0.4-0.2-0.7-0.2-1.1
		c0-0.4,0.1-0.8,0.3-1.1c0.2-0.3,0.5-0.6,0.8-0.9c0.3-0.3,0.8-0.4,1.2-0.6c0.5-0.1,1-0.2,1.6-0.2c0.5,0,1,0,1.5,0.1s0.9,0.2,1.3,0.4
		v-0.8c0-0.8-0.2-1.5-0.7-2s-1.1-0.7-1.9-0.7c-0.5,0-1,0.1-1.5,0.3s-1,0.5-1.5,0.8l-0.4-0.8c1.2-0.8,2.4-1.2,3.5-1.2
		c1.2,0,2.1,0.3,2.8,1c0.7,0.7,1,1.6,1,2.7v4.2c0,0.3,0.2,0.5,0.5,0.5v1.1c-0.2,0-0.4,0.1-0.5,0.1c-0.3,0-0.6-0.1-0.7-0.2
		c-0.2-0.2-0.3-0.4-0.3-0.6l0-0.7c-0.4,0.6-1,1-1.6,1.3C359.1,60.1,358.4,60.3,357.6,60.3z M357.9,59.3c0.6,0,1.2-0.1,1.8-0.4
		c0.5-0.2,0.9-0.6,1.2-1c0.1-0.1,0.2-0.2,0.2-0.4c0.1-0.1,0.1-0.2,0.1-0.4v-1.5c-0.4-0.2-0.8-0.3-1.3-0.4c-0.4-0.1-0.9-0.1-1.3-0.1
		c-0.9,0-1.6,0.2-2.1,0.5c-0.5,0.4-0.8,0.8-0.8,1.4c0,0.3,0.1,0.6,0.2,0.8s0.3,0.5,0.5,0.7c0.2,0.2,0.4,0.3,0.7,0.4
		C357.3,59.3,357.6,59.3,357.9,59.3z M359.7,48.6c-0.3,0-0.5,0-0.7-0.1c-0.2-0.1-0.4-0.2-0.6-0.2c-0.2-0.1-0.3-0.2-0.5-0.3
		c-0.2-0.1-0.3-0.1-0.5-0.1c-0.2,0-0.4,0-0.5,0.1c-0.1,0.1-0.2,0.2-0.3,0.3c-0.1,0.1-0.1,0.2-0.1,0.3c0,0.1,0,0.1,0,0.2h-0.8
		c0-0.1,0-0.2,0.1-0.4c0-0.2,0.1-0.4,0.2-0.6s0.3-0.4,0.5-0.5c0.2-0.1,0.5-0.2,0.8-0.2c0.3,0,0.5,0,0.7,0.1c0.2,0.1,0.4,0.2,0.5,0.3
		c0.2,0.1,0.3,0.2,0.5,0.3s0.4,0.1,0.6,0.1c0.2,0,0.4,0,0.5-0.1c0.1-0.1,0.2-0.2,0.3-0.3c0.1-0.1,0.1-0.2,0.1-0.3c0-0.1,0-0.1,0-0.2
		h0.8c0,0.1,0,0.2-0.1,0.4c0,0.2-0.1,0.4-0.3,0.6c-0.1,0.2-0.3,0.4-0.5,0.5C360.4,48.5,360.1,48.6,359.7,48.6z"/>
	<path d="M369,60.3c-0.7,0-1.3-0.1-1.9-0.4c-0.6-0.3-1.1-0.6-1.5-1.1s-0.7-1-1-1.5c-0.2-0.6-0.3-1.2-0.3-1.9c0-0.7,0.1-1.3,0.4-1.9
		c0.2-0.6,0.6-1.1,1-1.5c0.4-0.4,0.9-0.8,1.5-1.1c0.6-0.3,1.2-0.4,1.9-0.4c0.7,0,1.3,0.1,1.9,0.4c0.6,0.3,1.1,0.6,1.5,1.1
		c0.4,0.4,0.7,1,1,1.5c0.2,0.6,0.4,1.2,0.4,1.9c0,0.6-0.1,1.3-0.3,1.9c-0.2,0.6-0.5,1.1-1,1.5s-0.9,0.8-1.5,1.1
		C370.4,60.1,369.7,60.3,369,60.3z M365.6,55.4c0,0.5,0.1,1,0.3,1.5c0.2,0.4,0.4,0.8,0.7,1.2c0.3,0.3,0.7,0.6,1.1,0.8
		s0.9,0.3,1.3,0.3c0.5,0,0.9-0.1,1.3-0.3c0.4-0.2,0.8-0.5,1.1-0.8c0.3-0.3,0.6-0.7,0.7-1.2c0.2-0.5,0.3-0.9,0.3-1.5
		c0-0.5-0.1-1-0.3-1.5s-0.4-0.9-0.7-1.2c-0.3-0.3-0.7-0.6-1.1-0.8c-0.4-0.2-0.9-0.3-1.3-0.3c-0.5,0-0.9,0.1-1.3,0.3
		c-0.4,0.2-0.8,0.5-1.1,0.8c-0.3,0.3-0.6,0.8-0.7,1.2C365.7,54.4,365.6,54.9,365.6,55.4z"/>
	<path d="M375.6,52.5v-1.8h1v1.8H375.6z M375.6,60.1v-1.8h1v1.8H375.6z"/>
	<path d="M152.3,81.9c-0.7,0-1.4-0.1-2.1-0.4c-0.7-0.2-1.3-0.6-1.8-1l0.6-0.8c0.5,0.4,1.1,0.8,1.6,1c0.5,0.2,1.1,0.3,1.8,0.3
		c0.8,0,1.4-0.2,1.8-0.5c0.5-0.3,0.7-0.7,0.7-1.3c0-0.3-0.1-0.5-0.2-0.7c-0.1-0.2-0.3-0.3-0.5-0.5c-0.2-0.1-0.5-0.2-0.9-0.4
		s-0.8-0.2-1.2-0.3c-0.5-0.1-1-0.3-1.4-0.4c-0.4-0.1-0.7-0.3-1-0.4c-0.3-0.2-0.5-0.4-0.6-0.6c-0.1-0.2-0.2-0.6-0.2-0.9
		c0-0.5,0.1-0.9,0.3-1.2s0.4-0.7,0.8-0.9s0.7-0.4,1.1-0.5c0.4-0.1,0.9-0.2,1.4-0.2c0.7,0,1.4,0.1,2,0.4s1.1,0.5,1.4,0.9l-0.6,0.7
		c-0.3-0.4-0.8-0.6-1.3-0.8s-1-0.3-1.6-0.3c-0.3,0-0.6,0-0.9,0.1s-0.5,0.2-0.7,0.3s-0.4,0.3-0.5,0.5c-0.1,0.2-0.2,0.5-0.2,0.8
		c0,0.3,0,0.5,0.1,0.6c0.1,0.2,0.2,0.3,0.4,0.4c0.2,0.1,0.4,0.2,0.7,0.3c0.3,0.1,0.7,0.2,1.1,0.3c0.6,0.1,1.1,0.3,1.6,0.4
		c0.5,0.1,0.8,0.3,1.1,0.5s0.5,0.4,0.7,0.7c0.2,0.3,0.2,0.6,0.2,1c0,0.9-0.3,1.5-1,2.1C154.3,81.6,153.4,81.9,152.3,81.9z"/>
	<path d="M158,70.3v-1.8h1.2v1.8H158z M158,81.7v-9.4h1.2v9.4H158z"/>
	<path d="M165.7,81.8c-0.6,0-1.2-0.1-1.8-0.4s-1-0.6-1.4-1.1c-0.4-0.4-0.7-1-0.9-1.5c-0.2-0.6-0.3-1.2-0.3-1.8
		c0-0.6,0.1-1.3,0.3-1.9c0.2-0.6,0.5-1.1,0.9-1.6c0.4-0.4,0.8-0.8,1.4-1.1c0.5-0.3,1.1-0.4,1.8-0.4c0.8,0,1.5,0.2,2.1,0.6
		c0.6,0.4,1.1,0.9,1.5,1.5v-2h1.1v9.4c0,0.6-0.1,1.2-0.4,1.7s-0.6,0.9-1,1.3s-0.9,0.6-1.5,0.8c-0.6,0.2-1.1,0.3-1.8,0.3
		c-1.1,0-2-0.2-2.6-0.6c-0.7-0.4-1.2-0.9-1.6-1.5l0.8-0.6c0.4,0.6,0.9,1,1.5,1.3c0.6,0.3,1.3,0.4,2,0.4c0.5,0,0.9-0.1,1.3-0.2
		c0.4-0.1,0.8-0.3,1.1-0.6c0.3-0.2,0.5-0.6,0.7-0.9c0.2-0.4,0.3-0.8,0.3-1.3v-1.9c-0.4,0.6-0.9,1.1-1.5,1.4
		C167,81.6,166.3,81.8,165.7,81.8z M166,80.8c0.4,0,0.7-0.1,1.1-0.2c0.3-0.1,0.7-0.3,0.9-0.5c0.3-0.2,0.5-0.5,0.7-0.7
		c0.2-0.3,0.3-0.6,0.4-0.8v-2.9c-0.1-0.3-0.3-0.6-0.5-0.9s-0.5-0.5-0.8-0.7c-0.3-0.2-0.6-0.4-0.9-0.5c-0.3-0.1-0.7-0.2-1-0.2
		c-0.5,0-1,0.1-1.4,0.3s-0.8,0.5-1.1,0.9c-0.3,0.4-0.5,0.8-0.7,1.2c-0.2,0.5-0.2,0.9-0.2,1.4c0,0.5,0.1,1,0.3,1.4
		c0.2,0.5,0.4,0.9,0.7,1.2c0.3,0.3,0.7,0.6,1.1,0.8C165,80.7,165.5,80.8,166,80.8z"/>
	<path d="M180.9,81.7h-1.2v-5.2c0-1.1-0.2-1.9-0.5-2.4c-0.3-0.5-0.8-0.8-1.5-0.8c-0.4,0-0.7,0.1-1.1,0.2c-0.4,0.1-0.7,0.3-1,0.6
		c-0.3,0.2-0.6,0.5-0.8,0.9c-0.2,0.3-0.4,0.7-0.5,1.1v5.7H173v-9.4h1.1v2.1c0.4-0.7,0.9-1.2,1.6-1.7c0.7-0.4,1.5-0.6,2.3-0.6
		c0.5,0,1,0.1,1.3,0.3c0.4,0.2,0.6,0.5,0.9,0.8c0.2,0.3,0.4,0.8,0.5,1.3s0.1,1.1,0.1,1.7V81.7z"/>
	<path d="M183.5,70.3v-1.8h1.2v1.8H183.5z M183.5,81.7v-9.4h1.2v9.4H183.5z"/>
	<path d="M187.9,73.3h-1.3v-1h1.3V72c0-0.4,0.1-0.9,0.2-1.3c0.1-0.4,0.3-0.8,0.6-1.2s0.6-0.6,1-0.9c0.4-0.2,0.9-0.3,1.5-0.3
		c0.3,0,0.6,0,0.9,0.1c0.3,0.1,0.5,0.1,0.8,0.2c0.2,0.1,0.4,0.2,0.6,0.3s0.3,0.2,0.4,0.3l-0.6,0.9c-0.2-0.2-0.5-0.3-0.9-0.5
		c-0.4-0.1-0.8-0.2-1.2-0.2c-0.4,0-0.7,0.1-1,0.2s-0.5,0.4-0.7,0.6c-0.2,0.2-0.3,0.5-0.4,0.8s-0.1,0.6-0.1,0.9v0.3h4.7v9.4h-1.2
		v-8.4h-3.5v8.4h-1.2V73.3z"/>
	<path d="M195.9,77c0-0.7,0.1-1.3,0.3-1.9s0.5-1.1,1-1.5s0.9-0.8,1.5-1c0.6-0.3,1.2-0.4,1.9-0.4c0.9,0,1.7,0.2,2.3,0.6
		c0.7,0.4,1.2,0.9,1.5,1.6l-1.2,0.4c-0.3-0.5-0.6-0.9-1.1-1.1s-1-0.4-1.6-0.4c-0.5,0-0.9,0.1-1.3,0.3s-0.8,0.5-1.1,0.8
		c-0.3,0.3-0.5,0.7-0.7,1.2c-0.2,0.5-0.3,1-0.3,1.5c0,0.5,0.1,1,0.3,1.5c0.2,0.5,0.4,0.9,0.7,1.2c0.3,0.3,0.7,0.6,1.1,0.8
		c0.4,0.2,0.9,0.3,1.3,0.3c0.3,0,0.6,0,0.9-0.1s0.6-0.2,0.8-0.4c0.3-0.1,0.5-0.3,0.6-0.5c0.2-0.2,0.3-0.4,0.4-0.6l1.2,0.4
		c-0.1,0.3-0.3,0.6-0.6,0.9s-0.5,0.5-0.9,0.7c-0.3,0.2-0.7,0.4-1.1,0.5c-0.4,0.1-0.8,0.2-1.3,0.2c-0.7,0-1.3-0.1-1.9-0.4
		c-0.6-0.3-1.1-0.6-1.5-1.1c-0.4-0.5-0.7-1-1-1.6C196,78.3,195.9,77.6,195.9,77z"/>
	<path d="M208.7,81.9c-0.4,0-0.9-0.1-1.2-0.2s-0.7-0.4-1-0.6c-0.3-0.3-0.5-0.6-0.7-0.9c-0.2-0.4-0.2-0.7-0.2-1.1
		c0-0.4,0.1-0.8,0.3-1.1c0.2-0.3,0.5-0.6,0.8-0.9s0.8-0.4,1.2-0.6c0.5-0.1,1-0.2,1.6-0.2c0.5,0,1,0,1.5,0.1c0.5,0.1,0.9,0.2,1.3,0.4
		v-0.8c0-0.8-0.2-1.5-0.7-2c-0.5-0.5-1.1-0.7-1.9-0.7c-0.5,0-1,0.1-1.5,0.3s-1,0.5-1.5,0.8l-0.4-0.8c1.2-0.8,2.4-1.2,3.5-1.2
		c1.2,0,2.1,0.3,2.8,1c0.7,0.7,1,1.6,1,2.7v4.2c0,0.3,0.1,0.5,0.4,0.5v1.1c-0.2,0-0.4,0.1-0.5,0.1c-0.3,0-0.6-0.1-0.7-0.2
		c-0.2-0.2-0.3-0.4-0.3-0.6l0-0.7c-0.4,0.6-1,1-1.6,1.3C210.2,81.7,209.5,81.9,208.7,81.9z M209,80.9c0.6,0,1.2-0.1,1.8-0.4
		c0.5-0.2,0.9-0.6,1.2-1c0.1-0.1,0.2-0.2,0.2-0.4c0.1-0.1,0.1-0.2,0.1-0.4v-1.5c-0.4-0.2-0.8-0.3-1.3-0.4c-0.4-0.1-0.9-0.1-1.3-0.1
		c-0.9,0-1.6,0.2-2.1,0.5c-0.5,0.4-0.8,0.8-0.8,1.4c0,0.3,0.1,0.6,0.2,0.8c0.1,0.3,0.3,0.5,0.5,0.7c0.2,0.2,0.4,0.3,0.7,0.4
		C208.4,80.9,208.7,80.9,209,80.9z"/>
	<path d="M224.1,81.7h-1.2v-5.2c0-1.1-0.2-1.9-0.5-2.4s-0.8-0.8-1.5-0.8c-0.4,0-0.7,0.1-1.1,0.2c-0.4,0.1-0.7,0.3-1,0.6
		c-0.3,0.2-0.6,0.5-0.8,0.9s-0.4,0.7-0.5,1.1v5.7h-1.2v-9.4h1.1v2.1c0.4-0.7,0.9-1.2,1.6-1.7c0.7-0.4,1.5-0.6,2.3-0.6
		c0.5,0,1,0.1,1.3,0.3s0.6,0.5,0.9,0.8c0.2,0.3,0.4,0.8,0.5,1.3c0.1,0.5,0.1,1.1,0.1,1.7V81.7z"/>
	<path d="M230.5,81.9c-0.6,0-1.2-0.1-1.8-0.4s-1-0.6-1.4-1.1c-0.4-0.4-0.7-1-0.9-1.5s-0.3-1.2-0.3-1.8c0-0.7,0.1-1.3,0.3-1.9
		c0.2-0.6,0.5-1.1,0.9-1.6c0.4-0.4,0.8-0.8,1.4-1.1c0.5-0.3,1.1-0.4,1.7-0.4c0.8,0,1.5,0.2,2.1,0.6c0.6,0.4,1.1,0.9,1.4,1.5v-5.7
		h1.2v11.6c0,0.3,0.1,0.5,0.4,0.5v1.1c-0.2,0-0.3,0.1-0.4,0.1c-0.3,0-0.5-0.1-0.8-0.3c-0.2-0.2-0.3-0.4-0.3-0.7v-0.9
		c-0.4,0.6-0.9,1.1-1.5,1.5C231.9,81.7,231.2,81.9,230.5,81.9z M230.8,80.8c0.3,0,0.6-0.1,1-0.2c0.3-0.1,0.7-0.3,1-0.5
		c0.3-0.2,0.6-0.5,0.8-0.7c0.2-0.3,0.3-0.6,0.4-0.9v-2.9c-0.1-0.3-0.3-0.6-0.5-0.9c-0.2-0.3-0.5-0.5-0.8-0.7
		c-0.3-0.2-0.6-0.4-0.9-0.5s-0.7-0.2-1-0.2c-0.5,0-1,0.1-1.4,0.3c-0.4,0.2-0.8,0.5-1.1,0.9s-0.5,0.8-0.7,1.2
		c-0.2,0.5-0.2,0.9-0.2,1.4c0,0.5,0.1,1,0.3,1.4c0.2,0.5,0.4,0.9,0.7,1.2c0.3,0.3,0.7,0.6,1.1,0.8C229.9,80.7,230.3,80.8,230.8,80.8
		z"/>
	<path d="M241.9,81.9c-0.7,0-1.3-0.1-1.9-0.4c-0.6-0.3-1.1-0.6-1.5-1.1s-0.7-1-1-1.5c-0.2-0.6-0.3-1.2-0.3-1.9
		c0-0.7,0.1-1.3,0.4-1.9c0.2-0.6,0.6-1.1,1-1.5c0.4-0.4,0.9-0.8,1.5-1.1c0.6-0.3,1.2-0.4,1.9-0.4c0.7,0,1.3,0.1,1.9,0.4
		c0.6,0.3,1.1,0.6,1.5,1.1c0.4,0.4,0.7,1,1,1.5c0.2,0.6,0.4,1.2,0.4,1.9c0,0.6-0.1,1.3-0.3,1.9c-0.2,0.6-0.5,1.1-1,1.5
		s-0.9,0.8-1.5,1.1C243.2,81.7,242.6,81.9,241.9,81.9z M238.5,77c0,0.5,0.1,1,0.3,1.5c0.2,0.4,0.4,0.8,0.7,1.2
		c0.3,0.3,0.7,0.6,1.1,0.8s0.9,0.3,1.3,0.3c0.5,0,0.9-0.1,1.3-0.3c0.4-0.2,0.8-0.5,1.1-0.8c0.3-0.3,0.6-0.7,0.7-1.2
		c0.2-0.5,0.3-0.9,0.3-1.5c0-0.5-0.1-1-0.3-1.5s-0.4-0.9-0.7-1.2c-0.3-0.3-0.7-0.6-1.1-0.8c-0.4-0.2-0.9-0.3-1.3-0.3
		c-0.5,0-0.9,0.1-1.3,0.3c-0.4,0.2-0.8,0.5-1.1,0.8c-0.3,0.3-0.6,0.8-0.7,1.2C238.6,76,238.5,76.5,238.5,77z"/>
	<path d="M255.5,81.9c-0.4,0-0.9-0.1-1.2-0.2s-0.7-0.4-1-0.6c-0.3-0.3-0.5-0.6-0.7-0.9c-0.2-0.4-0.2-0.7-0.2-1.1
		c0-0.4,0.1-0.8,0.3-1.1c0.2-0.3,0.5-0.6,0.8-0.9c0.3-0.3,0.8-0.4,1.2-0.6c0.5-0.1,1-0.2,1.6-0.2c0.5,0,1,0,1.5,0.1s0.9,0.2,1.3,0.4
		v-0.8c0-0.8-0.2-1.5-0.7-2s-1.1-0.7-1.9-0.7c-0.5,0-1,0.1-1.5,0.3s-1,0.5-1.5,0.8l-0.4-0.8c1.2-0.8,2.4-1.2,3.5-1.2
		c1.2,0,2.1,0.3,2.8,1c0.7,0.7,1,1.6,1,2.7v4.2c0,0.3,0.2,0.5,0.5,0.5v1.1c-0.2,0-0.4,0.1-0.5,0.1c-0.3,0-0.6-0.1-0.7-0.2
		c-0.2-0.2-0.3-0.4-0.3-0.6l0-0.7c-0.4,0.6-1,1-1.6,1.3C257,81.7,256.3,81.9,255.5,81.9z M255.8,80.9c0.6,0,1.2-0.1,1.8-0.4
		c0.5-0.2,0.9-0.6,1.2-1c0.1-0.1,0.2-0.2,0.2-0.4c0.1-0.1,0.1-0.2,0.1-0.4v-1.5c-0.4-0.2-0.8-0.3-1.3-0.4c-0.4-0.1-0.9-0.1-1.3-0.1
		c-0.9,0-1.6,0.2-2.1,0.5c-0.5,0.4-0.8,0.8-0.8,1.4c0,0.3,0.1,0.6,0.2,0.8s0.3,0.5,0.5,0.7c0.2,0.2,0.4,0.3,0.7,0.4
		C255.2,80.9,255.5,80.9,255.8,80.9z"/>
	<path d="M271.4,81.9c-0.6,0-1.2-0.1-1.8-0.4s-1-0.6-1.4-1.1c-0.4-0.4-0.7-1-0.9-1.5c-0.2-0.6-0.3-1.2-0.3-1.8
		c0-0.7,0.1-1.3,0.3-1.9c0.2-0.6,0.5-1.1,0.9-1.6c0.4-0.4,0.8-0.8,1.3-1.1c0.5-0.3,1.1-0.4,1.7-0.4c0.8,0,1.5,0.2,2.1,0.6
		s1.1,0.9,1.4,1.5v-5.7h1.2v11.6c0,0.3,0.1,0.5,0.4,0.5v1.1c-0.2,0-0.3,0.1-0.4,0.1c-0.3,0-0.5-0.1-0.8-0.3
		c-0.2-0.2-0.3-0.4-0.3-0.7v-0.9c-0.4,0.6-0.9,1.1-1.5,1.5C272.8,81.7,272.1,81.9,271.4,81.9z M271.7,80.8c0.3,0,0.6-0.1,1-0.2
		c0.3-0.1,0.7-0.3,1-0.5c0.3-0.2,0.6-0.5,0.8-0.7c0.2-0.3,0.3-0.6,0.4-0.9v-2.9c-0.1-0.3-0.3-0.6-0.5-0.9c-0.2-0.3-0.5-0.5-0.8-0.7
		c-0.3-0.2-0.6-0.4-0.9-0.5s-0.7-0.2-1-0.2c-0.5,0-1,0.1-1.4,0.3c-0.4,0.2-0.8,0.5-1.1,0.9c-0.3,0.4-0.5,0.8-0.7,1.2
		c-0.2,0.5-0.2,0.9-0.2,1.4c0,0.5,0.1,1,0.3,1.4c0.2,0.5,0.4,0.9,0.7,1.2c0.3,0.3,0.7,0.6,1.1,0.8C270.8,80.7,271.2,80.8,271.7,80.8
		z"/>
	<path d="M282.8,81.9c-0.7,0-1.3-0.1-1.9-0.4s-1.1-0.6-1.5-1.1c-0.4-0.5-0.7-1-1-1.6c-0.2-0.6-0.4-1.2-0.4-1.9
		c0-0.7,0.1-1.3,0.4-1.9c0.2-0.6,0.6-1.1,1-1.5s0.9-0.8,1.5-1c0.6-0.3,1.2-0.4,1.9-0.4c0.7,0,1.3,0.1,1.9,0.4
		c0.6,0.3,1.1,0.6,1.5,1.1c0.4,0.4,0.7,1,1,1.5c0.2,0.6,0.3,1.2,0.3,1.8c0,0.1,0,0.2,0,0.3s0,0.2,0,0.2h-8c0,0.5,0.2,1,0.4,1.4
		c0.2,0.4,0.5,0.8,0.8,1.1c0.3,0.3,0.7,0.6,1.1,0.7c0.4,0.2,0.8,0.3,1.3,0.3c0.3,0,0.6,0,0.9-0.1s0.6-0.2,0.8-0.3s0.5-0.3,0.7-0.5
		c0.2-0.2,0.4-0.4,0.5-0.7l1.1,0.3c-0.1,0.3-0.3,0.7-0.6,0.9c-0.3,0.3-0.6,0.5-0.9,0.7c-0.3,0.2-0.7,0.4-1.2,0.5
		C283.7,81.8,283.3,81.9,282.8,81.9z M286.3,76.5c0-0.5-0.2-1-0.4-1.4s-0.5-0.8-0.8-1.1c-0.3-0.3-0.7-0.5-1.1-0.7s-0.8-0.3-1.3-0.3
		s-0.9,0.1-1.3,0.3s-0.8,0.4-1.1,0.7c-0.3,0.3-0.6,0.7-0.7,1.1c-0.2,0.4-0.3,0.9-0.3,1.4H286.3z"/>
	<path d="M292.5,81.9c-0.7,0-1.4-0.1-2.1-0.4c-0.7-0.2-1.3-0.6-1.8-1l0.6-0.8c0.5,0.4,1.1,0.8,1.6,1c0.5,0.2,1.1,0.3,1.8,0.3
		c0.8,0,1.4-0.2,1.8-0.5c0.5-0.3,0.7-0.7,0.7-1.3c0-0.3-0.1-0.5-0.2-0.7s-0.3-0.3-0.5-0.5c-0.2-0.1-0.5-0.2-0.9-0.4
		c-0.4-0.1-0.8-0.2-1.2-0.3c-0.5-0.1-1-0.3-1.4-0.4c-0.4-0.1-0.7-0.3-1-0.4c-0.3-0.2-0.5-0.4-0.6-0.6c-0.1-0.2-0.2-0.6-0.2-0.9
		c0-0.5,0.1-0.9,0.3-1.2c0.2-0.4,0.4-0.7,0.8-0.9c0.3-0.2,0.7-0.4,1.1-0.5c0.4-0.1,0.9-0.2,1.4-0.2c0.7,0,1.4,0.1,2,0.4
		s1.1,0.5,1.4,0.9l-0.6,0.7c-0.3-0.4-0.8-0.6-1.3-0.8s-1-0.3-1.6-0.3c-0.3,0-0.6,0-0.9,0.1c-0.3,0.1-0.5,0.2-0.7,0.3
		s-0.4,0.3-0.5,0.5c-0.1,0.2-0.2,0.5-0.2,0.8c0,0.3,0,0.5,0.1,0.6c0.1,0.2,0.2,0.3,0.4,0.4s0.4,0.2,0.7,0.3c0.3,0.1,0.7,0.2,1.1,0.3
		c0.6,0.1,1.1,0.3,1.6,0.4c0.5,0.1,0.8,0.3,1.1,0.5c0.3,0.2,0.5,0.4,0.7,0.7c0.2,0.3,0.2,0.6,0.2,1c0,0.9-0.3,1.5-1,2.1
		C294.5,81.6,293.6,81.9,292.5,81.9z"/>
	<path d="M297.5,77c0-0.7,0.1-1.3,0.3-1.9c0.2-0.6,0.5-1.1,1-1.5s0.9-0.8,1.5-1c0.6-0.3,1.2-0.4,1.9-0.4c0.9,0,1.7,0.2,2.3,0.6
		c0.7,0.4,1.2,0.9,1.5,1.6l-1.2,0.4c-0.3-0.5-0.6-0.9-1.1-1.1c-0.5-0.3-1-0.4-1.6-0.4c-0.5,0-0.9,0.1-1.3,0.3s-0.8,0.5-1.1,0.8
		c-0.3,0.3-0.5,0.7-0.7,1.2c-0.2,0.5-0.3,1-0.3,1.5c0,0.5,0.1,1,0.3,1.5c0.2,0.5,0.4,0.9,0.7,1.2c0.3,0.3,0.7,0.6,1.1,0.8
		c0.4,0.2,0.9,0.3,1.3,0.3c0.3,0,0.6,0,0.9-0.1s0.6-0.2,0.8-0.4c0.3-0.1,0.5-0.3,0.6-0.5c0.2-0.2,0.3-0.4,0.4-0.6l1.2,0.4
		c-0.1,0.3-0.3,0.6-0.6,0.9s-0.5,0.5-0.9,0.7s-0.7,0.4-1.1,0.5c-0.4,0.1-0.8,0.2-1.3,0.2c-0.7,0-1.3-0.1-1.9-0.4
		c-0.6-0.3-1.1-0.6-1.5-1.1c-0.4-0.5-0.7-1-1-1.6C297.6,78.3,297.5,77.6,297.5,77z"/>
	<path d="M308,68.5h1.2v11c0,0.3,0.1,0.6,0.3,0.8c0.2,0.2,0.5,0.3,0.8,0.3c0.1,0,0.3,0,0.5-0.1c0.2,0,0.3-0.1,0.5-0.1l0.2,1
		c-0.2,0.1-0.5,0.2-0.8,0.2c-0.3,0.1-0.6,0.1-0.9,0.1c-0.6,0-1-0.2-1.3-0.5c-0.3-0.3-0.5-0.8-0.5-1.3V68.5z"/>
	<path d="M315.2,81.9c-0.4,0-0.9-0.1-1.2-0.2s-0.7-0.4-1-0.6c-0.3-0.3-0.5-0.6-0.7-0.9c-0.2-0.4-0.2-0.7-0.2-1.1
		c0-0.4,0.1-0.8,0.3-1.1c0.2-0.3,0.5-0.6,0.8-0.9c0.3-0.3,0.8-0.4,1.2-0.6c0.5-0.1,1-0.2,1.6-0.2c0.5,0,1,0,1.5,0.1s0.9,0.2,1.3,0.4
		v-0.8c0-0.8-0.2-1.5-0.7-2s-1.1-0.7-1.9-0.7c-0.5,0-1,0.1-1.5,0.3s-1,0.5-1.5,0.8l-0.4-0.8c1.2-0.8,2.4-1.2,3.5-1.2
		c1.2,0,2.1,0.3,2.8,1c0.7,0.7,1,1.6,1,2.7v4.2c0,0.3,0.2,0.5,0.5,0.5v1.1c-0.2,0-0.4,0.1-0.5,0.1c-0.3,0-0.6-0.1-0.7-0.2
		c-0.2-0.2-0.3-0.4-0.3-0.6l0-0.7c-0.4,0.6-1,1-1.6,1.3C316.7,81.7,316,81.9,315.2,81.9z M315.5,80.9c0.6,0,1.2-0.1,1.8-0.4
		c0.5-0.2,0.9-0.6,1.2-1c0.1-0.1,0.2-0.2,0.2-0.4c0.1-0.1,0.1-0.2,0.1-0.4v-1.5c-0.4-0.2-0.8-0.3-1.3-0.4c-0.4-0.1-0.9-0.1-1.3-0.1
		c-0.9,0-1.6,0.2-2.1,0.5c-0.5,0.4-0.8,0.8-0.8,1.4c0,0.3,0.1,0.6,0.2,0.8s0.3,0.5,0.5,0.7c0.2,0.2,0.4,0.3,0.7,0.4
		C314.9,80.9,315.2,80.9,315.5,80.9z"/>
	<path d="M325.8,81.9c-0.7,0-1.4-0.1-2.1-0.4c-0.7-0.2-1.3-0.6-1.8-1l0.6-0.8c0.5,0.4,1.1,0.8,1.6,1c0.5,0.2,1.1,0.3,1.8,0.3
		c0.8,0,1.4-0.2,1.8-0.5c0.5-0.3,0.7-0.7,0.7-1.3c0-0.3-0.1-0.5-0.2-0.7s-0.3-0.3-0.5-0.5c-0.2-0.1-0.5-0.2-0.9-0.4
		c-0.4-0.1-0.8-0.2-1.2-0.3c-0.5-0.1-1-0.3-1.4-0.4c-0.4-0.1-0.7-0.3-1-0.4c-0.3-0.2-0.5-0.4-0.6-0.6c-0.1-0.2-0.2-0.6-0.2-0.9
		c0-0.5,0.1-0.9,0.3-1.2c0.2-0.4,0.4-0.7,0.8-0.9c0.3-0.2,0.7-0.4,1.1-0.5c0.4-0.1,0.9-0.2,1.4-0.2c0.7,0,1.4,0.1,2,0.4
		s1.1,0.5,1.4,0.9l-0.6,0.7c-0.3-0.4-0.8-0.6-1.3-0.8s-1-0.3-1.6-0.3c-0.3,0-0.6,0-0.9,0.1c-0.3,0.1-0.5,0.2-0.7,0.3
		s-0.4,0.3-0.5,0.5c-0.1,0.2-0.2,0.5-0.2,0.8c0,0.3,0,0.5,0.1,0.6c0.1,0.2,0.2,0.3,0.4,0.4s0.4,0.2,0.7,0.3c0.3,0.1,0.7,0.2,1.1,0.3
		c0.6,0.1,1.1,0.3,1.6,0.4c0.5,0.1,0.8,0.3,1.1,0.5c0.3,0.2,0.5,0.4,0.7,0.7c0.2,0.3,0.2,0.6,0.2,1c0,0.9-0.3,1.5-1,2.1
		C327.8,81.6,326.9,81.9,325.8,81.9z"/>
	<path d="M334.6,81.9c-0.7,0-1.4-0.1-2.1-0.4c-0.7-0.2-1.3-0.6-1.8-1l0.6-0.8c0.5,0.4,1.1,0.8,1.6,1c0.5,0.2,1.1,0.3,1.8,0.3
		c0.8,0,1.4-0.2,1.8-0.5c0.5-0.3,0.7-0.7,0.7-1.3c0-0.3-0.1-0.5-0.2-0.7c-0.1-0.2-0.3-0.3-0.5-0.5c-0.2-0.1-0.5-0.2-0.9-0.4
		c-0.4-0.1-0.8-0.2-1.2-0.3c-0.5-0.1-1-0.3-1.4-0.4c-0.4-0.1-0.7-0.3-1-0.4s-0.5-0.4-0.6-0.6c-0.1-0.2-0.2-0.6-0.2-0.9
		c0-0.5,0.1-0.9,0.3-1.2c0.2-0.4,0.4-0.7,0.8-0.9c0.3-0.2,0.7-0.4,1.1-0.5s0.9-0.2,1.4-0.2c0.7,0,1.4,0.1,2,0.4s1.1,0.5,1.4,0.9
		l-0.6,0.7c-0.3-0.4-0.8-0.6-1.3-0.8s-1-0.3-1.6-0.3c-0.3,0-0.6,0-0.9,0.1c-0.3,0.1-0.5,0.2-0.7,0.3s-0.4,0.3-0.5,0.5
		c-0.1,0.2-0.2,0.5-0.2,0.8c0,0.3,0,0.5,0.1,0.6c0.1,0.2,0.2,0.3,0.4,0.4c0.2,0.1,0.4,0.2,0.7,0.3c0.3,0.1,0.7,0.2,1.1,0.3
		c0.6,0.1,1.1,0.3,1.6,0.4c0.5,0.1,0.8,0.3,1.1,0.5c0.3,0.2,0.5,0.4,0.7,0.7c0.2,0.3,0.2,0.6,0.2,1c0,0.9-0.3,1.5-1,2.1
		C336.6,81.6,335.7,81.9,334.6,81.9z"/>
	<path d="M340.2,70.3v-1.8h1.2v1.8H340.2z M340.2,81.7v-9.4h1.2v9.4H340.2z"/>
	<path d="M344.6,73.3h-1.3v-1h1.3V72c0-0.4,0.1-0.9,0.2-1.3s0.3-0.8,0.6-1.2c0.3-0.3,0.6-0.6,1-0.9s0.9-0.3,1.5-0.3
		c0.3,0,0.6,0,0.9,0.1s0.5,0.1,0.8,0.2c0.2,0.1,0.4,0.2,0.6,0.3s0.3,0.2,0.4,0.3l-0.6,0.9c-0.2-0.2-0.5-0.3-0.9-0.5
		s-0.8-0.2-1.2-0.2c-0.4,0-0.7,0.1-1,0.2c-0.3,0.2-0.5,0.4-0.7,0.6c-0.2,0.2-0.3,0.5-0.4,0.8s-0.1,0.6-0.1,0.9v0.3h4.7v9.4h-1.2
		v-8.4h-3.5v8.4h-1.2V73.3z"/>
	<path d="M352.6,77c0-0.7,0.1-1.3,0.3-1.9c0.2-0.6,0.5-1.1,1-1.5s0.9-0.8,1.5-1c0.6-0.3,1.2-0.4,1.9-0.4c0.9,0,1.7,0.2,2.3,0.6
		c0.7,0.4,1.2,0.9,1.5,1.6l-1.2,0.4c-0.3-0.5-0.6-0.9-1.1-1.1c-0.5-0.3-1-0.4-1.6-0.4c-0.5,0-0.9,0.1-1.3,0.3s-0.8,0.5-1.1,0.8
		c-0.3,0.3-0.5,0.7-0.7,1.2c-0.2,0.5-0.3,1-0.3,1.5c0,0.5,0.1,1,0.3,1.5c0.2,0.5,0.4,0.9,0.7,1.2c0.3,0.3,0.7,0.6,1.1,0.8
		c0.4,0.2,0.9,0.3,1.3,0.3c0.3,0,0.6,0,0.9-0.1s0.6-0.2,0.8-0.4c0.3-0.1,0.5-0.3,0.6-0.5c0.2-0.2,0.3-0.4,0.4-0.6l1.2,0.4
		c-0.1,0.3-0.3,0.6-0.6,0.9s-0.5,0.5-0.9,0.7s-0.7,0.4-1.1,0.5c-0.4,0.1-0.8,0.2-1.3,0.2c-0.7,0-1.3-0.1-1.9-0.4
		c-0.6-0.3-1.1-0.6-1.5-1.1c-0.4-0.5-0.7-1-1-1.6C352.7,78.3,352.6,77.6,352.6,77z"/>
	<path d="M365.5,81.9c-0.4,0-0.9-0.1-1.2-0.2s-0.7-0.4-1-0.6c-0.3-0.3-0.5-0.6-0.7-0.9c-0.2-0.4-0.2-0.7-0.2-1.1
		c0-0.4,0.1-0.8,0.3-1.1c0.2-0.3,0.5-0.6,0.8-0.9c0.3-0.3,0.8-0.4,1.2-0.6c0.5-0.1,1-0.2,1.6-0.2c0.5,0,1,0,1.5,0.1s0.9,0.2,1.3,0.4
		v-0.8c0-0.8-0.2-1.5-0.7-2s-1.1-0.7-1.9-0.7c-0.5,0-1,0.1-1.5,0.3s-1,0.5-1.5,0.8l-0.4-0.8c1.2-0.8,2.4-1.2,3.5-1.2
		c1.2,0,2.1,0.3,2.8,1c0.7,0.7,1,1.6,1,2.7v4.2c0,0.3,0.2,0.5,0.5,0.5v1.1c-0.2,0-0.4,0.1-0.5,0.1c-0.3,0-0.6-0.1-0.7-0.2
		c-0.2-0.2-0.3-0.4-0.3-0.6l0-0.7c-0.4,0.6-1,1-1.6,1.3C366.9,81.7,366.2,81.9,365.5,81.9z M365.8,80.9c0.6,0,1.2-0.1,1.8-0.4
		c0.5-0.2,0.9-0.6,1.2-1c0.1-0.1,0.2-0.2,0.2-0.4c0.1-0.1,0.1-0.2,0.1-0.4v-1.5c-0.4-0.2-0.8-0.3-1.3-0.4c-0.4-0.1-0.9-0.1-1.3-0.1
		c-0.9,0-1.6,0.2-2.1,0.5c-0.5,0.4-0.8,0.8-0.8,1.4c0,0.3,0.1,0.6,0.2,0.8s0.3,0.5,0.5,0.7c0.2,0.2,0.4,0.3,0.7,0.4
		C365.1,80.9,365.4,80.9,365.8,80.9z"/>
	<path d="M375.6,83.9c0.2,0.1,0.4,0.2,0.7,0.2c0.3,0.1,0.6,0.1,0.9,0.1c0.7,0,1-0.2,1-0.6c0-0.2-0.1-0.4-0.2-0.5
		c-0.2-0.1-0.4-0.1-0.7-0.1c-0.3,0-0.5,0-0.8,0.1c-0.3,0.1-0.5,0.1-0.6,0.2l0.8-1.4c-0.6,0-1.2-0.2-1.7-0.5s-1-0.6-1.4-1.1
		c-0.4-0.4-0.7-1-0.9-1.5c-0.2-0.6-0.3-1.2-0.3-1.8c0-0.7,0.1-1.3,0.3-1.9c0.2-0.6,0.5-1.1,1-1.5s0.9-0.8,1.5-1s1.2-0.4,1.9-0.4
		c0.9,0,1.7,0.2,2.3,0.6c0.7,0.4,1.2,0.9,1.5,1.6l-1.2,0.4c-0.3-0.5-0.6-0.9-1.1-1.1c-0.5-0.3-1-0.4-1.6-0.4c-0.5,0-0.9,0.1-1.3,0.3
		s-0.8,0.5-1.1,0.8c-0.3,0.3-0.5,0.7-0.7,1.2s-0.3,1-0.3,1.5c0,0.5,0.1,1,0.3,1.5c0.2,0.5,0.4,0.9,0.7,1.2c0.3,0.3,0.7,0.6,1.1,0.8
		c0.4,0.2,0.9,0.3,1.3,0.3c0.3,0,0.6,0,0.9-0.1s0.6-0.2,0.8-0.4s0.5-0.3,0.6-0.5c0.2-0.2,0.3-0.4,0.4-0.6l1.2,0.4
		c-0.3,0.6-0.7,1.2-1.4,1.6c-0.6,0.4-1.4,0.7-2.2,0.7l-0.5,0.8c0.1,0,0.2-0.1,0.4-0.1c0.1,0,0.2,0,0.3,0c0.4,0,0.8,0.1,1,0.3
		s0.4,0.5,0.4,0.8c0,0.4-0.2,0.7-0.5,0.9c-0.3,0.2-0.8,0.3-1.4,0.3c-0.3,0-0.7,0-1-0.1c-0.3-0.1-0.6-0.1-0.8-0.2L375.6,83.9z"/>
	<path d="M385.2,81.9c-0.4,0-0.9-0.1-1.2-0.2s-0.7-0.4-1-0.6c-0.3-0.3-0.5-0.6-0.7-0.9s-0.2-0.7-0.2-1.1c0-0.4,0.1-0.8,0.3-1.1
		c0.2-0.3,0.5-0.6,0.8-0.9c0.3-0.3,0.8-0.4,1.2-0.6c0.5-0.1,1-0.2,1.6-0.2c0.5,0,1,0,1.5,0.1c0.5,0.1,0.9,0.2,1.3,0.4v-0.8
		c0-0.8-0.2-1.5-0.7-2c-0.5-0.5-1.1-0.7-1.9-0.7c-0.5,0-1,0.1-1.5,0.3s-1,0.5-1.5,0.8l-0.4-0.8c1.2-0.8,2.4-1.2,3.5-1.2
		c1.2,0,2.1,0.3,2.8,1c0.7,0.7,1,1.6,1,2.7v4.2c0,0.3,0.1,0.5,0.4,0.5v1.1c-0.2,0-0.4,0.1-0.5,0.1c-0.3,0-0.6-0.1-0.7-0.2
		c-0.2-0.2-0.3-0.4-0.3-0.6l0-0.7c-0.4,0.6-1,1-1.6,1.3S385.9,81.9,385.2,81.9z M385.4,80.9c0.6,0,1.2-0.1,1.8-0.4
		c0.5-0.2,0.9-0.6,1.2-1c0.1-0.1,0.2-0.2,0.2-0.4c0.1-0.1,0.1-0.2,0.1-0.4v-1.5c-0.4-0.2-0.8-0.3-1.3-0.4c-0.4-0.1-0.9-0.1-1.3-0.1
		c-0.9,0-1.6,0.2-2.1,0.5s-0.8,0.8-0.8,1.4c0,0.3,0.1,0.6,0.2,0.8c0.1,0.3,0.3,0.5,0.5,0.7s0.4,0.3,0.7,0.4S385.1,80.9,385.4,80.9z
		 M387.3,70.2c-0.3,0-0.5,0-0.7-0.1c-0.2-0.1-0.4-0.2-0.6-0.2s-0.3-0.2-0.5-0.3s-0.3-0.1-0.5-0.1c-0.2,0-0.4,0-0.5,0.1
		c-0.1,0.1-0.2,0.2-0.3,0.3c-0.1,0.1-0.1,0.2-0.1,0.3c0,0.1,0,0.1,0,0.2h-0.8c0-0.1,0-0.2,0.1-0.4s0.1-0.4,0.2-0.6s0.3-0.4,0.5-0.5
		c0.2-0.1,0.5-0.2,0.8-0.2c0.3,0,0.5,0,0.7,0.1c0.2,0.1,0.4,0.2,0.5,0.3c0.2,0.1,0.3,0.2,0.5,0.3c0.2,0.1,0.4,0.1,0.6,0.1
		s0.4,0,0.5-0.1c0.1-0.1,0.2-0.2,0.3-0.3s0.1-0.2,0.1-0.3c0-0.1,0-0.1,0-0.2h0.8c0,0.1,0,0.2-0.1,0.4c0,0.2-0.1,0.4-0.3,0.6
		c-0.1,0.2-0.3,0.4-0.5,0.5C388,70.1,387.7,70.2,387.3,70.2z"/>
	<path d="M396.6,81.9c-0.7,0-1.3-0.1-1.9-0.4s-1.1-0.6-1.5-1.1s-0.7-1-1-1.5c-0.2-0.6-0.3-1.2-0.3-1.9c0-0.7,0.1-1.3,0.4-1.9
		c0.2-0.6,0.6-1.1,1-1.5c0.4-0.4,0.9-0.8,1.5-1.1c0.6-0.3,1.2-0.4,1.9-0.4s1.3,0.1,1.9,0.4c0.6,0.3,1.1,0.6,1.5,1.1
		c0.4,0.4,0.7,1,1,1.5c0.2,0.6,0.4,1.2,0.4,1.9c0,0.6-0.1,1.3-0.3,1.9c-0.2,0.6-0.5,1.1-1,1.5s-0.9,0.8-1.5,1.1
		S397.3,81.9,396.6,81.9z M393.2,77c0,0.5,0.1,1,0.3,1.5c0.2,0.4,0.4,0.8,0.7,1.2c0.3,0.3,0.7,0.6,1.1,0.8s0.9,0.3,1.3,0.3
		s0.9-0.1,1.3-0.3c0.4-0.2,0.8-0.5,1.1-0.8c0.3-0.3,0.6-0.7,0.7-1.2c0.2-0.5,0.3-0.9,0.3-1.5c0-0.5-0.1-1-0.3-1.5
		c-0.2-0.5-0.4-0.9-0.7-1.2c-0.3-0.3-0.7-0.6-1.1-0.8c-0.4-0.2-0.9-0.3-1.3-0.3s-0.9,0.1-1.3,0.3c-0.4,0.2-0.8,0.5-1.1,0.8
		c-0.3,0.3-0.6,0.8-0.7,1.2S393.2,76.5,393.2,77z"/>
	<path d="M403.1,81.7v-1.8h1.1v1.8H403.1z"/>
</g>
</svg>
